<mxfile host="app.diagrams.net" modified="2024-06-11T09:30:32.278Z" agent="Mozilla/5.0 (X11; Linux x86_64) AppleWebKit/537.36 (KHTML, like Gecko) Chrome/125.0.0.0 Safari/537.36" etag="O0_e-lURs-RhOd4zBarY" version="24.5.2" type="device" pages="7">
  <diagram name="Page-1" id="MpI_UkRvIpGf-qApQIXW">
    <mxGraphModel dx="4097" dy="1986" grid="1" gridSize="10" guides="1" tooltips="1" connect="1" arrows="1" fold="1" page="1" pageScale="1" pageWidth="850" pageHeight="1100" math="0" shadow="0">
      <root>
        <mxCell id="0" />
        <mxCell id="1" parent="0" />
        <UserObject label="" plantUmlData="{&quot;data&quot;:&quot;@startuml\ntitle HR Administrator Manages Training Programs\n\nactor \&quot;HR Administrator\&quot; as HRA\nparticipant \&quot;HR Management System\&quot; as System\nparticipant \&quot;Training Module\&quot; as TM\n\nHRA -&gt; System: Access training program module\nactivate HRA\nactivate System\nSystem -&gt; HRA: Provide list of available training programs\ndeactivate System\n\nHRA -&gt; System: Select training program for management\nactivate System\nSystem -&gt; HRA: Display details and options for selected program\ndeactivate System\n\nHRA -&gt; TM: Modify training program details\nactivate TM\nTM -&gt; System: Save changes\ndeactivate TM\nSystem -&gt; HRA: Confirm changes saved\ndeactivate System\ndeactivate HRA\n\n@enduml\n&quot;,&quot;format&quot;:&quot;svg&quot;}" id="QxsiwyNlK42D7wM30Xxl-4">
          <mxCell style="shape=image;noLabel=1;verticalAlign=top;aspect=fixed;imageAspect=0;image=data:image/svg+xml,PD94bWwgdmVyc2lvbj0iMS4wIiBlbmNvZGluZz0idXMtYXNjaWkiIHN0YW5kYWxvbmU9Im5vIj8+PHN2ZyB4bWxucz0iaHR0cDovL3d3dy53My5vcmcvMjAwMC9zdmciIHhtbG5zOnhsaW5rPSJodHRwOi8vd3d3LnczLm9yZy8xOTk5L3hsaW5rIiBjb250ZW50U3R5bGVUeXBlPSJ0ZXh0L2NzcyIgaGVpZ2h0PSI0MTBweCIgcHJlc2VydmVBc3BlY3RSYXRpbz0ibm9uZSIgc3R5bGU9IndpZHRoOjYzNnB4O2hlaWdodDo0MTBweDtiYWNrZ3JvdW5kOiNGRkZGRkY7IiB2ZXJzaW9uPSIxLjEiIHZpZXdCb3g9IjAgMCA2MzYgNDEwIiB3aWR0aD0iNjM2cHgiIHpvb21BbmRQYW49Im1hZ25pZnkiPjxkZWZzLz48Zz48dGV4dCBmaWxsPSIjMDAwMDAwIiBmb250LWZhbWlseT0ic2Fucy1zZXJpZiIgZm9udC1zaXplPSIxNCIgZm9udC13ZWlnaHQ9ImJvbGQiIGxlbmd0aEFkanVzdD0ic3BhY2luZyIgdGV4dExlbmd0aD0iMjk2IiB4PSIxNjkuMjUiIHk9IjI4LjIzNDQiPkhSIEFkbWluaXN0cmF0b3IgTWFuYWdlcyBUcmFpbmluZyBQcm9ncmFtczwvdGV4dD48cmVjdCBmaWxsPSIjRkZGRkZGIiBoZWlnaHQ9IjE2Ny40ODQ0IiBzdHlsZT0ic3Ryb2tlOiMxODE4MTg7c3Ryb2tlLXdpZHRoOjEuMDsiIHdpZHRoPSIxMCIgeD0iNTkuNSIgeT0iMTQ1Ljg4MjgiLz48cmVjdCBmaWxsPSIjRkZGRkZGIiBoZWlnaHQ9IjI3LjkxNDEiIHN0eWxlPSJzdHJva2U6IzE4MTgxODtzdHJva2Utd2lkdGg6MS4wOyIgd2lkdGg9IjEwIiB4PSI0MTguNSIgeT0iMTQ1Ljg4MjgiLz48cmVjdCBmaWxsPSIjRkZGRkZGIiBoZWlnaHQ9IjI3LjkxNDEiIHN0eWxlPSJzdHJva2U6IzE4MTgxODtzdHJva2Utd2lkdGg6MS4wOyIgd2lkdGg9IjEwIiB4PSI0MTguNSIgeT0iMjAxLjcxMDkiLz48cmVjdCBmaWxsPSIjRkZGRkZGIiBoZWlnaHQ9IjI3LjkxNDEiIHN0eWxlPSJzdHJva2U6IzE4MTgxODtzdHJva2Utd2lkdGg6MS4wOyIgd2lkdGg9IjEwIiB4PSI1NjYiIHk9IjI1Ny41MzkxIi8+PGxpbmUgc3R5bGU9InN0cm9rZTojMTgxODE4O3N0cm9rZS13aWR0aDowLjU7c3Ryb2tlLWRhc2hhcnJheTo1LjAsNS4wOyIgeDE9IjY0IiB4Mj0iNjQiIHkxPSIxMTUuOTY4OCIgeTI9IjMzMS4zNjcyIi8+PGxpbmUgc3R5bGU9InN0cm9rZTojMTgxODE4O3N0cm9rZS13aWR0aDowLjU7c3Ryb2tlLWRhc2hhcnJheTo1LjAsNS4wOyIgeDE9IjQyMy41IiB4Mj0iNDIzLjUiIHkxPSIxMTUuOTY4OCIgeTI9IjMzMS4zNjcyIi8+PGxpbmUgc3R5bGU9InN0cm9rZTojMTgxODE4O3N0cm9rZS13aWR0aDowLjU7c3Ryb2tlLWRhc2hhcnJheTo1LjAsNS4wOyIgeDE9IjU3MC41IiB4Mj0iNTcwLjUiIHkxPSIxMTUuOTY4OCIgeTI9IjMzMS4zNjcyIi8+PHRleHQgZmlsbD0iIzAwMDAwMCIgZm9udC1mYW1pbHk9InNhbnMtc2VyaWYiIGZvbnQtc2l6ZT0iMTQiIGxlbmd0aEFkanVzdD0ic3BhY2luZyIgdGV4dExlbmd0aD0iMTEzIiB4PSI1IiB5PSIxMTQuMjE4OCI+SFIgQWRtaW5pc3RyYXRvcjwvdGV4dD48ZWxsaXBzZSBjeD0iNjQuNSIgY3k9IjQ5LjQ4NDQiIGZpbGw9IiNFMkUyRjAiIHJ4PSI4IiByeT0iOCIgc3R5bGU9InN0cm9rZTojMTgxODE4O3N0cm9rZS13aWR0aDowLjU7Ii8+PHBhdGggZD0iTTY0LjUsNTcuNDg0NCBMNjQuNSw4NC40ODQ0IE01MS41LDY1LjQ4NDQgTDc3LjUsNjUuNDg0NCBNNjQuNSw4NC40ODQ0IEw1MS41LDk5LjQ4NDQgTTY0LjUsODQuNDg0NCBMNzcuNSw5OS40ODQ0ICIgZmlsbD0ibm9uZSIgc3R5bGU9InN0cm9rZTojMTgxODE4O3N0cm9rZS13aWR0aDowLjU7Ii8+PHRleHQgZmlsbD0iIzAwMDAwMCIgZm9udC1mYW1pbHk9InNhbnMtc2VyaWYiIGZvbnQtc2l6ZT0iMTQiIGxlbmd0aEFkanVzdD0ic3BhY2luZyIgdGV4dExlbmd0aD0iMTEzIiB4PSI1IiB5PSIzNDMuNjAxNiI+SFIgQWRtaW5pc3RyYXRvcjwvdGV4dD48ZWxsaXBzZSBjeD0iNjQuNSIgY3k9IjM1My44NTE2IiBmaWxsPSIjRTJFMkYwIiByeD0iOCIgcnk9IjgiIHN0eWxlPSJzdHJva2U6IzE4MTgxODtzdHJva2Utd2lkdGg6MC41OyIvPjxwYXRoIGQ9Ik02NC41LDM2MS44NTE2IEw2NC41LDM4OC44NTE2IE01MS41LDM2OS44NTE2IEw3Ny41LDM2OS44NTE2IE02NC41LDM4OC44NTE2IEw1MS41LDQwMy44NTE2IE02NC41LDM4OC44NTE2IEw3Ny41LDQwMy44NTE2ICIgZmlsbD0ibm9uZSIgc3R5bGU9InN0cm9rZTojMTgxODE4O3N0cm9rZS13aWR0aDowLjU7Ii8+PHJlY3QgZmlsbD0iI0UyRTJGMCIgaGVpZ2h0PSIyOC45ODQ0IiByeD0iMi41IiByeT0iMi41IiBzdHlsZT0ic3Ryb2tlOiMxODE4MTg7c3Ryb2tlLXdpZHRoOjAuNTsiIHdpZHRoPSIxNTYiIHg9IjM0NS41IiB5PSI4NS45ODQ0Ii8+PHRleHQgZmlsbD0iIzAwMDAwMCIgZm9udC1mYW1pbHk9InNhbnMtc2VyaWYiIGZvbnQtc2l6ZT0iMTQiIGxlbmd0aEFkanVzdD0ic3BhY2luZyIgdGV4dExlbmd0aD0iMTQyIiB4PSIzNTIuNSIgeT0iMTA2LjIxODgiPkhSIE1hbmFnZW1lbnQgU3lzdGVtPC90ZXh0PjxyZWN0IGZpbGw9IiNFMkUyRjAiIGhlaWdodD0iMjguOTg0NCIgcng9IjIuNSIgcnk9IjIuNSIgc3R5bGU9InN0cm9rZTojMTgxODE4O3N0cm9rZS13aWR0aDowLjU7IiB3aWR0aD0iMTU2IiB4PSIzNDUuNSIgeT0iMzMwLjM2NzIiLz48dGV4dCBmaWxsPSIjMDAwMDAwIiBmb250LWZhbWlseT0ic2Fucy1zZXJpZiIgZm9udC1zaXplPSIxNCIgbGVuZ3RoQWRqdXN0PSJzcGFjaW5nIiB0ZXh0TGVuZ3RoPSIxNDIiIHg9IjM1Mi41IiB5PSIzNTAuNjAxNiI+SFIgTWFuYWdlbWVudCBTeXN0ZW08L3RleHQ+PHJlY3QgZmlsbD0iI0UyRTJGMCIgaGVpZ2h0PSIyOC45ODQ0IiByeD0iMi41IiByeT0iMi41IiBzdHlsZT0ic3Ryb2tlOiMxODE4MTg7c3Ryb2tlLXdpZHRoOjAuNTsiIHdpZHRoPSIxMTkiIHg9IjUxMS41IiB5PSI4NS45ODQ0Ii8+PHRleHQgZmlsbD0iIzAwMDAwMCIgZm9udC1mYW1pbHk9InNhbnMtc2VyaWYiIGZvbnQtc2l6ZT0iMTQiIGxlbmd0aEFkanVzdD0ic3BhY2luZyIgdGV4dExlbmd0aD0iMTA1IiB4PSI1MTguNSIgeT0iMTA2LjIxODgiPlRyYWluaW5nIE1vZHVsZTwvdGV4dD48cmVjdCBmaWxsPSIjRTJFMkYwIiBoZWlnaHQ9IjI4Ljk4NDQiIHJ4PSIyLjUiIHJ5PSIyLjUiIHN0eWxlPSJzdHJva2U6IzE4MTgxODtzdHJva2Utd2lkdGg6MC41OyIgd2lkdGg9IjExOSIgeD0iNTExLjUiIHk9IjMzMC4zNjcyIi8+PHRleHQgZmlsbD0iIzAwMDAwMCIgZm9udC1mYW1pbHk9InNhbnMtc2VyaWYiIGZvbnQtc2l6ZT0iMTQiIGxlbmd0aEFkanVzdD0ic3BhY2luZyIgdGV4dExlbmd0aD0iMTA1IiB4PSI1MTguNSIgeT0iMzUwLjYwMTYiPlRyYWluaW5nIE1vZHVsZTwvdGV4dD48cmVjdCBmaWxsPSIjRkZGRkZGIiBoZWlnaHQ9IjE2Ny40ODQ0IiBzdHlsZT0ic3Ryb2tlOiMxODE4MTg7c3Ryb2tlLXdpZHRoOjEuMDsiIHdpZHRoPSIxMCIgeD0iNTkuNSIgeT0iMTQ1Ljg4MjgiLz48cmVjdCBmaWxsPSIjRkZGRkZGIiBoZWlnaHQ9IjI3LjkxNDEiIHN0eWxlPSJzdHJva2U6IzE4MTgxODtzdHJva2Utd2lkdGg6MS4wOyIgd2lkdGg9IjEwIiB4PSI0MTguNSIgeT0iMTQ1Ljg4MjgiLz48cmVjdCBmaWxsPSIjRkZGRkZGIiBoZWlnaHQ9IjI3LjkxNDEiIHN0eWxlPSJzdHJva2U6IzE4MTgxODtzdHJva2Utd2lkdGg6MS4wOyIgd2lkdGg9IjEwIiB4PSI0MTguNSIgeT0iMjAxLjcxMDkiLz48cmVjdCBmaWxsPSIjRkZGRkZGIiBoZWlnaHQ9IjI3LjkxNDEiIHN0eWxlPSJzdHJva2U6IzE4MTgxODtzdHJva2Utd2lkdGg6MS4wOyIgd2lkdGg9IjEwIiB4PSI1NjYiIHk9IjI1Ny41MzkxIi8+PHBvbHlnb24gZmlsbD0iIzE4MTgxOCIgcG9pbnRzPSI0MDYuNSwxNDEuODgyOCw0MTYuNSwxNDUuODgyOCw0MDYuNSwxNDkuODgyOCw0MTAuNSwxNDUuODgyOCIgc3R5bGU9InN0cm9rZTojMTgxODE4O3N0cm9rZS13aWR0aDoxLjA7Ii8+PGxpbmUgc3R5bGU9InN0cm9rZTojMTgxODE4O3N0cm9rZS13aWR0aDoxLjA7IiB4MT0iNjkuNSIgeDI9IjQxMi41IiB5MT0iMTQ1Ljg4MjgiIHkyPSIxNDUuODgyOCIvPjx0ZXh0IGZpbGw9IiMwMDAwMDAiIGZvbnQtZmFtaWx5PSJzYW5zLXNlcmlmIiBmb250LXNpemU9IjEzIiBsZW5ndGhBZGp1c3Q9InNwYWNpbmciIHRleHRMZW5ndGg9IjIwNCIgeD0iNzYuNSIgeT0iMTQyLjI1NzgiPkFjY2VzcyB0cmFpbmluZyBwcm9ncmFtIG1vZHVsZTwvdGV4dD48cG9seWdvbiBmaWxsPSIjMTgxODE4IiBwb2ludHM9IjgwLjUsMTY5Ljc5NjksNzAuNSwxNzMuNzk2OSw4MC41LDE3Ny43OTY5LDc2LjUsMTczLjc5NjkiIHN0eWxlPSJzdHJva2U6IzE4MTgxODtzdHJva2Utd2lkdGg6MS4wOyIvPjxsaW5lIHN0eWxlPSJzdHJva2U6IzE4MTgxODtzdHJva2Utd2lkdGg6MS4wOyIgeDE9Ijc0LjUiIHgyPSI0MjIuNSIgeTE9IjE3My43OTY5IiB5Mj0iMTczLjc5NjkiLz48dGV4dCBmaWxsPSIjMDAwMDAwIiBmb250LWZhbWlseT0ic2Fucy1zZXJpZiIgZm9udC1zaXplPSIxMyIgbGVuZ3RoQWRqdXN0PSJzcGFjaW5nIiB0ZXh0TGVuZ3RoPSIyODkiIHg9Ijg2LjUiIHk9IjE3MC4xNzE5Ij5Qcm92aWRlIGxpc3Qgb2YgYXZhaWxhYmxlIHRyYWluaW5nIHByb2dyYW1zPC90ZXh0Pjxwb2x5Z29uIGZpbGw9IiMxODE4MTgiIHBvaW50cz0iNDA2LjUsMTk3LjcxMDksNDE2LjUsMjAxLjcxMDksNDA2LjUsMjA1LjcxMDksNDEwLjUsMjAxLjcxMDkiIHN0eWxlPSJzdHJva2U6IzE4MTgxODtzdHJva2Utd2lkdGg6MS4wOyIvPjxsaW5lIHN0eWxlPSJzdHJva2U6IzE4MTgxODtzdHJva2Utd2lkdGg6MS4wOyIgeDE9IjY5LjUiIHgyPSI0MTIuNSIgeTE9IjIwMS43MTA5IiB5Mj0iMjAxLjcxMDkiLz48dGV4dCBmaWxsPSIjMDAwMDAwIiBmb250LWZhbWlseT0ic2Fucy1zZXJpZiIgZm9udC1zaXplPSIxMyIgbGVuZ3RoQWRqdXN0PSJzcGFjaW5nIiB0ZXh0TGVuZ3RoPSIyNTYiIHg9Ijc2LjUiIHk9IjE5OC4wODU5Ij5TZWxlY3QgdHJhaW5pbmcgcHJvZ3JhbSBmb3IgbWFuYWdlbWVudDwvdGV4dD48cG9seWdvbiBmaWxsPSIjMTgxODE4IiBwb2ludHM9IjgwLjUsMjI1LjYyNSw3MC41LDIyOS42MjUsODAuNSwyMzMuNjI1LDc2LjUsMjI5LjYyNSIgc3R5bGU9InN0cm9rZTojMTgxODE4O3N0cm9rZS13aWR0aDoxLjA7Ii8+PGxpbmUgc3R5bGU9InN0cm9rZTojMTgxODE4O3N0cm9rZS13aWR0aDoxLjA7IiB4MT0iNzQuNSIgeDI9IjQyMi41IiB5MT0iMjI5LjYyNSIgeTI9IjIyOS42MjUiLz48dGV4dCBmaWxsPSIjMDAwMDAwIiBmb250LWZhbWlseT0ic2Fucy1zZXJpZiIgZm9udC1zaXplPSIxMyIgbGVuZ3RoQWRqdXN0PSJzcGFjaW5nIiB0ZXh0TGVuZ3RoPSIzMjUiIHg9Ijg2LjUiIHk9IjIyNiI+RGlzcGxheSBkZXRhaWxzIGFuZCBvcHRpb25zIGZvciBzZWxlY3RlZCBwcm9ncmFtPC90ZXh0Pjxwb2x5Z29uIGZpbGw9IiMxODE4MTgiIHBvaW50cz0iNTU0LDI1My41MzkxLDU2NCwyNTcuNTM5MSw1NTQsMjYxLjUzOTEsNTU4LDI1Ny41MzkxIiBzdHlsZT0ic3Ryb2tlOiMxODE4MTg7c3Ryb2tlLXdpZHRoOjEuMDsiLz48bGluZSBzdHlsZT0ic3Ryb2tlOiMxODE4MTg7c3Ryb2tlLXdpZHRoOjEuMDsiIHgxPSI2OS41IiB4Mj0iNTYwIiB5MT0iMjU3LjUzOTEiIHkyPSIyNTcuNTM5MSIvPjx0ZXh0IGZpbGw9IiMwMDAwMDAiIGZvbnQtZmFtaWx5PSJzYW5zLXNlcmlmIiBmb250LXNpemU9IjEzIiBsZW5ndGhBZGp1c3Q9InNwYWNpbmciIHRleHRMZW5ndGg9IjIwOCIgeD0iNzYuNSIgeT0iMjUzLjkxNDEiPk1vZGlmeSB0cmFpbmluZyBwcm9ncmFtIGRldGFpbHM8L3RleHQ+PHBvbHlnb24gZmlsbD0iIzE4MTgxOCIgcG9pbnRzPSI0MzQuNSwyODEuNDUzMSw0MjQuNSwyODUuNDUzMSw0MzQuNSwyODkuNDUzMSw0MzAuNSwyODUuNDUzMSIgc3R5bGU9InN0cm9rZTojMTgxODE4O3N0cm9rZS13aWR0aDoxLjA7Ii8+PGxpbmUgc3R5bGU9InN0cm9rZTojMTgxODE4O3N0cm9rZS13aWR0aDoxLjA7IiB4MT0iNDI4LjUiIHgyPSI1NzAiIHkxPSIyODUuNDUzMSIgeTI9IjI4NS40NTMxIi8+PHRleHQgZmlsbD0iIzAwMDAwMCIgZm9udC1mYW1pbHk9InNhbnMtc2VyaWYiIGZvbnQtc2l6ZT0iMTMiIGxlbmd0aEFkanVzdD0ic3BhY2luZyIgdGV4dExlbmd0aD0iODQiIHg9IjQ0MC41IiB5PSIyODEuODI4MSI+U2F2ZSBjaGFuZ2VzPC90ZXh0Pjxwb2x5Z29uIGZpbGw9IiMxODE4MTgiIHBvaW50cz0iNzUuNSwzMDkuMzY3Miw2NS41LDMxMy4zNjcyLDc1LjUsMzE3LjM2NzIsNzEuNSwzMTMuMzY3MiIgc3R5bGU9InN0cm9rZTojMTgxODE4O3N0cm9rZS13aWR0aDoxLjA7Ii8+PGxpbmUgc3R5bGU9InN0cm9rZTojMTgxODE4O3N0cm9rZS13aWR0aDoxLjA7IiB4MT0iNjkuNSIgeDI9IjQyMi41IiB5MT0iMzEzLjM2NzIiIHkyPSIzMTMuMzY3MiIvPjx0ZXh0IGZpbGw9IiMwMDAwMDAiIGZvbnQtZmFtaWx5PSJzYW5zLXNlcmlmIiBmb250LXNpemU9IjEzIiBsZW5ndGhBZGp1c3Q9InNwYWNpbmciIHRleHRMZW5ndGg9IjE0NCIgeD0iODEuNSIgeT0iMzA5Ljc0MjIiPkNvbmZpcm0gY2hhbmdlcyBzYXZlZDwvdGV4dD48IS0tU1JDPVtYUDlEUmVHbTM4TnRFT0tyLXJ3MEhRTEhrLVc2Z1VmbTBKU25EMTk5S0VuMXVsT3J1UVNwSkRNazhFNnp2eXpGWTlVVXVFcTNwWXh1dzVhb0lpZkdPeUlFNjlnQ1VYaXhVQy1mb25aTzZCSXB1N0lxZDAxUFN5dmNtMnBVLVc2WjVES0k1S1lGYnVjNUdiNGtoX1ZZVkxZVHRCTWRlY2pnT3BHTGRmdk5JbUxkUXVhUFA1Q0Yybmc0dWZodl84WDIxTU9faEZFTW52b2NOd2p2Z3o0eFdid3RXREcyWmtYeF9ESDZaa2JpNzF0M1pjME53aWRBOHJZaFZPTXpYVi1PTlpxRkZLeFdJMUk2MFFFM0Q4WEZhS2lJYm9kYWpsV19tOWd3Y2hscXhWRzhqU1JfcTZaSkpOc3QzZXU0eldrWl9XWXRHckh1Rzd2OWlWS3ZSNjlXVFJmVms2dmtyRlNEXS0tPjwvZz48L3N2Zz4=;clipPath=inset(0% 0% 19.43% 0%);" parent="1" vertex="1">
            <mxGeometry x="1230" y="880" width="760.1" height="393.98516666666666" as="geometry" />
          </mxCell>
        </UserObject>
        <UserObject label="" plantUmlData="{&quot;data&quot;:&quot;@startuml\ntitle HR Manager Updates Employee Information\n\nactor \&quot;HR Manager\&quot; as HRM\nparticipant \&quot;HR Management System\&quot; as System\nparticipant \&quot;Employee Database\&quot; as DB\n\nHRM -&gt; System: Log in to HRMS\nactivate HRM\nactivate System\nSystem -&gt; HRM: Provide access to employee information\ndeactivate System\n\nHRM -&gt; System: Select employee to update\nactivate System\nSystem -&gt; DB: Retrieve employee data\nactivate DB\ndeactivate DB\n\nHRM -&gt; System: Edit employee information\nactivate System\nSystem -&gt; DB: Update employee record\nactivate DB\ndeactivate DB\n\nSystem -&gt; HRM: Confirmation of update\ndeactivate System\ndeactivate HRM\n\n@enduml\n&quot;,&quot;format&quot;:&quot;svg&quot;}" id="QxsiwyNlK42D7wM30Xxl-7">
          <mxCell style="shape=image;noLabel=1;verticalAlign=top;aspect=fixed;imageAspect=0;image=data:image/svg+xml,PD94bWwgdmVyc2lvbj0iMS4wIiBlbmNvZGluZz0idXMtYXNjaWkiIHN0YW5kYWxvbmU9Im5vIj8+PHN2ZyB4bWxucz0iaHR0cDovL3d3dy53My5vcmcvMjAwMC9zdmciIHhtbG5zOnhsaW5rPSJodHRwOi8vd3d3LnczLm9yZy8xOTk5L3hsaW5rIiBjb250ZW50U3R5bGVUeXBlPSJ0ZXh0L2NzcyIgaGVpZ2h0PSI0NzBweCIgcHJlc2VydmVBc3BlY3RSYXRpbz0ibm9uZSIgc3R5bGU9IndpZHRoOjU5MnB4O2hlaWdodDo0NzBweDtiYWNrZ3JvdW5kOiNGRkZGRkY7IiB2ZXJzaW9uPSIxLjEiIHZpZXdCb3g9IjAgMCA1OTIgNDcwIiB3aWR0aD0iNTkycHgiIHpvb21BbmRQYW49Im1hZ25pZnkiPjxkZWZzLz48Zz48dGV4dCBmaWxsPSIjMDAwMDAwIiBmb250LWZhbWlseT0ic2Fucy1zZXJpZiIgZm9udC1zaXplPSIxNCIgZm9udC13ZWlnaHQ9ImJvbGQiIGxlbmd0aEFkanVzdD0ic3BhY2luZyIgdGV4dExlbmd0aD0iMjc1IiB4PSIxNTcuNSIgeT0iMjguMjM0NCI+SFIgTWFuYWdlciBVcGRhdGVzIEVtcGxveWVlIEluZm9ybWF0aW9uPC90ZXh0PjxyZWN0IGZpbGw9IiNGRkZGRkYiIGhlaWdodD0iMjI3LjQ4NDQiIHN0eWxlPSJzdHJva2U6IzE4MTgxODtzdHJva2Utd2lkdGg6MS4wOyIgd2lkdGg9IjEwIiB4PSIzOCIgeT0iMTQ1Ljg4MjgiLz48cmVjdCBmaWxsPSIjRkZGRkZGIiBoZWlnaHQ9IjI3LjkxNDEiIHN0eWxlPSJzdHJva2U6IzE4MTgxODtzdHJva2Utd2lkdGg6MS4wOyIgd2lkdGg9IjEwIiB4PSIzMjkiIHk9IjE0NS44ODI4Ii8+PHJlY3QgZmlsbD0iI0ZGRkZGRiIgaGVpZ2h0PSIxODAuNjU2MyIgc3R5bGU9InN0cm9rZTojMTgxODE4O3N0cm9rZS13aWR0aDoxLjA7IiB3aWR0aD0iMTAiIHg9IjMyOSIgeT0iMjAxLjcxMDkiLz48cmVjdCBmaWxsPSIjRkZGRkZGIiBoZWlnaHQ9Ijg1LjgyODEiIHN0eWxlPSJzdHJva2U6IzE4MTgxODtzdHJva2Utd2lkdGg6MS4wOyIgd2lkdGg9IjEwIiB4PSIzMzQiIHk9IjI4Ny41MzkxIi8+PHJlY3QgZmlsbD0iI0ZGRkZGRiIgaGVpZ2h0PSIzMCIgc3R5bGU9InN0cm9rZTojMTgxODE4O3N0cm9rZS13aWR0aDoxLjA7IiB3aWR0aD0iMTAiIHg9IjUxNCIgeT0iMjI5LjYyNSIvPjxyZWN0IGZpbGw9IiNGRkZGRkYiIGhlaWdodD0iMzAiIHN0eWxlPSJzdHJva2U6IzE4MTgxODtzdHJva2Utd2lkdGg6MS4wOyIgd2lkdGg9IjEwIiB4PSI1MTQiIHk9IjMxNS40NTMxIi8+PGxpbmUgc3R5bGU9InN0cm9rZTojMTgxODE4O3N0cm9rZS13aWR0aDowLjU7c3Ryb2tlLWRhc2hhcnJheTo1LjAsNS4wOyIgeDE9IjQzIiB4Mj0iNDMiIHkxPSIxMTUuOTY4OCIgeTI9IjM5MS4zNjcyIi8+PGxpbmUgc3R5bGU9InN0cm9rZTojMTgxODE4O3N0cm9rZS13aWR0aDowLjU7c3Ryb2tlLWRhc2hhcnJheTo1LjAsNS4wOyIgeDE9IjMzNCIgeDI9IjMzNCIgeTE9IjExNS45Njg4IiB5Mj0iMzkxLjM2NzIiLz48bGluZSBzdHlsZT0ic3Ryb2tlOiMxODE4MTg7c3Ryb2tlLXdpZHRoOjAuNTtzdHJva2UtZGFzaGFycmF5OjUuMCw1LjA7IiB4MT0iNTE5IiB4Mj0iNTE5IiB5MT0iMTE1Ljk2ODgiIHkyPSIzOTEuMzY3MiIvPjx0ZXh0IGZpbGw9IiMwMDAwMDAiIGZvbnQtZmFtaWx5PSJzYW5zLXNlcmlmIiBmb250LXNpemU9IjE0IiBsZW5ndGhBZGp1c3Q9InNwYWNpbmciIHRleHRMZW5ndGg9IjcwIiB4PSI1IiB5PSIxMTQuMjE4OCI+SFIgTWFuYWdlcjwvdGV4dD48ZWxsaXBzZSBjeD0iNDMiIGN5PSI0OS40ODQ0IiBmaWxsPSIjRTJFMkYwIiByeD0iOCIgcnk9IjgiIHN0eWxlPSJzdHJva2U6IzE4MTgxODtzdHJva2Utd2lkdGg6MC41OyIvPjxwYXRoIGQ9Ik00Myw1Ny40ODQ0IEw0Myw4NC40ODQ0IE0zMCw2NS40ODQ0IEw1Niw2NS40ODQ0IE00Myw4NC40ODQ0IEwzMCw5OS40ODQ0IE00Myw4NC40ODQ0IEw1Niw5OS40ODQ0ICIgZmlsbD0ibm9uZSIgc3R5bGU9InN0cm9rZTojMTgxODE4O3N0cm9rZS13aWR0aDowLjU7Ii8+PHRleHQgZmlsbD0iIzAwMDAwMCIgZm9udC1mYW1pbHk9InNhbnMtc2VyaWYiIGZvbnQtc2l6ZT0iMTQiIGxlbmd0aEFkanVzdD0ic3BhY2luZyIgdGV4dExlbmd0aD0iNzAiIHg9IjUiIHk9IjQwMy42MDE2Ij5IUiBNYW5hZ2VyPC90ZXh0PjxlbGxpcHNlIGN4PSI0MyIgY3k9IjQxMy44NTE2IiBmaWxsPSIjRTJFMkYwIiByeD0iOCIgcnk9IjgiIHN0eWxlPSJzdHJva2U6IzE4MTgxODtzdHJva2Utd2lkdGg6MC41OyIvPjxwYXRoIGQ9Ik00Myw0MjEuODUxNiBMNDMsNDQ4Ljg1MTYgTTMwLDQyOS44NTE2IEw1Niw0MjkuODUxNiBNNDMsNDQ4Ljg1MTYgTDMwLDQ2My44NTE2IE00Myw0NDguODUxNiBMNTYsNDYzLjg1MTYgIiBmaWxsPSJub25lIiBzdHlsZT0ic3Ryb2tlOiMxODE4MTg7c3Ryb2tlLXdpZHRoOjAuNTsiLz48cmVjdCBmaWxsPSIjRTJFMkYwIiBoZWlnaHQ9IjI4Ljk4NDQiIHJ4PSIyLjUiIHJ5PSIyLjUiIHN0eWxlPSJzdHJva2U6IzE4MTgxODtzdHJva2Utd2lkdGg6MC41OyIgd2lkdGg9IjE1NiIgeD0iMjU2IiB5PSI4NS45ODQ0Ii8+PHRleHQgZmlsbD0iIzAwMDAwMCIgZm9udC1mYW1pbHk9InNhbnMtc2VyaWYiIGZvbnQtc2l6ZT0iMTQiIGxlbmd0aEFkanVzdD0ic3BhY2luZyIgdGV4dExlbmd0aD0iMTQyIiB4PSIyNjMiIHk9IjEwNi4yMTg4Ij5IUiBNYW5hZ2VtZW50IFN5c3RlbTwvdGV4dD48cmVjdCBmaWxsPSIjRTJFMkYwIiBoZWlnaHQ9IjI4Ljk4NDQiIHJ4PSIyLjUiIHJ5PSIyLjUiIHN0eWxlPSJzdHJva2U6IzE4MTgxODtzdHJva2Utd2lkdGg6MC41OyIgd2lkdGg9IjE1NiIgeD0iMjU2IiB5PSIzOTAuMzY3MiIvPjx0ZXh0IGZpbGw9IiMwMDAwMDAiIGZvbnQtZmFtaWx5PSJzYW5zLXNlcmlmIiBmb250LXNpemU9IjE0IiBsZW5ndGhBZGp1c3Q9InNwYWNpbmciIHRleHRMZW5ndGg9IjE0MiIgeD0iMjYzIiB5PSI0MTAuNjAxNiI+SFIgTWFuYWdlbWVudCBTeXN0ZW08L3RleHQ+PHJlY3QgZmlsbD0iI0UyRTJGMCIgaGVpZ2h0PSIyOC45ODQ0IiByeD0iMi41IiByeT0iMi41IiBzdHlsZT0ic3Ryb2tlOiMxODE4MTg7c3Ryb2tlLXdpZHRoOjAuNTsiIHdpZHRoPSIxMzQiIHg9IjQ1MiIgeT0iODUuOTg0NCIvPjx0ZXh0IGZpbGw9IiMwMDAwMDAiIGZvbnQtZmFtaWx5PSJzYW5zLXNlcmlmIiBmb250LXNpemU9IjE0IiBsZW5ndGhBZGp1c3Q9InNwYWNpbmciIHRleHRMZW5ndGg9IjEyMCIgeD0iNDU5IiB5PSIxMDYuMjE4OCI+RW1wbG95ZWUgRGF0YWJhc2U8L3RleHQ+PHJlY3QgZmlsbD0iI0UyRTJGMCIgaGVpZ2h0PSIyOC45ODQ0IiByeD0iMi41IiByeT0iMi41IiBzdHlsZT0ic3Ryb2tlOiMxODE4MTg7c3Ryb2tlLXdpZHRoOjAuNTsiIHdpZHRoPSIxMzQiIHg9IjQ1MiIgeT0iMzkwLjM2NzIiLz48dGV4dCBmaWxsPSIjMDAwMDAwIiBmb250LWZhbWlseT0ic2Fucy1zZXJpZiIgZm9udC1zaXplPSIxNCIgbGVuZ3RoQWRqdXN0PSJzcGFjaW5nIiB0ZXh0TGVuZ3RoPSIxMjAiIHg9IjQ1OSIgeT0iNDEwLjYwMTYiPkVtcGxveWVlIERhdGFiYXNlPC90ZXh0PjxyZWN0IGZpbGw9IiNGRkZGRkYiIGhlaWdodD0iMjI3LjQ4NDQiIHN0eWxlPSJzdHJva2U6IzE4MTgxODtzdHJva2Utd2lkdGg6MS4wOyIgd2lkdGg9IjEwIiB4PSIzOCIgeT0iMTQ1Ljg4MjgiLz48cmVjdCBmaWxsPSIjRkZGRkZGIiBoZWlnaHQ9IjI3LjkxNDEiIHN0eWxlPSJzdHJva2U6IzE4MTgxODtzdHJva2Utd2lkdGg6MS4wOyIgd2lkdGg9IjEwIiB4PSIzMjkiIHk9IjE0NS44ODI4Ii8+PHJlY3QgZmlsbD0iI0ZGRkZGRiIgaGVpZ2h0PSIxODAuNjU2MyIgc3R5bGU9InN0cm9rZTojMTgxODE4O3N0cm9rZS13aWR0aDoxLjA7IiB3aWR0aD0iMTAiIHg9IjMyOSIgeT0iMjAxLjcxMDkiLz48cmVjdCBmaWxsPSIjRkZGRkZGIiBoZWlnaHQ9Ijg1LjgyODEiIHN0eWxlPSJzdHJva2U6IzE4MTgxODtzdHJva2Utd2lkdGg6MS4wOyIgd2lkdGg9IjEwIiB4PSIzMzQiIHk9IjI4Ny41MzkxIi8+PHJlY3QgZmlsbD0iI0ZGRkZGRiIgaGVpZ2h0PSIzMCIgc3R5bGU9InN0cm9rZTojMTgxODE4O3N0cm9rZS13aWR0aDoxLjA7IiB3aWR0aD0iMTAiIHg9IjUxNCIgeT0iMjI5LjYyNSIvPjxyZWN0IGZpbGw9IiNGRkZGRkYiIGhlaWdodD0iMzAiIHN0eWxlPSJzdHJva2U6IzE4MTgxODtzdHJva2Utd2lkdGg6MS4wOyIgd2lkdGg9IjEwIiB4PSI1MTQiIHk9IjMxNS40NTMxIi8+PHBvbHlnb24gZmlsbD0iIzE4MTgxOCIgcG9pbnRzPSIzMTcsMTQxLjg4MjgsMzI3LDE0NS44ODI4LDMxNywxNDkuODgyOCwzMjEsMTQ1Ljg4MjgiIHN0eWxlPSJzdHJva2U6IzE4MTgxODtzdHJva2Utd2lkdGg6MS4wOyIvPjxsaW5lIHN0eWxlPSJzdHJva2U6IzE4MTgxODtzdHJva2Utd2lkdGg6MS4wOyIgeDE9IjQ4IiB4Mj0iMzIzIiB5MT0iMTQ1Ljg4MjgiIHkyPSIxNDUuODgyOCIvPjx0ZXh0IGZpbGw9IiMwMDAwMDAiIGZvbnQtZmFtaWx5PSJzYW5zLXNlcmlmIiBmb250LXNpemU9IjEzIiBsZW5ndGhBZGp1c3Q9InNwYWNpbmciIHRleHRMZW5ndGg9Ijk2IiB4PSI1NSIgeT0iMTQyLjI1NzgiPkxvZyBpbiB0byBIUk1TPC90ZXh0Pjxwb2x5Z29uIGZpbGw9IiMxODE4MTgiIHBvaW50cz0iNTksMTY5Ljc5NjksNDksMTczLjc5NjksNTksMTc3Ljc5NjksNTUsMTczLjc5NjkiIHN0eWxlPSJzdHJva2U6IzE4MTgxODtzdHJva2Utd2lkdGg6MS4wOyIvPjxsaW5lIHN0eWxlPSJzdHJva2U6IzE4MTgxODtzdHJva2Utd2lkdGg6MS4wOyIgeDE9IjUzIiB4Mj0iMzMzIiB5MT0iMTczLjc5NjkiIHkyPSIxNzMuNzk2OSIvPjx0ZXh0IGZpbGw9IiMwMDAwMDAiIGZvbnQtZmFtaWx5PSJzYW5zLXNlcmlmIiBmb250LXNpemU9IjEzIiBsZW5ndGhBZGp1c3Q9InNwYWNpbmciIHRleHRMZW5ndGg9IjI1NyIgeD0iNjUiIHk9IjE3MC4xNzE5Ij5Qcm92aWRlIGFjY2VzcyB0byBlbXBsb3llZSBpbmZvcm1hdGlvbjwvdGV4dD48cG9seWdvbiBmaWxsPSIjMTgxODE4IiBwb2ludHM9IjMxNywxOTcuNzEwOSwzMjcsMjAxLjcxMDksMzE3LDIwNS43MTA5LDMyMSwyMDEuNzEwOSIgc3R5bGU9InN0cm9rZTojMTgxODE4O3N0cm9rZS13aWR0aDoxLjA7Ii8+PGxpbmUgc3R5bGU9InN0cm9rZTojMTgxODE4O3N0cm9rZS13aWR0aDoxLjA7IiB4MT0iNDgiIHgyPSIzMjMiIHkxPSIyMDEuNzEwOSIgeTI9IjIwMS43MTA5Ii8+PHRleHQgZmlsbD0iIzAwMDAwMCIgZm9udC1mYW1pbHk9InNhbnMtc2VyaWYiIGZvbnQtc2l6ZT0iMTMiIGxlbmd0aEFkanVzdD0ic3BhY2luZyIgdGV4dExlbmd0aD0iMTY5IiB4PSI1NSIgeT0iMTk4LjA4NTkiPlNlbGVjdCBlbXBsb3llZSB0byB1cGRhdGU8L3RleHQ+PHBvbHlnb24gZmlsbD0iIzE4MTgxOCIgcG9pbnRzPSI1MDIsMjI1LjYyNSw1MTIsMjI5LjYyNSw1MDIsMjMzLjYyNSw1MDYsMjI5LjYyNSIgc3R5bGU9InN0cm9rZTojMTgxODE4O3N0cm9rZS13aWR0aDoxLjA7Ii8+PGxpbmUgc3R5bGU9InN0cm9rZTojMTgxODE4O3N0cm9rZS13aWR0aDoxLjA7IiB4MT0iMzM5IiB4Mj0iNTA4IiB5MT0iMjI5LjYyNSIgeTI9IjIyOS42MjUiLz48dGV4dCBmaWxsPSIjMDAwMDAwIiBmb250LWZhbWlseT0ic2Fucy1zZXJpZiIgZm9udC1zaXplPSIxMyIgbGVuZ3RoQWRqdXN0PSJzcGFjaW5nIiB0ZXh0TGVuZ3RoPSIxNDkiIHg9IjM0NiIgeT0iMjI2Ij5SZXRyaWV2ZSBlbXBsb3llZSBkYXRhPC90ZXh0Pjxwb2x5Z29uIGZpbGw9IiMxODE4MTgiIHBvaW50cz0iMzIyLDI4My41MzkxLDMzMiwyODcuNTM5MSwzMjIsMjkxLjUzOTEsMzI2LDI4Ny41MzkxIiBzdHlsZT0ic3Ryb2tlOiMxODE4MTg7c3Ryb2tlLXdpZHRoOjEuMDsiLz48bGluZSBzdHlsZT0ic3Ryb2tlOiMxODE4MTg7c3Ryb2tlLXdpZHRoOjEuMDsiIHgxPSI0OCIgeDI9IjMyOCIgeTE9IjI4Ny41MzkxIiB5Mj0iMjg3LjUzOTEiLz48dGV4dCBmaWxsPSIjMDAwMDAwIiBmb250LWZhbWlseT0ic2Fucy1zZXJpZiIgZm9udC1zaXplPSIxMyIgbGVuZ3RoQWRqdXN0PSJzcGFjaW5nIiB0ZXh0TGVuZ3RoPSIxNjYiIHg9IjU1IiB5PSIyODMuOTE0MSI+RWRpdCBlbXBsb3llZSBpbmZvcm1hdGlvbjwvdGV4dD48cG9seWdvbiBmaWxsPSIjMTgxODE4IiBwb2ludHM9IjUwMiwzMTEuNDUzMSw1MTIsMzE1LjQ1MzEsNTAyLDMxOS40NTMxLDUwNiwzMTUuNDUzMSIgc3R5bGU9InN0cm9rZTojMTgxODE4O3N0cm9rZS13aWR0aDoxLjA7Ii8+PGxpbmUgc3R5bGU9InN0cm9rZTojMTgxODE4O3N0cm9rZS13aWR0aDoxLjA7IiB4MT0iMzQ0IiB4Mj0iNTA4IiB5MT0iMzE1LjQ1MzEiIHkyPSIzMTUuNDUzMSIvPjx0ZXh0IGZpbGw9IiMwMDAwMDAiIGZvbnQtZmFtaWx5PSJzYW5zLXNlcmlmIiBmb250LXNpemU9IjEzIiBsZW5ndGhBZGp1c3Q9InNwYWNpbmciIHRleHRMZW5ndGg9IjE1MSIgeD0iMzUxIiB5PSIzMTEuODI4MSI+VXBkYXRlIGVtcGxveWVlIHJlY29yZDwvdGV4dD48cG9seWdvbiBmaWxsPSIjMTgxODE4IiBwb2ludHM9IjU0LDM2OS4zNjcyLDQ0LDM3My4zNjcyLDU0LDM3Ny4zNjcyLDUwLDM3My4zNjcyIiBzdHlsZT0ic3Ryb2tlOiMxODE4MTg7c3Ryb2tlLXdpZHRoOjEuMDsiLz48bGluZSBzdHlsZT0ic3Ryb2tlOiMxODE4MTg7c3Ryb2tlLXdpZHRoOjEuMDsiIHgxPSI0OCIgeDI9IjMyOCIgeTE9IjM3My4zNjcyIiB5Mj0iMzczLjM2NzIiLz48dGV4dCBmaWxsPSIjMDAwMDAwIiBmb250LWZhbWlseT0ic2Fucy1zZXJpZiIgZm9udC1zaXplPSIxMyIgbGVuZ3RoQWRqdXN0PSJzcGFjaW5nIiB0ZXh0TGVuZ3RoPSIxNDciIHg9IjYwIiB5PSIzNjkuNzQyMiI+Q29uZmlybWF0aW9uIG9mIHVwZGF0ZTwvdGV4dD48IS0tU1JDPVtWUDdGUWlDbTM4VmxWV2hIVXJ5V1huc3c1M1BPT0pKaTBKSFJBT0I0MmhPUXdEbE4tVEN3b3FmRVlNRHotZHZJYkJLWC0zWjMySnJVQUMxRnZyMGZtaDdqNmhhSG1RVWw5UkllQkR1T2oyZTFUaGItMW5XSlZaOFQxY05CN05mVHRCVUtaaktqQWhMWnZWSndqX1hmQWI3bjVvRURiVU4xY0RHTnpjeXBMQzJOTjgwemcwcDJRaVoyVlNld3dmLTdzSjB6MVpoVDVsMFRmNlQ3V0RQSVo0Q0JVYlh2Q1AtWlRQenJYZWVRaWZoZnJFYXdSY21aR05hZXU0bVFjN2hBUDg4bUdzZFNYVnA1eTRWNy1aaHFqZFp3ZHZhQ1AyTXVCVjVnVFVfWVF2dlQ4RkxadEYtaE1kbjl1MXEwXS0tPjwvZz48L3N2Zz4=;clipPath=inset(0% 0% 17.23% 0%);" parent="1" vertex="1">
            <mxGeometry x="80" y="1550" width="818.72" height="537.6261333333334" as="geometry" />
          </mxCell>
        </UserObject>
        <UserObject label="" plantUmlData="{&quot;data&quot;:&quot;@startuml\ntitle HR Professional Conducts Performance Evaluation\n\nactor \&quot;HR Professional\&quot; as HRP\nparticipant \&quot;HR Management System\&quot; as System\nparticipant \&quot;Employee Database\&quot; as DB\n\nHRP -&gt; System: Log in to HRMS\nactivate HRP\nactivate System\nSystem -&gt; HRP: Provide access to performance evaluation module\ndeactivate System\n\nHRP -&gt; System: Select employee for evaluation\nactivate System\nSystem -&gt; DB: Retrieve employee performance data\nactivate DB\ndeactivate DB\n\nHRP -&gt; System: Conduct performance evaluation\nSystem -&gt; DB: Update performance records\nactivate DB\ndeactivate DB\n\nSystem -&gt; HRP: Confirmation of evaluation completion\ndeactivate System\ndeactivate HRP\n\n@enduml\n&quot;,&quot;format&quot;:&quot;svg&quot;}" id="QxsiwyNlK42D7wM30Xxl-8">
          <mxCell style="shape=image;noLabel=1;verticalAlign=top;aspect=fixed;imageAspect=0;image=data:image/svg+xml,PD94bWwgdmVyc2lvbj0iMS4wIiBlbmNvZGluZz0idXMtYXNjaWkiIHN0YW5kYWxvbmU9Im5vIj8+PHN2ZyB4bWxucz0iaHR0cDovL3d3dy53My5vcmcvMjAwMC9zdmciIHhtbG5zOnhsaW5rPSJodHRwOi8vd3d3LnczLm9yZy8xOTk5L3hsaW5rIiBjb250ZW50U3R5bGVUeXBlPSJ0ZXh0L2NzcyIgaGVpZ2h0PSI0NzBweCIgcHJlc2VydmVBc3BlY3RSYXRpbz0ibm9uZSIgc3R5bGU9IndpZHRoOjc0N3B4O2hlaWdodDo0NzBweDtiYWNrZ3JvdW5kOiNGRkZGRkY7IiB2ZXJzaW9uPSIxLjEiIHZpZXdCb3g9IjAgMCA3NDcgNDcwIiB3aWR0aD0iNzQ3cHgiIHpvb21BbmRQYW49Im1hZ25pZnkiPjxkZWZzLz48Zz48dGV4dCBmaWxsPSIjMDAwMDAwIiBmb250LWZhbWlseT0ic2Fucy1zZXJpZiIgZm9udC1zaXplPSIxNCIgZm9udC13ZWlnaHQ9ImJvbGQiIGxlbmd0aEFkanVzdD0ic3BhY2luZyIgdGV4dExlbmd0aD0iMzMwIiB4PSIyMDcuNzUiIHk9IjI4LjIzNDQiPkhSIFByb2Zlc3Npb25hbCBDb25kdWN0cyBQZXJmb3JtYW5jZSBFdmFsdWF0aW9uPC90ZXh0PjxyZWN0IGZpbGw9IiNGRkZGRkYiIGhlaWdodD0iMjI3LjQ4NDQiIHN0eWxlPSJzdHJva2U6IzE4MTgxODtzdHJva2Utd2lkdGg6MS4wOyIgd2lkdGg9IjEwIiB4PSI1NS41IiB5PSIxNDUuODgyOCIvPjxyZWN0IGZpbGw9IiNGRkZGRkYiIGhlaWdodD0iMjcuOTE0MSIgc3R5bGU9InN0cm9rZTojMTgxODE4O3N0cm9rZS13aWR0aDoxLjA7IiB3aWR0aD0iMTAiIHg9IjQwOS41IiB5PSIxNDUuODgyOCIvPjxyZWN0IGZpbGw9IiNGRkZGRkYiIGhlaWdodD0iMTcxLjY1NjMiIHN0eWxlPSJzdHJva2U6IzE4MTgxODtzdHJva2Utd2lkdGg6MS4wOyIgd2lkdGg9IjEwIiB4PSI0MDkuNSIgeT0iMjAxLjcxMDkiLz48cmVjdCBmaWxsPSIjRkZGRkZGIiBoZWlnaHQ9IjMwIiBzdHlsZT0ic3Ryb2tlOiMxODE4MTg7c3Ryb2tlLXdpZHRoOjEuMDsiIHdpZHRoPSIxMCIgeD0iNjY5LjUiIHk9IjIyOS42MjUiLz48cmVjdCBmaWxsPSIjRkZGRkZGIiBoZWlnaHQ9IjMwIiBzdHlsZT0ic3Ryb2tlOiMxODE4MTg7c3Ryb2tlLXdpZHRoOjEuMDsiIHdpZHRoPSIxMCIgeD0iNjY5LjUiIHk9IjMxNS40NTMxIi8+PGxpbmUgc3R5bGU9InN0cm9rZTojMTgxODE4O3N0cm9rZS13aWR0aDowLjU7c3Ryb2tlLWRhc2hhcnJheTo1LjAsNS4wOyIgeDE9IjYwIiB4Mj0iNjAiIHkxPSIxMTUuOTY4OCIgeTI9IjM5MS4zNjcyIi8+PGxpbmUgc3R5bGU9InN0cm9rZTojMTgxODE4O3N0cm9rZS13aWR0aDowLjU7c3Ryb2tlLWRhc2hhcnJheTo1LjAsNS4wOyIgeDE9IjQxNC41IiB4Mj0iNDE0LjUiIHkxPSIxMTUuOTY4OCIgeTI9IjM5MS4zNjcyIi8+PGxpbmUgc3R5bGU9InN0cm9rZTojMTgxODE4O3N0cm9rZS13aWR0aDowLjU7c3Ryb2tlLWRhc2hhcnJheTo1LjAsNS4wOyIgeDE9IjY3NC41IiB4Mj0iNjc0LjUiIHkxPSIxMTUuOTY4OCIgeTI9IjM5MS4zNjcyIi8+PHRleHQgZmlsbD0iIzAwMDAwMCIgZm9udC1mYW1pbHk9InNhbnMtc2VyaWYiIGZvbnQtc2l6ZT0iMTQiIGxlbmd0aEFkanVzdD0ic3BhY2luZyIgdGV4dExlbmd0aD0iMTA1IiB4PSI1IiB5PSIxMTQuMjE4OCI+SFIgUHJvZmVzc2lvbmFsPC90ZXh0PjxlbGxpcHNlIGN4PSI2MC41IiBjeT0iNDkuNDg0NCIgZmlsbD0iI0UyRTJGMCIgcng9IjgiIHJ5PSI4IiBzdHlsZT0ic3Ryb2tlOiMxODE4MTg7c3Ryb2tlLXdpZHRoOjAuNTsiLz48cGF0aCBkPSJNNjAuNSw1Ny40ODQ0IEw2MC41LDg0LjQ4NDQgTTQ3LjUsNjUuNDg0NCBMNzMuNSw2NS40ODQ0IE02MC41LDg0LjQ4NDQgTDQ3LjUsOTkuNDg0NCBNNjAuNSw4NC40ODQ0IEw3My41LDk5LjQ4NDQgIiBmaWxsPSJub25lIiBzdHlsZT0ic3Ryb2tlOiMxODE4MTg7c3Ryb2tlLXdpZHRoOjAuNTsiLz48dGV4dCBmaWxsPSIjMDAwMDAwIiBmb250LWZhbWlseT0ic2Fucy1zZXJpZiIgZm9udC1zaXplPSIxNCIgbGVuZ3RoQWRqdXN0PSJzcGFjaW5nIiB0ZXh0TGVuZ3RoPSIxMDUiIHg9IjUiIHk9IjQwMy42MDE2Ij5IUiBQcm9mZXNzaW9uYWw8L3RleHQ+PGVsbGlwc2UgY3g9IjYwLjUiIGN5PSI0MTMuODUxNiIgZmlsbD0iI0UyRTJGMCIgcng9IjgiIHJ5PSI4IiBzdHlsZT0ic3Ryb2tlOiMxODE4MTg7c3Ryb2tlLXdpZHRoOjAuNTsiLz48cGF0aCBkPSJNNjAuNSw0MjEuODUxNiBMNjAuNSw0NDguODUxNiBNNDcuNSw0MjkuODUxNiBMNzMuNSw0MjkuODUxNiBNNjAuNSw0NDguODUxNiBMNDcuNSw0NjMuODUxNiBNNjAuNSw0NDguODUxNiBMNzMuNSw0NjMuODUxNiAiIGZpbGw9Im5vbmUiIHN0eWxlPSJzdHJva2U6IzE4MTgxODtzdHJva2Utd2lkdGg6MC41OyIvPjxyZWN0IGZpbGw9IiNFMkUyRjAiIGhlaWdodD0iMjguOTg0NCIgcng9IjIuNSIgcnk9IjIuNSIgc3R5bGU9InN0cm9rZTojMTgxODE4O3N0cm9rZS13aWR0aDowLjU7IiB3aWR0aD0iMTU2IiB4PSIzMzYuNSIgeT0iODUuOTg0NCIvPjx0ZXh0IGZpbGw9IiMwMDAwMDAiIGZvbnQtZmFtaWx5PSJzYW5zLXNlcmlmIiBmb250LXNpemU9IjE0IiBsZW5ndGhBZGp1c3Q9InNwYWNpbmciIHRleHRMZW5ndGg9IjE0MiIgeD0iMzQzLjUiIHk9IjEwNi4yMTg4Ij5IUiBNYW5hZ2VtZW50IFN5c3RlbTwvdGV4dD48cmVjdCBmaWxsPSIjRTJFMkYwIiBoZWlnaHQ9IjI4Ljk4NDQiIHJ4PSIyLjUiIHJ5PSIyLjUiIHN0eWxlPSJzdHJva2U6IzE4MTgxODtzdHJva2Utd2lkdGg6MC41OyIgd2lkdGg9IjE1NiIgeD0iMzM2LjUiIHk9IjM5MC4zNjcyIi8+PHRleHQgZmlsbD0iIzAwMDAwMCIgZm9udC1mYW1pbHk9InNhbnMtc2VyaWYiIGZvbnQtc2l6ZT0iMTQiIGxlbmd0aEFkanVzdD0ic3BhY2luZyIgdGV4dExlbmd0aD0iMTQyIiB4PSIzNDMuNSIgeT0iNDEwLjYwMTYiPkhSIE1hbmFnZW1lbnQgU3lzdGVtPC90ZXh0PjxyZWN0IGZpbGw9IiNFMkUyRjAiIGhlaWdodD0iMjguOTg0NCIgcng9IjIuNSIgcnk9IjIuNSIgc3R5bGU9InN0cm9rZTojMTgxODE4O3N0cm9rZS13aWR0aDowLjU7IiB3aWR0aD0iMTM0IiB4PSI2MDcuNSIgeT0iODUuOTg0NCIvPjx0ZXh0IGZpbGw9IiMwMDAwMDAiIGZvbnQtZmFtaWx5PSJzYW5zLXNlcmlmIiBmb250LXNpemU9IjE0IiBsZW5ndGhBZGp1c3Q9InNwYWNpbmciIHRleHRMZW5ndGg9IjEyMCIgeD0iNjE0LjUiIHk9IjEwNi4yMTg4Ij5FbXBsb3llZSBEYXRhYmFzZTwvdGV4dD48cmVjdCBmaWxsPSIjRTJFMkYwIiBoZWlnaHQ9IjI4Ljk4NDQiIHJ4PSIyLjUiIHJ5PSIyLjUiIHN0eWxlPSJzdHJva2U6IzE4MTgxODtzdHJva2Utd2lkdGg6MC41OyIgd2lkdGg9IjEzNCIgeD0iNjA3LjUiIHk9IjM5MC4zNjcyIi8+PHRleHQgZmlsbD0iIzAwMDAwMCIgZm9udC1mYW1pbHk9InNhbnMtc2VyaWYiIGZvbnQtc2l6ZT0iMTQiIGxlbmd0aEFkanVzdD0ic3BhY2luZyIgdGV4dExlbmd0aD0iMTIwIiB4PSI2MTQuNSIgeT0iNDEwLjYwMTYiPkVtcGxveWVlIERhdGFiYXNlPC90ZXh0PjxyZWN0IGZpbGw9IiNGRkZGRkYiIGhlaWdodD0iMjI3LjQ4NDQiIHN0eWxlPSJzdHJva2U6IzE4MTgxODtzdHJva2Utd2lkdGg6MS4wOyIgd2lkdGg9IjEwIiB4PSI1NS41IiB5PSIxNDUuODgyOCIvPjxyZWN0IGZpbGw9IiNGRkZGRkYiIGhlaWdodD0iMjcuOTE0MSIgc3R5bGU9InN0cm9rZTojMTgxODE4O3N0cm9rZS13aWR0aDoxLjA7IiB3aWR0aD0iMTAiIHg9IjQwOS41IiB5PSIxNDUuODgyOCIvPjxyZWN0IGZpbGw9IiNGRkZGRkYiIGhlaWdodD0iMTcxLjY1NjMiIHN0eWxlPSJzdHJva2U6IzE4MTgxODtzdHJva2Utd2lkdGg6MS4wOyIgd2lkdGg9IjEwIiB4PSI0MDkuNSIgeT0iMjAxLjcxMDkiLz48cmVjdCBmaWxsPSIjRkZGRkZGIiBoZWlnaHQ9IjMwIiBzdHlsZT0ic3Ryb2tlOiMxODE4MTg7c3Ryb2tlLXdpZHRoOjEuMDsiIHdpZHRoPSIxMCIgeD0iNjY5LjUiIHk9IjIyOS42MjUiLz48cmVjdCBmaWxsPSIjRkZGRkZGIiBoZWlnaHQ9IjMwIiBzdHlsZT0ic3Ryb2tlOiMxODE4MTg7c3Ryb2tlLXdpZHRoOjEuMDsiIHdpZHRoPSIxMCIgeD0iNjY5LjUiIHk9IjMxNS40NTMxIi8+PHBvbHlnb24gZmlsbD0iIzE4MTgxOCIgcG9pbnRzPSIzOTcuNSwxNDEuODgyOCw0MDcuNSwxNDUuODgyOCwzOTcuNSwxNDkuODgyOCw0MDEuNSwxNDUuODgyOCIgc3R5bGU9InN0cm9rZTojMTgxODE4O3N0cm9rZS13aWR0aDoxLjA7Ii8+PGxpbmUgc3R5bGU9InN0cm9rZTojMTgxODE4O3N0cm9rZS13aWR0aDoxLjA7IiB4MT0iNjUuNSIgeDI9IjQwMy41IiB5MT0iMTQ1Ljg4MjgiIHkyPSIxNDUuODgyOCIvPjx0ZXh0IGZpbGw9IiMwMDAwMDAiIGZvbnQtZmFtaWx5PSJzYW5zLXNlcmlmIiBmb250LXNpemU9IjEzIiBsZW5ndGhBZGp1c3Q9InNwYWNpbmciIHRleHRMZW5ndGg9Ijk2IiB4PSI3Mi41IiB5PSIxNDIuMjU3OCI+TG9nIGluIHRvIEhSTVM8L3RleHQ+PHBvbHlnb24gZmlsbD0iIzE4MTgxOCIgcG9pbnRzPSI3Ni41LDE2OS43OTY5LDY2LjUsMTczLjc5NjksNzYuNSwxNzcuNzk2OSw3Mi41LDE3My43OTY5IiBzdHlsZT0ic3Ryb2tlOiMxODE4MTg7c3Ryb2tlLXdpZHRoOjEuMDsiLz48bGluZSBzdHlsZT0ic3Ryb2tlOiMxODE4MTg7c3Ryb2tlLXdpZHRoOjEuMDsiIHgxPSI3MC41IiB4Mj0iNDEzLjUiIHkxPSIxNzMuNzk2OSIgeTI9IjE3My43OTY5Ii8+PHRleHQgZmlsbD0iIzAwMDAwMCIgZm9udC1mYW1pbHk9InNhbnMtc2VyaWYiIGZvbnQtc2l6ZT0iMTMiIGxlbmd0aEFkanVzdD0ic3BhY2luZyIgdGV4dExlbmd0aD0iMzIwIiB4PSI4Mi41IiB5PSIxNzAuMTcxOSI+UHJvdmlkZSBhY2Nlc3MgdG8gcGVyZm9ybWFuY2UgZXZhbHVhdGlvbiBtb2R1bGU8L3RleHQ+PHBvbHlnb24gZmlsbD0iIzE4MTgxOCIgcG9pbnRzPSIzOTcuNSwxOTcuNzEwOSw0MDcuNSwyMDEuNzEwOSwzOTcuNSwyMDUuNzEwOSw0MDEuNSwyMDEuNzEwOSIgc3R5bGU9InN0cm9rZTojMTgxODE4O3N0cm9rZS13aWR0aDoxLjA7Ii8+PGxpbmUgc3R5bGU9InN0cm9rZTojMTgxODE4O3N0cm9rZS13aWR0aDoxLjA7IiB4MT0iNjUuNSIgeDI9IjQwMy41IiB5MT0iMjAxLjcxMDkiIHkyPSIyMDEuNzEwOSIvPjx0ZXh0IGZpbGw9IiMwMDAwMDAiIGZvbnQtZmFtaWx5PSJzYW5zLXNlcmlmIiBmb250LXNpemU9IjEzIiBsZW5ndGhBZGp1c3Q9InNwYWNpbmciIHRleHRMZW5ndGg9IjIwMiIgeD0iNzIuNSIgeT0iMTk4LjA4NTkiPlNlbGVjdCBlbXBsb3llZSBmb3IgZXZhbHVhdGlvbjwvdGV4dD48cG9seWdvbiBmaWxsPSIjMTgxODE4IiBwb2ludHM9IjY1Ny41LDIyNS42MjUsNjY3LjUsMjI5LjYyNSw2NTcuNSwyMzMuNjI1LDY2MS41LDIyOS42MjUiIHN0eWxlPSJzdHJva2U6IzE4MTgxODtzdHJva2Utd2lkdGg6MS4wOyIvPjxsaW5lIHN0eWxlPSJzdHJva2U6IzE4MTgxODtzdHJva2Utd2lkdGg6MS4wOyIgeDE9IjQxOS41IiB4Mj0iNjYzLjUiIHkxPSIyMjkuNjI1IiB5Mj0iMjI5LjYyNSIvPjx0ZXh0IGZpbGw9IiMwMDAwMDAiIGZvbnQtZmFtaWx5PSJzYW5zLXNlcmlmIiBmb250LXNpemU9IjEzIiBsZW5ndGhBZGp1c3Q9InNwYWNpbmciIHRleHRMZW5ndGg9IjIzMSIgeD0iNDI2LjUiIHk9IjIyNiI+UmV0cmlldmUgZW1wbG95ZWUgcGVyZm9ybWFuY2UgZGF0YTwvdGV4dD48cG9seWdvbiBmaWxsPSIjMTgxODE4IiBwb2ludHM9IjM5Ny41LDI4My41MzkxLDQwNy41LDI4Ny41MzkxLDM5Ny41LDI5MS41MzkxLDQwMS41LDI4Ny41MzkxIiBzdHlsZT0ic3Ryb2tlOiMxODE4MTg7c3Ryb2tlLXdpZHRoOjEuMDsiLz48bGluZSBzdHlsZT0ic3Ryb2tlOiMxODE4MTg7c3Ryb2tlLXdpZHRoOjEuMDsiIHgxPSI2NS41IiB4Mj0iNDAzLjUiIHkxPSIyODcuNTM5MSIgeTI9IjI4Ny41MzkxIi8+PHRleHQgZmlsbD0iIzAwMDAwMCIgZm9udC1mYW1pbHk9InNhbnMtc2VyaWYiIGZvbnQtc2l6ZT0iMTMiIGxlbmd0aEFkanVzdD0ic3BhY2luZyIgdGV4dExlbmd0aD0iMjA0IiB4PSI3Mi41IiB5PSIyODMuOTE0MSI+Q29uZHVjdCBwZXJmb3JtYW5jZSBldmFsdWF0aW9uPC90ZXh0Pjxwb2x5Z29uIGZpbGw9IiMxODE4MTgiIHBvaW50cz0iNjU3LjUsMzExLjQ1MzEsNjY3LjUsMzE1LjQ1MzEsNjU3LjUsMzE5LjQ1MzEsNjYxLjUsMzE1LjQ1MzEiIHN0eWxlPSJzdHJva2U6IzE4MTgxODtzdHJva2Utd2lkdGg6MS4wOyIvPjxsaW5lIHN0eWxlPSJzdHJva2U6IzE4MTgxODtzdHJva2Utd2lkdGg6MS4wOyIgeDE9IjQxOS41IiB4Mj0iNjYzLjUiIHkxPSIzMTUuNDUzMSIgeTI9IjMxNS40NTMxIi8+PHRleHQgZmlsbD0iIzAwMDAwMCIgZm9udC1mYW1pbHk9InNhbnMtc2VyaWYiIGZvbnQtc2l6ZT0iMTMiIGxlbmd0aEFkanVzdD0ic3BhY2luZyIgdGV4dExlbmd0aD0iMTc5IiB4PSI0MjYuNSIgeT0iMzExLjgyODEiPlVwZGF0ZSBwZXJmb3JtYW5jZSByZWNvcmRzPC90ZXh0Pjxwb2x5Z29uIGZpbGw9IiMxODE4MTgiIHBvaW50cz0iNzEuNSwzNjkuMzY3Miw2MS41LDM3My4zNjcyLDcxLjUsMzc3LjM2NzIsNjcuNSwzNzMuMzY3MiIgc3R5bGU9InN0cm9rZTojMTgxODE4O3N0cm9rZS13aWR0aDoxLjA7Ii8+PGxpbmUgc3R5bGU9InN0cm9rZTojMTgxODE4O3N0cm9rZS13aWR0aDoxLjA7IiB4MT0iNjUuNSIgeDI9IjQxMy41IiB5MT0iMzczLjM2NzIiIHkyPSIzNzMuMzY3MiIvPjx0ZXh0IGZpbGw9IiMwMDAwMDAiIGZvbnQtZmFtaWx5PSJzYW5zLXNlcmlmIiBmb250LXNpemU9IjEzIiBsZW5ndGhBZGp1c3Q9InNwYWNpbmciIHRleHRMZW5ndGg9IjI0NiIgeD0iNzcuNSIgeT0iMzY5Ljc0MjIiPkNvbmZpcm1hdGlvbiBvZiBldmFsdWF0aW9uIGNvbXBsZXRpb248L3RleHQ+PCEtLVNSQz1bVkw0eFJpQ20zRHJyMlk5eEItMlhHLWUwN0hoMFk5NDNpMThUMjkxREd3OER2RlFiNUpUSHRKUUpWa183OV80STJEdkZxNEprQTJORjBtUHV1eTVETFg4cTUza0VGR3dNdTMxWmM1MEtPR25RdUdZeDNNeTdjNUloQ0lENnlUUUZFNFc2N043MDJfTWFuX1FRWEZnQ2w2cl9XV196NkZYQTEzS0FWY0FZWkFwdG5nV2tsQm9rZjBlLSAtMDktMDY0ckZCUEI4My1aS0JRXzdyUTdzeEFtelJMUThpX1U0UTJyY2RvSDY4aW53SnVjekVvY0dDUkhMZDBSZmdMMExlMi1td2pPZVZDYUp4c2x1NEdJRlN0cWU5VG5kRlJtNEQwWVlaSF9yQkItdDN5SlJQcEZlcmphSWNtYW96NmJQdXdSRGpNbnl5aEVaTjVOemNUUDl3OWlfQmwzdWFQcmxXMDBdLS0+PC9nPjwvc3ZnPg==;clipPath=inset(0% 0% 17.2% 0%);" parent="1" vertex="1">
            <mxGeometry x="70" y="830" width="874.15" height="456.01491666666664" as="geometry" />
          </mxCell>
        </UserObject>
        <UserObject label="" plantUmlData="{&quot;data&quot;:&quot;@startuml\ntitle Payroll Processing\n\nactor \&quot;HR Professional\&quot; as HR\nparticipant \&quot;Employee Database\&quot; as DB\nparticipant \&quot;Payroll System\&quot; as PS\nparticipant \&quot;Employees\&quot; as E\n\nHR -&gt; DB: Retrieve employee salary details\nactivate HR\nactivate DB\nDB --&gt; HR: Employee salary details\ndeactivate DB\n\nHR -&gt; PS: Calculate deductions\nactivate PS\nPS --&gt; HR: Deduction details\ndeactivate PS\n\nHR -&gt; PS: Generate payslips\nactivate PS\nPS --&gt; HR: Payslips generated\ndeactivate PS\n\nHR -&gt; E: Disburse payments\nactivate E\nE --&gt; HR: Payment confirmation\ndeactivate E\ndeactivate HR\n\n@enduml\n&quot;,&quot;format&quot;:&quot;svg&quot;}" id="QxsiwyNlK42D7wM30Xxl-10">
          <mxCell style="shape=image;noLabel=1;verticalAlign=top;aspect=fixed;imageAspect=0;image=data:image/svg+xml,PD94bWwgdmVyc2lvbj0iMS4wIiBlbmNvZGluZz0idXMtYXNjaWkiIHN0YW5kYWxvbmU9Im5vIj8+PHN2ZyB4bWxucz0iaHR0cDovL3d3dy53My5vcmcvMjAwMC9zdmciIHhtbG5zOnhsaW5rPSJodHRwOi8vd3d3LnczLm9yZy8xOTk5L3hsaW5rIiBjb250ZW50U3R5bGVUeXBlPSJ0ZXh0L2NzcyIgaGVpZ2h0PSI0MzhweCIgcHJlc2VydmVBc3BlY3RSYXRpbz0ibm9uZSIgc3R5bGU9IndpZHRoOjU4NHB4O2hlaWdodDo0MzhweDtiYWNrZ3JvdW5kOiNGRkZGRkY7IiB2ZXJzaW9uPSIxLjEiIHZpZXdCb3g9IjAgMCA1ODQgNDM4IiB3aWR0aD0iNTg0cHgiIHpvb21BbmRQYW49Im1hZ25pZnkiPjxkZWZzLz48Zz48dGV4dCBmaWxsPSIjMDAwMDAwIiBmb250LWZhbWlseT0ic2Fucy1zZXJpZiIgZm9udC1zaXplPSIxNCIgZm9udC13ZWlnaHQ9ImJvbGQiIGxlbmd0aEFkanVzdD0ic3BhY2luZyIgdGV4dExlbmd0aD0iMTI2IiB4PSIyMjguMjUiIHk9IjI4LjIzNDQiPlBheXJvbGwgUHJvY2Vzc2luZzwvdGV4dD48cmVjdCBmaWxsPSIjRkZGRkZGIiBoZWlnaHQ9IjE5NS4zOTg0IiBzdHlsZT0ic3Ryb2tlOiMxODE4MTg7c3Ryb2tlLXdpZHRoOjEuMDsiIHdpZHRoPSIxMCIgeD0iNTUuNSIgeT0iMTQ1Ljg4MjgiLz48cmVjdCBmaWxsPSIjRkZGRkZGIiBoZWlnaHQ9IjI3LjkxNDEiIHN0eWxlPSJzdHJva2U6IzE4MTgxODtzdHJva2Utd2lkdGg6MS4wOyIgd2lkdGg9IjEwIiB4PSIyOTUuNSIgeT0iMTQ1Ljg4MjgiLz48cmVjdCBmaWxsPSIjRkZGRkZGIiBoZWlnaHQ9IjI3LjkxNDEiIHN0eWxlPSJzdHJva2U6IzE4MTgxODtzdHJva2Utd2lkdGg6MS4wOyIgd2lkdGg9IjEwIiB4PSI0MjkiIHk9IjIwMS43MTA5Ii8+PHJlY3QgZmlsbD0iI0ZGRkZGRiIgaGVpZ2h0PSIyNy45MTQxIiBzdHlsZT0ic3Ryb2tlOiMxODE4MTg7c3Ryb2tlLXdpZHRoOjEuMDsiIHdpZHRoPSIxMCIgeD0iNDI5IiB5PSIyNTcuNTM5MSIvPjxyZWN0IGZpbGw9IiNGRkZGRkYiIGhlaWdodD0iMjcuOTE0MSIgc3R5bGU9InN0cm9rZTojMTgxODE4O3N0cm9rZS13aWR0aDoxLjA7IiB3aWR0aD0iMTAiIHg9IjUzNC41IiB5PSIzMTMuMzY3MiIvPjxsaW5lIHN0eWxlPSJzdHJva2U6IzE4MTgxODtzdHJva2Utd2lkdGg6MC41O3N0cm9rZS1kYXNoYXJyYXk6NS4wLDUuMDsiIHgxPSI2MCIgeDI9IjYwIiB5MT0iMTE1Ljk2ODgiIHkyPSIzNTkuMjgxMyIvPjxsaW5lIHN0eWxlPSJzdHJva2U6IzE4MTgxODtzdHJva2Utd2lkdGg6MC41O3N0cm9rZS1kYXNoYXJyYXk6NS4wLDUuMDsiIHgxPSIzMDAuNSIgeDI9IjMwMC41IiB5MT0iMTE1Ljk2ODgiIHkyPSIzNTkuMjgxMyIvPjxsaW5lIHN0eWxlPSJzdHJva2U6IzE4MTgxODtzdHJva2Utd2lkdGg6MC41O3N0cm9rZS1kYXNoYXJyYXk6NS4wLDUuMDsiIHgxPSI0MzMuNSIgeDI9IjQzMy41IiB5MT0iMTE1Ljk2ODgiIHkyPSIzNTkuMjgxMyIvPjxsaW5lIHN0eWxlPSJzdHJva2U6IzE4MTgxODtzdHJva2Utd2lkdGg6MC41O3N0cm9rZS1kYXNoYXJyYXk6NS4wLDUuMDsiIHgxPSI1MzkuNSIgeDI9IjUzOS41IiB5MT0iMTE1Ljk2ODgiIHkyPSIzNTkuMjgxMyIvPjx0ZXh0IGZpbGw9IiMwMDAwMDAiIGZvbnQtZmFtaWx5PSJzYW5zLXNlcmlmIiBmb250LXNpemU9IjE0IiBsZW5ndGhBZGp1c3Q9InNwYWNpbmciIHRleHRMZW5ndGg9IjEwNSIgeD0iNSIgeT0iMTE0LjIxODgiPkhSIFByb2Zlc3Npb25hbDwvdGV4dD48ZWxsaXBzZSBjeD0iNjAuNSIgY3k9IjQ5LjQ4NDQiIGZpbGw9IiNFMkUyRjAiIHJ4PSI4IiByeT0iOCIgc3R5bGU9InN0cm9rZTojMTgxODE4O3N0cm9rZS13aWR0aDowLjU7Ii8+PHBhdGggZD0iTTYwLjUsNTcuNDg0NCBMNjAuNSw4NC40ODQ0IE00Ny41LDY1LjQ4NDQgTDczLjUsNjUuNDg0NCBNNjAuNSw4NC40ODQ0IEw0Ny41LDk5LjQ4NDQgTTYwLjUsODQuNDg0NCBMNzMuNSw5OS40ODQ0ICIgZmlsbD0ibm9uZSIgc3R5bGU9InN0cm9rZTojMTgxODE4O3N0cm9rZS13aWR0aDowLjU7Ii8+PHRleHQgZmlsbD0iIzAwMDAwMCIgZm9udC1mYW1pbHk9InNhbnMtc2VyaWYiIGZvbnQtc2l6ZT0iMTQiIGxlbmd0aEFkanVzdD0ic3BhY2luZyIgdGV4dExlbmd0aD0iMTA1IiB4PSI1IiB5PSIzNzEuNTE1NiI+SFIgUHJvZmVzc2lvbmFsPC90ZXh0PjxlbGxpcHNlIGN4PSI2MC41IiBjeT0iMzgxLjc2NTYiIGZpbGw9IiNFMkUyRjAiIHJ4PSI4IiByeT0iOCIgc3R5bGU9InN0cm9rZTojMTgxODE4O3N0cm9rZS13aWR0aDowLjU7Ii8+PHBhdGggZD0iTTYwLjUsMzg5Ljc2NTYgTDYwLjUsNDE2Ljc2NTYgTTQ3LjUsMzk3Ljc2NTYgTDczLjUsMzk3Ljc2NTYgTTYwLjUsNDE2Ljc2NTYgTDQ3LjUsNDMxLjc2NTYgTTYwLjUsNDE2Ljc2NTYgTDczLjUsNDMxLjc2NTYgIiBmaWxsPSJub25lIiBzdHlsZT0ic3Ryb2tlOiMxODE4MTg7c3Ryb2tlLXdpZHRoOjAuNTsiLz48cmVjdCBmaWxsPSIjRTJFMkYwIiBoZWlnaHQ9IjI4Ljk4NDQiIHJ4PSIyLjUiIHJ5PSIyLjUiIHN0eWxlPSJzdHJva2U6IzE4MTgxODtzdHJva2Utd2lkdGg6MC41OyIgd2lkdGg9IjEzNCIgeD0iMjMzLjUiIHk9Ijg1Ljk4NDQiLz48dGV4dCBmaWxsPSIjMDAwMDAwIiBmb250LWZhbWlseT0ic2Fucy1zZXJpZiIgZm9udC1zaXplPSIxNCIgbGVuZ3RoQWRqdXN0PSJzcGFjaW5nIiB0ZXh0TGVuZ3RoPSIxMjAiIHg9IjI0MC41IiB5PSIxMDYuMjE4OCI+RW1wbG95ZWUgRGF0YWJhc2U8L3RleHQ+PHJlY3QgZmlsbD0iI0UyRTJGMCIgaGVpZ2h0PSIyOC45ODQ0IiByeD0iMi41IiByeT0iMi41IiBzdHlsZT0ic3Ryb2tlOiMxODE4MTg7c3Ryb2tlLXdpZHRoOjAuNTsiIHdpZHRoPSIxMzQiIHg9IjIzMy41IiB5PSIzNTguMjgxMyIvPjx0ZXh0IGZpbGw9IiMwMDAwMDAiIGZvbnQtZmFtaWx5PSJzYW5zLXNlcmlmIiBmb250LXNpemU9IjE0IiBsZW5ndGhBZGp1c3Q9InNwYWNpbmciIHRleHRMZW5ndGg9IjEyMCIgeD0iMjQwLjUiIHk9IjM3OC41MTU2Ij5FbXBsb3llZSBEYXRhYmFzZTwvdGV4dD48cmVjdCBmaWxsPSIjRTJFMkYwIiBoZWlnaHQ9IjI4Ljk4NDQiIHJ4PSIyLjUiIHJ5PSIyLjUiIHN0eWxlPSJzdHJva2U6IzE4MTgxODtzdHJva2Utd2lkdGg6MC41OyIgd2lkdGg9IjExMyIgeD0iMzc3LjUiIHk9Ijg1Ljk4NDQiLz48dGV4dCBmaWxsPSIjMDAwMDAwIiBmb250LWZhbWlseT0ic2Fucy1zZXJpZiIgZm9udC1zaXplPSIxNCIgbGVuZ3RoQWRqdXN0PSJzcGFjaW5nIiB0ZXh0TGVuZ3RoPSI5OSIgeD0iMzg0LjUiIHk9IjEwNi4yMTg4Ij5QYXlyb2xsIFN5c3RlbTwvdGV4dD48cmVjdCBmaWxsPSIjRTJFMkYwIiBoZWlnaHQ9IjI4Ljk4NDQiIHJ4PSIyLjUiIHJ5PSIyLjUiIHN0eWxlPSJzdHJva2U6IzE4MTgxODtzdHJva2Utd2lkdGg6MC41OyIgd2lkdGg9IjExMyIgeD0iMzc3LjUiIHk9IjM1OC4yODEzIi8+PHRleHQgZmlsbD0iIzAwMDAwMCIgZm9udC1mYW1pbHk9InNhbnMtc2VyaWYiIGZvbnQtc2l6ZT0iMTQiIGxlbmd0aEFkanVzdD0ic3BhY2luZyIgdGV4dExlbmd0aD0iOTkiIHg9IjM4NC41IiB5PSIzNzguNTE1NiI+UGF5cm9sbCBTeXN0ZW08L3RleHQ+PHJlY3QgZmlsbD0iI0UyRTJGMCIgaGVpZ2h0PSIyOC45ODQ0IiByeD0iMi41IiByeT0iMi41IiBzdHlsZT0ic3Ryb2tlOiMxODE4MTg7c3Ryb2tlLXdpZHRoOjAuNTsiIHdpZHRoPSI3OCIgeD0iNTAwLjUiIHk9Ijg1Ljk4NDQiLz48dGV4dCBmaWxsPSIjMDAwMDAwIiBmb250LWZhbWlseT0ic2Fucy1zZXJpZiIgZm9udC1zaXplPSIxNCIgbGVuZ3RoQWRqdXN0PSJzcGFjaW5nIiB0ZXh0TGVuZ3RoPSI2NCIgeD0iNTA3LjUiIHk9IjEwNi4yMTg4Ij5FbXBsb3llZXM8L3RleHQ+PHJlY3QgZmlsbD0iI0UyRTJGMCIgaGVpZ2h0PSIyOC45ODQ0IiByeD0iMi41IiByeT0iMi41IiBzdHlsZT0ic3Ryb2tlOiMxODE4MTg7c3Ryb2tlLXdpZHRoOjAuNTsiIHdpZHRoPSI3OCIgeD0iNTAwLjUiIHk9IjM1OC4yODEzIi8+PHRleHQgZmlsbD0iIzAwMDAwMCIgZm9udC1mYW1pbHk9InNhbnMtc2VyaWYiIGZvbnQtc2l6ZT0iMTQiIGxlbmd0aEFkanVzdD0ic3BhY2luZyIgdGV4dExlbmd0aD0iNjQiIHg9IjUwNy41IiB5PSIzNzguNTE1NiI+RW1wbG95ZWVzPC90ZXh0PjxyZWN0IGZpbGw9IiNGRkZGRkYiIGhlaWdodD0iMTk1LjM5ODQiIHN0eWxlPSJzdHJva2U6IzE4MTgxODtzdHJva2Utd2lkdGg6MS4wOyIgd2lkdGg9IjEwIiB4PSI1NS41IiB5PSIxNDUuODgyOCIvPjxyZWN0IGZpbGw9IiNGRkZGRkYiIGhlaWdodD0iMjcuOTE0MSIgc3R5bGU9InN0cm9rZTojMTgxODE4O3N0cm9rZS13aWR0aDoxLjA7IiB3aWR0aD0iMTAiIHg9IjI5NS41IiB5PSIxNDUuODgyOCIvPjxyZWN0IGZpbGw9IiNGRkZGRkYiIGhlaWdodD0iMjcuOTE0MSIgc3R5bGU9InN0cm9rZTojMTgxODE4O3N0cm9rZS13aWR0aDoxLjA7IiB3aWR0aD0iMTAiIHg9IjQyOSIgeT0iMjAxLjcxMDkiLz48cmVjdCBmaWxsPSIjRkZGRkZGIiBoZWlnaHQ9IjI3LjkxNDEiIHN0eWxlPSJzdHJva2U6IzE4MTgxODtzdHJva2Utd2lkdGg6MS4wOyIgd2lkdGg9IjEwIiB4PSI0MjkiIHk9IjI1Ny41MzkxIi8+PHJlY3QgZmlsbD0iI0ZGRkZGRiIgaGVpZ2h0PSIyNy45MTQxIiBzdHlsZT0ic3Ryb2tlOiMxODE4MTg7c3Ryb2tlLXdpZHRoOjEuMDsiIHdpZHRoPSIxMCIgeD0iNTM0LjUiIHk9IjMxMy4zNjcyIi8+PHBvbHlnb24gZmlsbD0iIzE4MTgxOCIgcG9pbnRzPSIyODMuNSwxNDEuODgyOCwyOTMuNSwxNDUuODgyOCwyODMuNSwxNDkuODgyOCwyODcuNSwxNDUuODgyOCIgc3R5bGU9InN0cm9rZTojMTgxODE4O3N0cm9rZS13aWR0aDoxLjA7Ii8+PGxpbmUgc3R5bGU9InN0cm9rZTojMTgxODE4O3N0cm9rZS13aWR0aDoxLjA7IiB4MT0iNjUuNSIgeDI9IjI4OS41IiB5MT0iMTQ1Ljg4MjgiIHkyPSIxNDUuODgyOCIvPjx0ZXh0IGZpbGw9IiMwMDAwMDAiIGZvbnQtZmFtaWx5PSJzYW5zLXNlcmlmIiBmb250LXNpemU9IjEzIiBsZW5ndGhBZGp1c3Q9InNwYWNpbmciIHRleHRMZW5ndGg9IjIxNiIgeD0iNzIuNSIgeT0iMTQyLjI1NzgiPlJldHJpZXZlIGVtcGxveWVlIHNhbGFyeSBkZXRhaWxzPC90ZXh0Pjxwb2x5Z29uIGZpbGw9IiMxODE4MTgiIHBvaW50cz0iNzYuNSwxNjkuNzk2OSw2Ni41LDE3My43OTY5LDc2LjUsMTc3Ljc5NjksNzIuNSwxNzMuNzk2OSIgc3R5bGU9InN0cm9rZTojMTgxODE4O3N0cm9rZS13aWR0aDoxLjA7Ii8+PGxpbmUgc3R5bGU9InN0cm9rZTojMTgxODE4O3N0cm9rZS13aWR0aDoxLjA7c3Ryb2tlLWRhc2hhcnJheToyLjAsMi4wOyIgeDE9IjcwLjUiIHgyPSIyOTkuNSIgeTE9IjE3My43OTY5IiB5Mj0iMTczLjc5NjkiLz48dGV4dCBmaWxsPSIjMDAwMDAwIiBmb250LWZhbWlseT0ic2Fucy1zZXJpZiIgZm9udC1zaXplPSIxMyIgbGVuZ3RoQWRqdXN0PSJzcGFjaW5nIiB0ZXh0TGVuZ3RoPSIxNTUiIHg9IjgyLjUiIHk9IjE3MC4xNzE5Ij5FbXBsb3llZSBzYWxhcnkgZGV0YWlsczwvdGV4dD48cG9seWdvbiBmaWxsPSIjMTgxODE4IiBwb2ludHM9IjQxNywxOTcuNzEwOSw0MjcsMjAxLjcxMDksNDE3LDIwNS43MTA5LDQyMSwyMDEuNzEwOSIgc3R5bGU9InN0cm9rZTojMTgxODE4O3N0cm9rZS13aWR0aDoxLjA7Ii8+PGxpbmUgc3R5bGU9InN0cm9rZTojMTgxODE4O3N0cm9rZS13aWR0aDoxLjA7IiB4MT0iNjUuNSIgeDI9IjQyMyIgeTE9IjIwMS43MTA5IiB5Mj0iMjAxLjcxMDkiLz48dGV4dCBmaWxsPSIjMDAwMDAwIiBmb250LWZhbWlseT0ic2Fucy1zZXJpZiIgZm9udC1zaXplPSIxMyIgbGVuZ3RoQWRqdXN0PSJzcGFjaW5nIiB0ZXh0TGVuZ3RoPSIxMzUiIHg9IjcyLjUiIHk9IjE5OC4wODU5Ij5DYWxjdWxhdGUgZGVkdWN0aW9uczwvdGV4dD48cG9seWdvbiBmaWxsPSIjMTgxODE4IiBwb2ludHM9Ijc2LjUsMjI1LjYyNSw2Ni41LDIyOS42MjUsNzYuNSwyMzMuNjI1LDcyLjUsMjI5LjYyNSIgc3R5bGU9InN0cm9rZTojMTgxODE4O3N0cm9rZS13aWR0aDoxLjA7Ii8+PGxpbmUgc3R5bGU9InN0cm9rZTojMTgxODE4O3N0cm9rZS13aWR0aDoxLjA7c3Ryb2tlLWRhc2hhcnJheToyLjAsMi4wOyIgeDE9IjcwLjUiIHgyPSI0MzMiIHkxPSIyMjkuNjI1IiB5Mj0iMjI5LjYyNSIvPjx0ZXh0IGZpbGw9IiMwMDAwMDAiIGZvbnQtZmFtaWx5PSJzYW5zLXNlcmlmIiBmb250LXNpemU9IjEzIiBsZW5ndGhBZGp1c3Q9InNwYWNpbmciIHRleHRMZW5ndGg9IjExNCIgeD0iODIuNSIgeT0iMjI2Ij5EZWR1Y3Rpb24gZGV0YWlsczwvdGV4dD48cG9seWdvbiBmaWxsPSIjMTgxODE4IiBwb2ludHM9IjQxNywyNTMuNTM5MSw0MjcsMjU3LjUzOTEsNDE3LDI2MS41MzkxLDQyMSwyNTcuNTM5MSIgc3R5bGU9InN0cm9rZTojMTgxODE4O3N0cm9rZS13aWR0aDoxLjA7Ii8+PGxpbmUgc3R5bGU9InN0cm9rZTojMTgxODE4O3N0cm9rZS13aWR0aDoxLjA7IiB4MT0iNjUuNSIgeDI9IjQyMyIgeTE9IjI1Ny41MzkxIiB5Mj0iMjU3LjUzOTEiLz48dGV4dCBmaWxsPSIjMDAwMDAwIiBmb250LWZhbWlseT0ic2Fucy1zZXJpZiIgZm9udC1zaXplPSIxMyIgbGVuZ3RoQWRqdXN0PSJzcGFjaW5nIiB0ZXh0TGVuZ3RoPSIxMTYiIHg9IjcyLjUiIHk9IjI1My45MTQxIj5HZW5lcmF0ZSBwYXlzbGlwczwvdGV4dD48cG9seWdvbiBmaWxsPSIjMTgxODE4IiBwb2ludHM9Ijc2LjUsMjgxLjQ1MzEsNjYuNSwyODUuNDUzMSw3Ni41LDI4OS40NTMxLDcyLjUsMjg1LjQ1MzEiIHN0eWxlPSJzdHJva2U6IzE4MTgxODtzdHJva2Utd2lkdGg6MS4wOyIvPjxsaW5lIHN0eWxlPSJzdHJva2U6IzE4MTgxODtzdHJva2Utd2lkdGg6MS4wO3N0cm9rZS1kYXNoYXJyYXk6Mi4wLDIuMDsiIHgxPSI3MC41IiB4Mj0iNDMzIiB5MT0iMjg1LjQ1MzEiIHkyPSIyODUuNDUzMSIvPjx0ZXh0IGZpbGw9IiMwMDAwMDAiIGZvbnQtZmFtaWx5PSJzYW5zLXNlcmlmIiBmb250LXNpemU9IjEzIiBsZW5ndGhBZGp1c3Q9InNwYWNpbmciIHRleHRMZW5ndGg9IjEyMyIgeD0iODIuNSIgeT0iMjgxLjgyODEiPlBheXNsaXBzIGdlbmVyYXRlZDwvdGV4dD48cG9seWdvbiBmaWxsPSIjMTgxODE4IiBwb2ludHM9IjUyMi41LDMwOS4zNjcyLDUzMi41LDMxMy4zNjcyLDUyMi41LDMxNy4zNjcyLDUyNi41LDMxMy4zNjcyIiBzdHlsZT0ic3Ryb2tlOiMxODE4MTg7c3Ryb2tlLXdpZHRoOjEuMDsiLz48bGluZSBzdHlsZT0ic3Ryb2tlOiMxODE4MTg7c3Ryb2tlLXdpZHRoOjEuMDsiIHgxPSI2NS41IiB4Mj0iNTI4LjUiIHkxPSIzMTMuMzY3MiIgeTI9IjMxMy4zNjcyIi8+PHRleHQgZmlsbD0iIzAwMDAwMCIgZm9udC1mYW1pbHk9InNhbnMtc2VyaWYiIGZvbnQtc2l6ZT0iMTMiIGxlbmd0aEFkanVzdD0ic3BhY2luZyIgdGV4dExlbmd0aD0iMTE2IiB4PSI3Mi41IiB5PSIzMDkuNzQyMiI+RGlzYnVyc2UgcGF5bWVudHM8L3RleHQ+PHBvbHlnb24gZmlsbD0iIzE4MTgxOCIgcG9pbnRzPSI3MS41LDMzNy4yODEzLDYxLjUsMzQxLjI4MTMsNzEuNSwzNDUuMjgxMyw2Ny41LDM0MS4yODEzIiBzdHlsZT0ic3Ryb2tlOiMxODE4MTg7c3Ryb2tlLXdpZHRoOjEuMDsiLz48bGluZSBzdHlsZT0ic3Ryb2tlOiMxODE4MTg7c3Ryb2tlLXdpZHRoOjEuMDtzdHJva2UtZGFzaGFycmF5OjIuMCwyLjA7IiB4MT0iNjUuNSIgeDI9IjUzOC41IiB5MT0iMzQxLjI4MTMiIHkyPSIzNDEuMjgxMyIvPjx0ZXh0IGZpbGw9IiMwMDAwMDAiIGZvbnQtZmFtaWx5PSJzYW5zLXNlcmlmIiBmb250LXNpemU9IjEzIiBsZW5ndGhBZGp1c3Q9InNwYWNpbmciIHRleHRMZW5ndGg9IjEzMyIgeD0iNzcuNSIgeT0iMzM3LjY1NjMiPlBheW1lbnQgY29uZmlybWF0aW9uPC90ZXh0PjwhLS1TUkM9W1RPdjFoZUNtMzRKdEVPTjVsWFRXcUtLX0tMYjZTMDhOdDJmSUk1MWlBZDd4OVdZZ1Y4ZGthZmRuY240aFppM1c2ZURwTzY4T1lEZHdicjh1SThYR2pMck1kcmFEN2JxNW9EMXNRaU9lVGgwcFVlNUFKeENCQW40cUFGWDBmWXRMdEZ3ZFpmOS1QUTVmWXZaLTdDSVJndkxBeFBUaDhqTkdhS0hCUm04d29YV1RuWEw2NGhJRXlyeHhIZzZ5eGxqRTZ2ZVJOMUFaeE1oR0ZxdjdBV19zS2pGTnk4VGtNNXBNSG5nTmIwYy1BNGhoSlYtNURxVlkzOWtZMVZQRWRjQU1QcnBQc1ZhZHEtbS1sRlFCeUhvZ0t4dGJubjl2T3F4YWZNMWdmS2pZVGM0OF9jZFpYN2Jtb1RKYmYtcS1dLS0+PC9nPjwvc3ZnPg==;clipPath=inset(0% 0% 18.89% 0%);" parent="1" vertex="1">
            <mxGeometry x="1057.38" y="60" width="733.33" height="446.1090833333334" as="geometry" />
          </mxCell>
        </UserObject>
        <mxCell id="TxyqJ8_XLGC1_xMtOGu6-2" value="&lt;span id=&quot;docs-internal-guid-ac812002-7fff-6536-52cf-04db2cbf6b18&quot;&gt;&lt;span style=&quot;font-size: 9.5pt; font-family: Roboto, sans-serif; background-color: transparent; font-weight: 700; font-variant-numeric: normal; font-variant-east-asian: normal; font-variant-alternates: normal; font-variant-position: normal; vertical-align: baseline; white-space-collapse: preserve;&quot;&gt;UC-HR-01&lt;/span&gt;&lt;/span&gt;" style="shape=umlFrame;whiteSpace=wrap;html=1;pointerEvents=0;recursiveResize=0;container=1;collapsible=0;width=160;fillColor=#e1d5e7;strokeColor=#9673a6;" parent="1" vertex="1">
          <mxGeometry x="20" y="30" width="860" height="570" as="geometry" />
        </mxCell>
        <UserObject label="" plantUmlData="{&quot;data&quot;:&quot;@startuml\ntitle Employee Requests Time Off\n\nactor Employee\nparticipant \&quot;HR Management System\&quot; as System\nparticipant \&quot;HR Manager\&quot; as Manager\n\nEmployee -&gt; System: Initiate time off request\nactivate System\nSystem -&gt; Employee: Prompt to enter request details\nactivate Employee\nEmployee -&gt; System: Enter request details\ndeactivate Employee\nSystem -&gt; System: Validate request details\nSystem -&gt; Manager: Send request for approval\nactivate Manager\nManager -&gt; Manager: Review request\nManager -&gt; System: Approve/Reject request\ndeactivate Manager\nSystem -&gt; Employee: Notify decision\ndeactivate System\n\n@enduml\n&quot;,&quot;format&quot;:&quot;svg&quot;}" id="TxyqJ8_XLGC1_xMtOGu6-1">
          <mxCell style="shape=image;noLabel=1;verticalAlign=top;aspect=fixed;imageAspect=0;image=data:image/svg+xml,PD94bWwgdmVyc2lvbj0iMS4wIiBlbmNvZGluZz0idXMtYXNjaWkiIHN0YW5kYWxvbmU9Im5vIj8+PHN2ZyB4bWxucz0iaHR0cDovL3d3dy53My5vcmcvMjAwMC9zdmciIHhtbG5zOnhsaW5rPSJodHRwOi8vd3d3LnczLm9yZy8xOTk5L3hsaW5rIiBjb250ZW50U3R5bGVUeXBlPSJ0ZXh0L2NzcyIgaGVpZ2h0PSI0NjRweCIgcHJlc2VydmVBc3BlY3RSYXRpbz0ibm9uZSIgc3R5bGU9IndpZHRoOjU4OXB4O2hlaWdodDo0NjRweDtiYWNrZ3JvdW5kOiNGRkZGRkY7IiB2ZXJzaW9uPSIxLjEiIHZpZXdCb3g9IjAgMCA1ODkgNDY0IiB3aWR0aD0iNTg5cHgiIHpvb21BbmRQYW49Im1hZ25pZnkiPjxkZWZzLz48Zz48dGV4dCBmaWxsPSIjMDAwMDAwIiBmb250LWZhbWlseT0ic2Fucy1zZXJpZiIgZm9udC1zaXplPSIxNCIgZm9udC13ZWlnaHQ9ImJvbGQiIGxlbmd0aEFkanVzdD0ic3BhY2luZyIgdGV4dExlbmd0aD0iMTg0IiB4PSIyMDQuNzUiIHk9IjI4LjIzNDQiPkVtcGxveWVlIFJlcXVlc3RzIFRpbWUgT2ZmPC90ZXh0PjxyZWN0IGZpbGw9IiNGRkZGRkYiIGhlaWdodD0iMjcuOTE0MSIgc3R5bGU9InN0cm9rZTojMTgxODE4O3N0cm9rZS13aWR0aDoxLjA7IiB3aWR0aD0iMTAiIHg9IjMxLjUiIHk9IjE3My43OTY5Ii8+PHJlY3QgZmlsbD0iI0ZGRkZGRiIgaGVpZ2h0PSIyMjEuMzk4NCIgc3R5bGU9InN0cm9rZTojMTgxODE4O3N0cm9rZS13aWR0aDoxLjA7IiB3aWR0aD0iMTAiIHg9IjI2OS41IiB5PSIxNDUuODgyOCIvPjxyZWN0IGZpbGw9IiNGRkZGRkYiIGhlaWdodD0iNjguODI4MSIgc3R5bGU9InN0cm9rZTojMTgxODE4O3N0cm9rZS13aWR0aDoxLjA7IiB3aWR0aD0iMTAiIHg9IjQ3MC41IiB5PSIyNzAuNTM5MSIvPjxsaW5lIHN0eWxlPSJzdHJva2U6IzE4MTgxODtzdHJva2Utd2lkdGg6MC41O3N0cm9rZS1kYXNoYXJyYXk6NS4wLDUuMDsiIHgxPSIzNiIgeDI9IjM2IiB5MT0iMTE1Ljk2ODgiIHkyPSIzODUuMjgxMyIvPjxsaW5lIHN0eWxlPSJzdHJva2U6IzE4MTgxODtzdHJva2Utd2lkdGg6MC41O3N0cm9rZS1kYXNoYXJyYXk6NS4wLDUuMDsiIHgxPSIyNzQuNSIgeDI9IjI3NC41IiB5MT0iMTE1Ljk2ODgiIHkyPSIzODUuMjgxMyIvPjxsaW5lIHN0eWxlPSJzdHJva2U6IzE4MTgxODtzdHJva2Utd2lkdGg6MC41O3N0cm9rZS1kYXNoYXJyYXk6NS4wLDUuMDsiIHgxPSI0NzUuNSIgeDI9IjQ3NS41IiB5MT0iMTE1Ljk2ODgiIHkyPSIzODUuMjgxMyIvPjx0ZXh0IGZpbGw9IiMwMDAwMDAiIGZvbnQtZmFtaWx5PSJzYW5zLXNlcmlmIiBmb250LXNpemU9IjE0IiBsZW5ndGhBZGp1c3Q9InNwYWNpbmciIHRleHRMZW5ndGg9IjU3IiB4PSI1IiB5PSIxMTQuMjE4OCI+RW1wbG95ZWU8L3RleHQ+PGVsbGlwc2UgY3g9IjM2LjUiIGN5PSI0OS40ODQ0IiBmaWxsPSIjRTJFMkYwIiByeD0iOCIgcnk9IjgiIHN0eWxlPSJzdHJva2U6IzE4MTgxODtzdHJva2Utd2lkdGg6MC41OyIvPjxwYXRoIGQ9Ik0zNi41LDU3LjQ4NDQgTDM2LjUsODQuNDg0NCBNMjMuNSw2NS40ODQ0IEw0OS41LDY1LjQ4NDQgTTM2LjUsODQuNDg0NCBMMjMuNSw5OS40ODQ0IE0zNi41LDg0LjQ4NDQgTDQ5LjUsOTkuNDg0NCAiIGZpbGw9Im5vbmUiIHN0eWxlPSJzdHJva2U6IzE4MTgxODtzdHJva2Utd2lkdGg6MC41OyIvPjx0ZXh0IGZpbGw9IiMwMDAwMDAiIGZvbnQtZmFtaWx5PSJzYW5zLXNlcmlmIiBmb250LXNpemU9IjE0IiBsZW5ndGhBZGp1c3Q9InNwYWNpbmciIHRleHRMZW5ndGg9IjU3IiB4PSI1IiB5PSIzOTcuNTE1NiI+RW1wbG95ZWU8L3RleHQ+PGVsbGlwc2UgY3g9IjM2LjUiIGN5PSI0MDcuNzY1NiIgZmlsbD0iI0UyRTJGMCIgcng9IjgiIHJ5PSI4IiBzdHlsZT0ic3Ryb2tlOiMxODE4MTg7c3Ryb2tlLXdpZHRoOjAuNTsiLz48cGF0aCBkPSJNMzYuNSw0MTUuNzY1NiBMMzYuNSw0NDIuNzY1NiBNMjMuNSw0MjMuNzY1NiBMNDkuNSw0MjMuNzY1NiBNMzYuNSw0NDIuNzY1NiBMMjMuNSw0NTcuNzY1NiBNMzYuNSw0NDIuNzY1NiBMNDkuNSw0NTcuNzY1NiAiIGZpbGw9Im5vbmUiIHN0eWxlPSJzdHJva2U6IzE4MTgxODtzdHJva2Utd2lkdGg6MC41OyIvPjxyZWN0IGZpbGw9IiNFMkUyRjAiIGhlaWdodD0iMjguOTg0NCIgcng9IjIuNSIgcnk9IjIuNSIgc3R5bGU9InN0cm9rZTojMTgxODE4O3N0cm9rZS13aWR0aDowLjU7IiB3aWR0aD0iMTU2IiB4PSIxOTYuNSIgeT0iODUuOTg0NCIvPjx0ZXh0IGZpbGw9IiMwMDAwMDAiIGZvbnQtZmFtaWx5PSJzYW5zLXNlcmlmIiBmb250LXNpemU9IjE0IiBsZW5ndGhBZGp1c3Q9InNwYWNpbmciIHRleHRMZW5ndGg9IjE0MiIgeD0iMjAzLjUiIHk9IjEwNi4yMTg4Ij5IUiBNYW5hZ2VtZW50IFN5c3RlbTwvdGV4dD48cmVjdCBmaWxsPSIjRTJFMkYwIiBoZWlnaHQ9IjI4Ljk4NDQiIHJ4PSIyLjUiIHJ5PSIyLjUiIHN0eWxlPSJzdHJva2U6IzE4MTgxODtzdHJva2Utd2lkdGg6MC41OyIgd2lkdGg9IjE1NiIgeD0iMTk2LjUiIHk9IjM4NC4yODEzIi8+PHRleHQgZmlsbD0iIzAwMDAwMCIgZm9udC1mYW1pbHk9InNhbnMtc2VyaWYiIGZvbnQtc2l6ZT0iMTQiIGxlbmd0aEFkanVzdD0ic3BhY2luZyIgdGV4dExlbmd0aD0iMTQyIiB4PSIyMDMuNSIgeT0iNDA0LjUxNTYiPkhSIE1hbmFnZW1lbnQgU3lzdGVtPC90ZXh0PjxyZWN0IGZpbGw9IiNFMkUyRjAiIGhlaWdodD0iMjguOTg0NCIgcng9IjIuNSIgcnk9IjIuNSIgc3R5bGU9InN0cm9rZTojMTgxODE4O3N0cm9rZS13aWR0aDowLjU7IiB3aWR0aD0iODQiIHg9IjQzMy41IiB5PSI4NS45ODQ0Ii8+PHRleHQgZmlsbD0iIzAwMDAwMCIgZm9udC1mYW1pbHk9InNhbnMtc2VyaWYiIGZvbnQtc2l6ZT0iMTQiIGxlbmd0aEFkanVzdD0ic3BhY2luZyIgdGV4dExlbmd0aD0iNzAiIHg9IjQ0MC41IiB5PSIxMDYuMjE4OCI+SFIgTWFuYWdlcjwvdGV4dD48cmVjdCBmaWxsPSIjRTJFMkYwIiBoZWlnaHQ9IjI4Ljk4NDQiIHJ4PSIyLjUiIHJ5PSIyLjUiIHN0eWxlPSJzdHJva2U6IzE4MTgxODtzdHJva2Utd2lkdGg6MC41OyIgd2lkdGg9Ijg0IiB4PSI0MzMuNSIgeT0iMzg0LjI4MTMiLz48dGV4dCBmaWxsPSIjMDAwMDAwIiBmb250LWZhbWlseT0ic2Fucy1zZXJpZiIgZm9udC1zaXplPSIxNCIgbGVuZ3RoQWRqdXN0PSJzcGFjaW5nIiB0ZXh0TGVuZ3RoPSI3MCIgeD0iNDQwLjUiIHk9IjQwNC41MTU2Ij5IUiBNYW5hZ2VyPC90ZXh0PjxyZWN0IGZpbGw9IiNGRkZGRkYiIGhlaWdodD0iMjcuOTE0MSIgc3R5bGU9InN0cm9rZTojMTgxODE4O3N0cm9rZS13aWR0aDoxLjA7IiB3aWR0aD0iMTAiIHg9IjMxLjUiIHk9IjE3My43OTY5Ii8+PHJlY3QgZmlsbD0iI0ZGRkZGRiIgaGVpZ2h0PSIyMjEuMzk4NCIgc3R5bGU9InN0cm9rZTojMTgxODE4O3N0cm9rZS13aWR0aDoxLjA7IiB3aWR0aD0iMTAiIHg9IjI2OS41IiB5PSIxNDUuODgyOCIvPjxyZWN0IGZpbGw9IiNGRkZGRkYiIGhlaWdodD0iNjguODI4MSIgc3R5bGU9InN0cm9rZTojMTgxODE4O3N0cm9rZS13aWR0aDoxLjA7IiB3aWR0aD0iMTAiIHg9IjQ3MC41IiB5PSIyNzAuNTM5MSIvPjxwb2x5Z29uIGZpbGw9IiMxODE4MTgiIHBvaW50cz0iMjU3LjUsMTQxLjg4MjgsMjY3LjUsMTQ1Ljg4MjgsMjU3LjUsMTQ5Ljg4MjgsMjYxLjUsMTQ1Ljg4MjgiIHN0eWxlPSJzdHJva2U6IzE4MTgxODtzdHJva2Utd2lkdGg6MS4wOyIvPjxsaW5lIHN0eWxlPSJzdHJva2U6IzE4MTgxODtzdHJva2Utd2lkdGg6MS4wOyIgeDE9IjM2LjUiIHgyPSIyNjMuNSIgeTE9IjE0NS44ODI4IiB5Mj0iMTQ1Ljg4MjgiLz48dGV4dCBmaWxsPSIjMDAwMDAwIiBmb250LWZhbWlseT0ic2Fucy1zZXJpZiIgZm9udC1zaXplPSIxMyIgbGVuZ3RoQWRqdXN0PSJzcGFjaW5nIiB0ZXh0TGVuZ3RoPSIxNjQiIHg9IjQzLjUiIHk9IjE0Mi4yNTc4Ij5Jbml0aWF0ZSB0aW1lIG9mZiByZXF1ZXN0PC90ZXh0Pjxwb2x5Z29uIGZpbGw9IiMxODE4MTgiIHBvaW50cz0iNTIuNSwxNjkuNzk2OSw0Mi41LDE3My43OTY5LDUyLjUsMTc3Ljc5NjksNDguNSwxNzMuNzk2OSIgc3R5bGU9InN0cm9rZTojMTgxODE4O3N0cm9rZS13aWR0aDoxLjA7Ii8+PGxpbmUgc3R5bGU9InN0cm9rZTojMTgxODE4O3N0cm9rZS13aWR0aDoxLjA7IiB4MT0iNDYuNSIgeDI9IjI2OC41IiB5MT0iMTczLjc5NjkiIHkyPSIxNzMuNzk2OSIvPjx0ZXh0IGZpbGw9IiMwMDAwMDAiIGZvbnQtZmFtaWx5PSJzYW5zLXNlcmlmIiBmb250LXNpemU9IjEzIiBsZW5ndGhBZGp1c3Q9InNwYWNpbmciIHRleHRMZW5ndGg9IjIwOSIgeD0iNTguNSIgeT0iMTcwLjE3MTkiPlByb21wdCB0byBlbnRlciByZXF1ZXN0IGRldGFpbHM8L3RleHQ+PHBvbHlnb24gZmlsbD0iIzE4MTgxOCIgcG9pbnRzPSIyNTcuNSwxOTcuNzEwOSwyNjcuNSwyMDEuNzEwOSwyNTcuNSwyMDUuNzEwOSwyNjEuNSwyMDEuNzEwOSIgc3R5bGU9InN0cm9rZTojMTgxODE4O3N0cm9rZS13aWR0aDoxLjA7Ii8+PGxpbmUgc3R5bGU9InN0cm9rZTojMTgxODE4O3N0cm9rZS13aWR0aDoxLjA7IiB4MT0iMzYuNSIgeDI9IjI2My41IiB5MT0iMjAxLjcxMDkiIHkyPSIyMDEuNzEwOSIvPjx0ZXh0IGZpbGw9IiMwMDAwMDAiIGZvbnQtZmFtaWx5PSJzYW5zLXNlcmlmIiBmb250LXNpemU9IjEzIiBsZW5ndGhBZGp1c3Q9InNwYWNpbmciIHRleHRMZW5ndGg9IjE0MiIgeD0iNDMuNSIgeT0iMTk4LjA4NTkiPkVudGVyIHJlcXVlc3QgZGV0YWlsczwvdGV4dD48bGluZSBzdHlsZT0ic3Ryb2tlOiMxODE4MTg7c3Ryb2tlLXdpZHRoOjEuMDsiIHgxPSIyNzkuNSIgeDI9IjMyMS41IiB5MT0iMjI5LjYyNSIgeTI9IjIyOS42MjUiLz48bGluZSBzdHlsZT0ic3Ryb2tlOiMxODE4MTg7c3Ryb2tlLXdpZHRoOjEuMDsiIHgxPSIzMjEuNSIgeDI9IjMyMS41IiB5MT0iMjI5LjYyNSIgeTI9IjI0Mi42MjUiLz48bGluZSBzdHlsZT0ic3Ryb2tlOiMxODE4MTg7c3Ryb2tlLXdpZHRoOjEuMDsiIHgxPSIyODAuNSIgeDI9IjMyMS41IiB5MT0iMjQyLjYyNSIgeTI9IjI0Mi42MjUiLz48cG9seWdvbiBmaWxsPSIjMTgxODE4IiBwb2ludHM9IjI5MC41LDIzOC42MjUsMjgwLjUsMjQyLjYyNSwyOTAuNSwyNDYuNjI1LDI4Ni41LDI0Mi42MjUiIHN0eWxlPSJzdHJva2U6IzE4MTgxODtzdHJva2Utd2lkdGg6MS4wOyIvPjx0ZXh0IGZpbGw9IiMwMDAwMDAiIGZvbnQtZmFtaWx5PSJzYW5zLXNlcmlmIiBmb250LXNpemU9IjEzIiBsZW5ndGhBZGp1c3Q9InNwYWNpbmciIHRleHRMZW5ndGg9IjE2MSIgeD0iMjg2LjUiIHk9IjIyNiI+VmFsaWRhdGUgcmVxdWVzdCBkZXRhaWxzPC90ZXh0Pjxwb2x5Z29uIGZpbGw9IiMxODE4MTgiIHBvaW50cz0iNDU4LjUsMjY2LjUzOTEsNDY4LjUsMjcwLjUzOTEsNDU4LjUsMjc0LjUzOTEsNDYyLjUsMjcwLjUzOTEiIHN0eWxlPSJzdHJva2U6IzE4MTgxODtzdHJva2Utd2lkdGg6MS4wOyIvPjxsaW5lIHN0eWxlPSJzdHJva2U6IzE4MTgxODtzdHJva2Utd2lkdGg6MS4wOyIgeDE9IjI3OS41IiB4Mj0iNDY0LjUiIHkxPSIyNzAuNTM5MSIgeTI9IjI3MC41MzkxIi8+PHRleHQgZmlsbD0iIzAwMDAwMCIgZm9udC1mYW1pbHk9InNhbnMtc2VyaWYiIGZvbnQtc2l6ZT0iMTMiIGxlbmd0aEFkanVzdD0ic3BhY2luZyIgdGV4dExlbmd0aD0iMTcyIiB4PSIyODYuNSIgeT0iMjY2LjkxNDEiPlNlbmQgcmVxdWVzdCBmb3IgYXBwcm92YWw8L3RleHQ+PGxpbmUgc3R5bGU9InN0cm9rZTojMTgxODE4O3N0cm9rZS13aWR0aDoxLjA7IiB4MT0iNDgwLjUiIHgyPSI1MjIuNSIgeTE9IjI5OC40NTMxIiB5Mj0iMjk4LjQ1MzEiLz48bGluZSBzdHlsZT0ic3Ryb2tlOiMxODE4MTg7c3Ryb2tlLXdpZHRoOjEuMDsiIHgxPSI1MjIuNSIgeDI9IjUyMi41IiB5MT0iMjk4LjQ1MzEiIHkyPSIzMTEuNDUzMSIvPjxsaW5lIHN0eWxlPSJzdHJva2U6IzE4MTgxODtzdHJva2Utd2lkdGg6MS4wOyIgeDE9IjQ4MS41IiB4Mj0iNTIyLjUiIHkxPSIzMTEuNDUzMSIgeTI9IjMxMS40NTMxIi8+PHBvbHlnb24gZmlsbD0iIzE4MTgxOCIgcG9pbnRzPSI0OTEuNSwzMDcuNDUzMSw0ODEuNSwzMTEuNDUzMSw0OTEuNSwzMTUuNDUzMSw0ODcuNSwzMTEuNDUzMSIgc3R5bGU9InN0cm9rZTojMTgxODE4O3N0cm9rZS13aWR0aDoxLjA7Ii8+PHRleHQgZmlsbD0iIzAwMDAwMCIgZm9udC1mYW1pbHk9InNhbnMtc2VyaWYiIGZvbnQtc2l6ZT0iMTMiIGxlbmd0aEFkanVzdD0ic3BhY2luZyIgdGV4dExlbmd0aD0iOTUiIHg9IjQ4Ny41IiB5PSIyOTQuODI4MSI+UmV2aWV3IHJlcXVlc3Q8L3RleHQ+PHBvbHlnb24gZmlsbD0iIzE4MTgxOCIgcG9pbnRzPSIyOTAuNSwzMzUuMzY3MiwyODAuNSwzMzkuMzY3MiwyOTAuNSwzNDMuMzY3MiwyODYuNSwzMzkuMzY3MiIgc3R5bGU9InN0cm9rZTojMTgxODE4O3N0cm9rZS13aWR0aDoxLjA7Ii8+PGxpbmUgc3R5bGU9InN0cm9rZTojMTgxODE4O3N0cm9rZS13aWR0aDoxLjA7IiB4MT0iMjg0LjUiIHgyPSI0NzQuNSIgeTE9IjMzOS4zNjcyIiB5Mj0iMzM5LjM2NzIiLz48dGV4dCBmaWxsPSIjMDAwMDAwIiBmb250LWZhbWlseT0ic2Fucy1zZXJpZiIgZm9udC1zaXplPSIxMyIgbGVuZ3RoQWRqdXN0PSJzcGFjaW5nIiB0ZXh0TGVuZ3RoPSIxNTIiIHg9IjI5Ni41IiB5PSIzMzUuNzQyMiI+QXBwcm92ZS9SZWplY3QgcmVxdWVzdDwvdGV4dD48cG9seWdvbiBmaWxsPSIjMTgxODE4IiBwb2ludHM9IjQ3LjUsMzYzLjI4MTMsMzcuNSwzNjcuMjgxMyw0Ny41LDM3MS4yODEzLDQzLjUsMzY3LjI4MTMiIHN0eWxlPSJzdHJva2U6IzE4MTgxODtzdHJva2Utd2lkdGg6MS4wOyIvPjxsaW5lIHN0eWxlPSJzdHJva2U6IzE4MTgxODtzdHJva2Utd2lkdGg6MS4wOyIgeDE9IjQxLjUiIHgyPSIyNzMuNSIgeTE9IjM2Ny4yODEzIiB5Mj0iMzY3LjI4MTMiLz48dGV4dCBmaWxsPSIjMDAwMDAwIiBmb250LWZhbWlseT0ic2Fucy1zZXJpZiIgZm9udC1zaXplPSIxMyIgbGVuZ3RoQWRqdXN0PSJzcGFjaW5nIiB0ZXh0TGVuZ3RoPSIxMDAiIHg9IjUzLjUiIHk9IjM2My42NTYzIj5Ob3RpZnkgZGVjaXNpb248L3RleHQ+PCEtLVNSQz1bVFAwekp5R20zOFJ0XzBoaFRpSlUwT2RYOTFadUswX1RSaEtFQ2NlLUk0bkZfVlNxcm9HaktBT2FvbEZPaG9xaTB5N0gtQzVESEQzSXZuVDVZVjM2WGsxNVF3TW00blNnZUptNnVPdXpNZTczR21qRlFGNlQzQ3RGcW5JNXAwNG12a2lfU0JXWS1RdktSTnZwYnhxNjdZcUJlbjE4b2s2cVhoMGFJdDV1SjMtdm5OOGFqekhmdTNLdXVtTjRtSG9CR2Q2WDlxNFV1YmdaSmhNTnVSWmh6bEpOTlpDS3p1bTN6dWR2aFF6ZWRoLTE0emMtU2RoVUROZVZ0OFozY2hGaUFmeV96OVA2ZmFsVHBtT2ZPVXdselVZc2ZHX2dmOUFSSUtoemxNSy1FczR6cEdEcTdEZFBoUlJXdG0wMF0tLT48L2c+PC9zdmc+;clipPath=inset(2.12% 0% 17.8% 0%);" parent="TxyqJ8_XLGC1_xMtOGu6-2" vertex="1">
            <mxGeometry x="50" y="60" width="748.94" height="471.83220000000006" as="geometry" />
          </mxCell>
        </UserObject>
        <mxCell id="TxyqJ8_XLGC1_xMtOGu6-3" value="&lt;span id=&quot;docs-internal-guid-2bd4aa14-7fff-87df-c203-e016fc813217&quot;&gt;&lt;span style=&quot;font-size: 9.5pt; font-family: Roboto, sans-serif; background-color: transparent; font-weight: 700; font-variant-numeric: normal; font-variant-east-asian: normal; font-variant-alternates: normal; font-variant-position: normal; vertical-align: baseline; white-space-collapse: preserve;&quot;&gt;UC-HR-06&lt;/span&gt;&lt;/span&gt;" style="shape=umlFrame;whiteSpace=wrap;html=1;pointerEvents=0;recursiveResize=0;container=1;collapsible=0;width=160;fillColor=#e1d5e7;strokeColor=#9673a6;" parent="1" vertex="1">
          <mxGeometry x="1010" y="30" width="860" height="580" as="geometry" />
        </mxCell>
        <mxCell id="TxyqJ8_XLGC1_xMtOGu6-5" value="&lt;span id=&quot;docs-internal-guid-28706360-7fff-eb43-c0f8-68c0dd21f8ab&quot;&gt;&lt;span style=&quot;font-size: 9.5pt; font-family: Roboto, sans-serif; background-color: transparent; font-weight: 700; font-variant-numeric: normal; font-variant-east-asian: normal; font-variant-alternates: normal; font-variant-position: normal; vertical-align: baseline; white-space-collapse: preserve;&quot;&gt;UC-HR-03&lt;/span&gt;&lt;/span&gt;" style="shape=umlFrame;whiteSpace=wrap;html=1;pointerEvents=0;recursiveResize=0;container=1;collapsible=0;width=160;fillColor=#e1d5e7;strokeColor=#9673a6;" parent="1" vertex="1">
          <mxGeometry x="20" y="780" width="950" height="600" as="geometry" />
        </mxCell>
        <mxCell id="TxyqJ8_XLGC1_xMtOGu6-6" value="&lt;span id=&quot;docs-internal-guid-d5666724-7fff-272a-31c1-6922514615f0&quot;&gt;&lt;span style=&quot;font-size: 9.5pt; font-family: Roboto, sans-serif; background-color: transparent; font-weight: 700; font-variant-numeric: normal; font-variant-east-asian: normal; font-variant-alternates: normal; font-variant-position: normal; vertical-align: baseline; white-space-collapse: preserve;&quot;&gt;UC-HR-04&lt;/span&gt;&lt;/span&gt;" style="shape=umlFrame;whiteSpace=wrap;html=1;pointerEvents=0;recursiveResize=0;container=1;collapsible=0;width=160;fillColor=#e1d5e7;strokeColor=#9673a6;" parent="1" vertex="1">
          <mxGeometry x="1200" y="840" width="870" height="530" as="geometry" />
        </mxCell>
        <mxCell id="TxyqJ8_XLGC1_xMtOGu6-8" value="&lt;span style=&quot;font-family: Roboto, sans-serif; font-size: 12.6667px; font-weight: 700; white-space-collapse: preserve;&quot;&gt;UC-HR-02&lt;/span&gt;" style="shape=umlFrame;whiteSpace=wrap;html=1;pointerEvents=0;recursiveResize=0;container=1;collapsible=0;width=160;fillColor=#e1d5e7;strokeColor=#9673a6;" parent="1" vertex="1">
          <mxGeometry x="20" y="1500" width="970" height="680" as="geometry" />
        </mxCell>
        <mxCell id="TxyqJ8_XLGC1_xMtOGu6-9" value="&lt;span style=&quot;font-family: Roboto, sans-serif; font-size: 12.6667px; font-weight: 700; white-space-collapse: preserve;&quot;&gt;UC-HR-05&lt;/span&gt;" style="shape=umlFrame;whiteSpace=wrap;html=1;pointerEvents=0;recursiveResize=0;container=1;collapsible=0;width=160;fillColor=#e1d5e7;strokeColor=#9673a6;" parent="1" vertex="1">
          <mxGeometry x="1070" y="1500" width="1100" height="590" as="geometry" />
        </mxCell>
        <UserObject label="" plantUmlData="{&quot;data&quot;:&quot;@startuml\ntitle Employee Requests Leave\n\nactor \&quot;Employee\&quot; as Emp\nparticipant \&quot;HR Management System\&quot; as System\nparticipant \&quot;HR Administrator\&quot; as HRA\n\nEmp -&gt; System: Log in to HRMS\nactivate Emp\nactivate System\nSystem -&gt; Emp: Provide access to leave module\ndeactivate System\n\nEmp -&gt; System: Submit leave request\nactivate System\nSystem -&gt; HRA: Notify HR Administrator of leave request\nactivate HRA\n\nHRA -&gt; System: Review leave request\ndeactivate HRA\n\nSystem -&gt; Emp: Approval status of leave request\ndeactivate System\ndeactivate Emp\n\n@enduml\n&quot;,&quot;format&quot;:&quot;svg&quot;}" id="QxsiwyNlK42D7wM30Xxl-9">
          <mxCell style="shape=image;noLabel=1;verticalAlign=top;aspect=fixed;imageAspect=0;image=data:image/svg+xml,PD94bWwgdmVyc2lvbj0iMS4wIiBlbmNvZGluZz0idXMtYXNjaWkiIHN0YW5kYWxvbmU9Im5vIj8+PHN2ZyB4bWxucz0iaHR0cDovL3d3dy53My5vcmcvMjAwMC9zdmciIHhtbG5zOnhsaW5rPSJodHRwOi8vd3d3LnczLm9yZy8xOTk5L3hsaW5rIiBjb250ZW50U3R5bGVUeXBlPSJ0ZXh0L2NzcyIgaGVpZ2h0PSIzODJweCIgcHJlc2VydmVBc3BlY3RSYXRpbz0ibm9uZSIgc3R5bGU9IndpZHRoOjY1NnB4O2hlaWdodDozODJweDtiYWNrZ3JvdW5kOiNGRkZGRkY7IiB2ZXJzaW9uPSIxLjEiIHZpZXdCb3g9IjAgMCA2NTYgMzgyIiB3aWR0aD0iNjU2cHgiIHpvb21BbmRQYW49Im1hZ25pZnkiPjxkZWZzLz48Zz48dGV4dCBmaWxsPSIjMDAwMDAwIiBmb250LWZhbWlseT0ic2Fucy1zZXJpZiIgZm9udC1zaXplPSIxNCIgZm9udC13ZWlnaHQ9ImJvbGQiIGxlbmd0aEFkanVzdD0ic3BhY2luZyIgdGV4dExlbmd0aD0iMTYyIiB4PSIyNDYiIHk9IjI4LjIzNDQiPkVtcGxveWVlIFJlcXVlc3RzIExlYXZlPC90ZXh0PjxyZWN0IGZpbGw9IiNGRkZGRkYiIGhlaWdodD0iMTM5LjU3MDMiIHN0eWxlPSJzdHJva2U6IzE4MTgxODtzdHJva2Utd2lkdGg6MS4wOyIgd2lkdGg9IjEwIiB4PSIzMS41IiB5PSIxNDUuODgyOCIvPjxyZWN0IGZpbGw9IiNGRkZGRkYiIGhlaWdodD0iMjcuOTE0MSIgc3R5bGU9InN0cm9rZTojMTgxODE4O3N0cm9rZS13aWR0aDoxLjA7IiB3aWR0aD0iMTAiIHg9IjI4My41IiB5PSIxNDUuODgyOCIvPjxyZWN0IGZpbGw9IiNGRkZGRkYiIGhlaWdodD0iODMuNzQyMiIgc3R5bGU9InN0cm9rZTojMTgxODE4O3N0cm9rZS13aWR0aDoxLjA7IiB3aWR0aD0iMTAiIHg9IjI4My41IiB5PSIyMDEuNzEwOSIvPjxyZWN0IGZpbGw9IiNGRkZGRkYiIGhlaWdodD0iMjcuOTE0MSIgc3R5bGU9InN0cm9rZTojMTgxODE4O3N0cm9rZS13aWR0aDoxLjA7IiB3aWR0aD0iMTAiIHg9IjU4MS41IiB5PSIyMjkuNjI1Ii8+PGxpbmUgc3R5bGU9InN0cm9rZTojMTgxODE4O3N0cm9rZS13aWR0aDowLjU7c3Ryb2tlLWRhc2hhcnJheTo1LjAsNS4wOyIgeDE9IjM2IiB4Mj0iMzYiIHkxPSIxMTUuOTY4OCIgeTI9IjMwMy40NTMxIi8+PGxpbmUgc3R5bGU9InN0cm9rZTojMTgxODE4O3N0cm9rZS13aWR0aDowLjU7c3Ryb2tlLWRhc2hhcnJheTo1LjAsNS4wOyIgeDE9IjI4OC41IiB4Mj0iMjg4LjUiIHkxPSIxMTUuOTY4OCIgeTI9IjMwMy40NTMxIi8+PGxpbmUgc3R5bGU9InN0cm9rZTojMTgxODE4O3N0cm9rZS13aWR0aDowLjU7c3Ryb2tlLWRhc2hhcnJheTo1LjAsNS4wOyIgeDE9IjU4NiIgeDI9IjU4NiIgeTE9IjExNS45Njg4IiB5Mj0iMzAzLjQ1MzEiLz48dGV4dCBmaWxsPSIjMDAwMDAwIiBmb250LWZhbWlseT0ic2Fucy1zZXJpZiIgZm9udC1zaXplPSIxNCIgbGVuZ3RoQWRqdXN0PSJzcGFjaW5nIiB0ZXh0TGVuZ3RoPSI1NyIgeD0iNSIgeT0iMTE0LjIxODgiPkVtcGxveWVlPC90ZXh0PjxlbGxpcHNlIGN4PSIzNi41IiBjeT0iNDkuNDg0NCIgZmlsbD0iI0UyRTJGMCIgcng9IjgiIHJ5PSI4IiBzdHlsZT0ic3Ryb2tlOiMxODE4MTg7c3Ryb2tlLXdpZHRoOjAuNTsiLz48cGF0aCBkPSJNMzYuNSw1Ny40ODQ0IEwzNi41LDg0LjQ4NDQgTTIzLjUsNjUuNDg0NCBMNDkuNSw2NS40ODQ0IE0zNi41LDg0LjQ4NDQgTDIzLjUsOTkuNDg0NCBNMzYuNSw4NC40ODQ0IEw0OS41LDk5LjQ4NDQgIiBmaWxsPSJub25lIiBzdHlsZT0ic3Ryb2tlOiMxODE4MTg7c3Ryb2tlLXdpZHRoOjAuNTsiLz48dGV4dCBmaWxsPSIjMDAwMDAwIiBmb250LWZhbWlseT0ic2Fucy1zZXJpZiIgZm9udC1zaXplPSIxNCIgbGVuZ3RoQWRqdXN0PSJzcGFjaW5nIiB0ZXh0TGVuZ3RoPSI1NyIgeD0iNSIgeT0iMzE1LjY4NzUiPkVtcGxveWVlPC90ZXh0PjxlbGxpcHNlIGN4PSIzNi41IiBjeT0iMzI1LjkzNzUiIGZpbGw9IiNFMkUyRjAiIHJ4PSI4IiByeT0iOCIgc3R5bGU9InN0cm9rZTojMTgxODE4O3N0cm9rZS13aWR0aDowLjU7Ii8+PHBhdGggZD0iTTM2LjUsMzMzLjkzNzUgTDM2LjUsMzYwLjkzNzUgTTIzLjUsMzQxLjkzNzUgTDQ5LjUsMzQxLjkzNzUgTTM2LjUsMzYwLjkzNzUgTDIzLjUsMzc1LjkzNzUgTTM2LjUsMzYwLjkzNzUgTDQ5LjUsMzc1LjkzNzUgIiBmaWxsPSJub25lIiBzdHlsZT0ic3Ryb2tlOiMxODE4MTg7c3Ryb2tlLXdpZHRoOjAuNTsiLz48cmVjdCBmaWxsPSIjRTJFMkYwIiBoZWlnaHQ9IjI4Ljk4NDQiIHJ4PSIyLjUiIHJ5PSIyLjUiIHN0eWxlPSJzdHJva2U6IzE4MTgxODtzdHJva2Utd2lkdGg6MC41OyIgd2lkdGg9IjE1NiIgeD0iMjEwLjUiIHk9Ijg1Ljk4NDQiLz48dGV4dCBmaWxsPSIjMDAwMDAwIiBmb250LWZhbWlseT0ic2Fucy1zZXJpZiIgZm9udC1zaXplPSIxNCIgbGVuZ3RoQWRqdXN0PSJzcGFjaW5nIiB0ZXh0TGVuZ3RoPSIxNDIiIHg9IjIxNy41IiB5PSIxMDYuMjE4OCI+SFIgTWFuYWdlbWVudCBTeXN0ZW08L3RleHQ+PHJlY3QgZmlsbD0iI0UyRTJGMCIgaGVpZ2h0PSIyOC45ODQ0IiByeD0iMi41IiByeT0iMi41IiBzdHlsZT0ic3Ryb2tlOiMxODE4MTg7c3Ryb2tlLXdpZHRoOjAuNTsiIHdpZHRoPSIxNTYiIHg9IjIxMC41IiB5PSIzMDIuNDUzMSIvPjx0ZXh0IGZpbGw9IiMwMDAwMDAiIGZvbnQtZmFtaWx5PSJzYW5zLXNlcmlmIiBmb250LXNpemU9IjE0IiBsZW5ndGhBZGp1c3Q9InNwYWNpbmciIHRleHRMZW5ndGg9IjE0MiIgeD0iMjE3LjUiIHk9IjMyMi42ODc1Ij5IUiBNYW5hZ2VtZW50IFN5c3RlbTwvdGV4dD48cmVjdCBmaWxsPSIjRTJFMkYwIiBoZWlnaHQ9IjI4Ljk4NDQiIHJ4PSIyLjUiIHJ5PSIyLjUiIHN0eWxlPSJzdHJva2U6IzE4MTgxODtzdHJva2Utd2lkdGg6MC41OyIgd2lkdGg9IjEyNyIgeD0iNTIzIiB5PSI4NS45ODQ0Ii8+PHRleHQgZmlsbD0iIzAwMDAwMCIgZm9udC1mYW1pbHk9InNhbnMtc2VyaWYiIGZvbnQtc2l6ZT0iMTQiIGxlbmd0aEFkanVzdD0ic3BhY2luZyIgdGV4dExlbmd0aD0iMTEzIiB4PSI1MzAiIHk9IjEwNi4yMTg4Ij5IUiBBZG1pbmlzdHJhdG9yPC90ZXh0PjxyZWN0IGZpbGw9IiNFMkUyRjAiIGhlaWdodD0iMjguOTg0NCIgcng9IjIuNSIgcnk9IjIuNSIgc3R5bGU9InN0cm9rZTojMTgxODE4O3N0cm9rZS13aWR0aDowLjU7IiB3aWR0aD0iMTI3IiB4PSI1MjMiIHk9IjMwMi40NTMxIi8+PHRleHQgZmlsbD0iIzAwMDAwMCIgZm9udC1mYW1pbHk9InNhbnMtc2VyaWYiIGZvbnQtc2l6ZT0iMTQiIGxlbmd0aEFkanVzdD0ic3BhY2luZyIgdGV4dExlbmd0aD0iMTEzIiB4PSI1MzAiIHk9IjMyMi42ODc1Ij5IUiBBZG1pbmlzdHJhdG9yPC90ZXh0PjxyZWN0IGZpbGw9IiNGRkZGRkYiIGhlaWdodD0iMTM5LjU3MDMiIHN0eWxlPSJzdHJva2U6IzE4MTgxODtzdHJva2Utd2lkdGg6MS4wOyIgd2lkdGg9IjEwIiB4PSIzMS41IiB5PSIxNDUuODgyOCIvPjxyZWN0IGZpbGw9IiNGRkZGRkYiIGhlaWdodD0iMjcuOTE0MSIgc3R5bGU9InN0cm9rZTojMTgxODE4O3N0cm9rZS13aWR0aDoxLjA7IiB3aWR0aD0iMTAiIHg9IjI4My41IiB5PSIxNDUuODgyOCIvPjxyZWN0IGZpbGw9IiNGRkZGRkYiIGhlaWdodD0iODMuNzQyMiIgc3R5bGU9InN0cm9rZTojMTgxODE4O3N0cm9rZS13aWR0aDoxLjA7IiB3aWR0aD0iMTAiIHg9IjI4My41IiB5PSIyMDEuNzEwOSIvPjxyZWN0IGZpbGw9IiNGRkZGRkYiIGhlaWdodD0iMjcuOTE0MSIgc3R5bGU9InN0cm9rZTojMTgxODE4O3N0cm9rZS13aWR0aDoxLjA7IiB3aWR0aD0iMTAiIHg9IjU4MS41IiB5PSIyMjkuNjI1Ii8+PHBvbHlnb24gZmlsbD0iIzE4MTgxOCIgcG9pbnRzPSIyNzEuNSwxNDEuODgyOCwyODEuNSwxNDUuODgyOCwyNzEuNSwxNDkuODgyOCwyNzUuNSwxNDUuODgyOCIgc3R5bGU9InN0cm9rZTojMTgxODE4O3N0cm9rZS13aWR0aDoxLjA7Ii8+PGxpbmUgc3R5bGU9InN0cm9rZTojMTgxODE4O3N0cm9rZS13aWR0aDoxLjA7IiB4MT0iNDEuNSIgeDI9IjI3Ny41IiB5MT0iMTQ1Ljg4MjgiIHkyPSIxNDUuODgyOCIvPjx0ZXh0IGZpbGw9IiMwMDAwMDAiIGZvbnQtZmFtaWx5PSJzYW5zLXNlcmlmIiBmb250LXNpemU9IjEzIiBsZW5ndGhBZGp1c3Q9InNwYWNpbmciIHRleHRMZW5ndGg9Ijk2IiB4PSI0OC41IiB5PSIxNDIuMjU3OCI+TG9nIGluIHRvIEhSTVM8L3RleHQ+PHBvbHlnb24gZmlsbD0iIzE4MTgxOCIgcG9pbnRzPSI1Mi41LDE2OS43OTY5LDQyLjUsMTczLjc5NjksNTIuNSwxNzcuNzk2OSw0OC41LDE3My43OTY5IiBzdHlsZT0ic3Ryb2tlOiMxODE4MTg7c3Ryb2tlLXdpZHRoOjEuMDsiLz48bGluZSBzdHlsZT0ic3Ryb2tlOiMxODE4MTg7c3Ryb2tlLXdpZHRoOjEuMDsiIHgxPSI0Ni41IiB4Mj0iMjg3LjUiIHkxPSIxNzMuNzk2OSIgeTI9IjE3My43OTY5Ii8+PHRleHQgZmlsbD0iIzAwMDAwMCIgZm9udC1mYW1pbHk9InNhbnMtc2VyaWYiIGZvbnQtc2l6ZT0iMTMiIGxlbmd0aEFkanVzdD0ic3BhY2luZyIgdGV4dExlbmd0aD0iMjA1IiB4PSI1OC41IiB5PSIxNzAuMTcxOSI+UHJvdmlkZSBhY2Nlc3MgdG8gbGVhdmUgbW9kdWxlPC90ZXh0Pjxwb2x5Z29uIGZpbGw9IiMxODE4MTgiIHBvaW50cz0iMjcxLjUsMTk3LjcxMDksMjgxLjUsMjAxLjcxMDksMjcxLjUsMjA1LjcxMDksMjc1LjUsMjAxLjcxMDkiIHN0eWxlPSJzdHJva2U6IzE4MTgxODtzdHJva2Utd2lkdGg6MS4wOyIvPjxsaW5lIHN0eWxlPSJzdHJva2U6IzE4MTgxODtzdHJva2Utd2lkdGg6MS4wOyIgeDE9IjQxLjUiIHgyPSIyNzcuNSIgeTE9IjIwMS43MTA5IiB5Mj0iMjAxLjcxMDkiLz48dGV4dCBmaWxsPSIjMDAwMDAwIiBmb250LWZhbWlseT0ic2Fucy1zZXJpZiIgZm9udC1zaXplPSIxMyIgbGVuZ3RoQWRqdXN0PSJzcGFjaW5nIiB0ZXh0TGVuZ3RoPSIxMzUiIHg9IjQ4LjUiIHk9IjE5OC4wODU5Ij5TdWJtaXQgbGVhdmUgcmVxdWVzdDwvdGV4dD48cG9seWdvbiBmaWxsPSIjMTgxODE4IiBwb2ludHM9IjU2OS41LDIyNS42MjUsNTc5LjUsMjI5LjYyNSw1NjkuNSwyMzMuNjI1LDU3My41LDIyOS42MjUiIHN0eWxlPSJzdHJva2U6IzE4MTgxODtzdHJva2Utd2lkdGg6MS4wOyIvPjxsaW5lIHN0eWxlPSJzdHJva2U6IzE4MTgxODtzdHJva2Utd2lkdGg6MS4wOyIgeDE9IjI5My41IiB4Mj0iNTc1LjUiIHkxPSIyMjkuNjI1IiB5Mj0iMjI5LjYyNSIvPjx0ZXh0IGZpbGw9IiMwMDAwMDAiIGZvbnQtZmFtaWx5PSJzYW5zLXNlcmlmIiBmb250LXNpemU9IjEzIiBsZW5ndGhBZGp1c3Q9InNwYWNpbmciIHRleHRMZW5ndGg9IjI2OSIgeD0iMzAwLjUiIHk9IjIyNiI+Tm90aWZ5IEhSIEFkbWluaXN0cmF0b3Igb2YgbGVhdmUgcmVxdWVzdDwvdGV4dD48cG9seWdvbiBmaWxsPSIjMTgxODE4IiBwb2ludHM9IjMwNC41LDI1My41MzkxLDI5NC41LDI1Ny41MzkxLDMwNC41LDI2MS41MzkxLDMwMC41LDI1Ny41MzkxIiBzdHlsZT0ic3Ryb2tlOiMxODE4MTg7c3Ryb2tlLXdpZHRoOjEuMDsiLz48bGluZSBzdHlsZT0ic3Ryb2tlOiMxODE4MTg7c3Ryb2tlLXdpZHRoOjEuMDsiIHgxPSIyOTguNSIgeDI9IjU4NS41IiB5MT0iMjU3LjUzOTEiIHkyPSIyNTcuNTM5MSIvPjx0ZXh0IGZpbGw9IiMwMDAwMDAiIGZvbnQtZmFtaWx5PSJzYW5zLXNlcmlmIiBmb250LXNpemU9IjEzIiBsZW5ndGhBZGp1c3Q9InNwYWNpbmciIHRleHRMZW5ndGg9IjEzNiIgeD0iMzEwLjUiIHk9IjI1My45MTQxIj5SZXZpZXcgbGVhdmUgcmVxdWVzdDwvdGV4dD48cG9seWdvbiBmaWxsPSIjMTgxODE4IiBwb2ludHM9IjQ3LjUsMjgxLjQ1MzEsMzcuNSwyODUuNDUzMSw0Ny41LDI4OS40NTMxLDQzLjUsMjg1LjQ1MzEiIHN0eWxlPSJzdHJva2U6IzE4MTgxODtzdHJva2Utd2lkdGg6MS4wOyIvPjxsaW5lIHN0eWxlPSJzdHJva2U6IzE4MTgxODtzdHJva2Utd2lkdGg6MS4wOyIgeDE9IjQxLjUiIHgyPSIyODcuNSIgeTE9IjI4NS40NTMxIiB5Mj0iMjg1LjQ1MzEiLz48dGV4dCBmaWxsPSIjMDAwMDAwIiBmb250LWZhbWlseT0ic2Fucy1zZXJpZiIgZm9udC1zaXplPSIxMyIgbGVuZ3RoQWRqdXN0PSJzcGFjaW5nIiB0ZXh0TGVuZ3RoPSIyMTgiIHg9IjUzLjUiIHk9IjI4MS44MjgxIj5BcHByb3ZhbCBzdGF0dXMgb2YgbGVhdmUgcmVxdWVzdDwvdGV4dD48IS0tU1JDPVtWTDFCUmVDbTREdHg1MkZzbEcyQkkybWdQUDU0NFBuVzJmRGU5MWl4emEzNHhNaVJnWUFaVGtGVmxBLTVISER5NmdWakdXR2psSU9BNGsxMkU5RElzOGxyS0Z0Q0F5MkdtQ2dYNS14UHVJWEdkTGt1dWVYRkNYSWx0SEE0SjRRa25tRXU2R29GN0NIWjVDXzBTemllNU5OWHV4SUhRaFpPOV8wOE9rRnFzZ0thRkFGYWhCLU5wTTdUNFpqRVF4WHhFX0QwVzdyRjhJRzlkVWcwaVNFYUlHckt5YWxsUmxlb0IxbEJodF9vWnNjQ055RkQyWnlNQUZrMVZWb2Jhcmw3UFVfU3FpcHFCWFl4bTliSnI2c1NZdUxIR24yS0FIbVRadUx0QnI3WTZtMDBdLS0+PC9nPjwvc3ZnPg==;clipPath=inset(0% 0% 22% 0%);" parent="TxyqJ8_XLGC1_xMtOGu6-9" vertex="1">
            <mxGeometry x="58.41000000000008" y="70" width="1013.19" height="461.00145" as="geometry" />
          </mxCell>
        </UserObject>
      </root>
    </mxGraphModel>
  </diagram>
  <diagram id="nm6QOMrRd0PQa18cqcv3" name="Page-2">
    <mxGraphModel dx="1434" dy="695" grid="1" gridSize="10" guides="1" tooltips="1" connect="1" arrows="1" fold="1" page="1" pageScale="1" pageWidth="850" pageHeight="1100" math="0" shadow="0">
      <root>
        <mxCell id="0" />
        <mxCell id="1" parent="0" />
        <mxCell id="SFfnI7pAYoO_aoFmOA_5-1" value="&lt;span id=&quot;docs-internal-guid-ac812002-7fff-6536-52cf-04db2cbf6b18&quot;&gt;&lt;span style=&quot;font-size: 9.5pt; font-family: Roboto, sans-serif; background-color: transparent; font-weight: 700; font-variant-numeric: normal; font-variant-east-asian: normal; font-variant-alternates: normal; font-variant-position: normal; vertical-align: baseline; white-space-collapse: preserve;&quot;&gt;UC-HR-01&lt;/span&gt;&lt;/span&gt;" style="shape=umlFrame;whiteSpace=wrap;html=1;pointerEvents=0;recursiveResize=0;container=1;collapsible=0;width=160;fillColor=#e1d5e7;strokeColor=#9673a6;" vertex="1" parent="1">
          <mxGeometry x="20" y="30" width="860" height="570" as="geometry" />
        </mxCell>
        <UserObject label="" plantUmlData="{&quot;data&quot;:&quot;@startuml\ntitle Employee Requests Time Off\n\nactor Employee\nparticipant \&quot;HR Management System\&quot; as System\nparticipant \&quot;HR Manager\&quot; as Manager\n\nEmployee -&gt; System: Initiate time off request\nactivate System\nSystem -&gt; Employee: Prompt to enter request details\nactivate Employee\nEmployee -&gt; System: Enter request details\ndeactivate Employee\nSystem -&gt; System: Validate request details\nSystem -&gt; Manager: Send request for approval\nactivate Manager\nManager -&gt; Manager: Review request\nManager -&gt; System: Approve/Reject request\ndeactivate Manager\nSystem -&gt; Employee: Notify decision\ndeactivate System\n\n@enduml\n&quot;,&quot;format&quot;:&quot;svg&quot;}" id="SFfnI7pAYoO_aoFmOA_5-2">
          <mxCell style="shape=image;noLabel=1;verticalAlign=top;aspect=fixed;imageAspect=0;image=data:image/svg+xml,PD94bWwgdmVyc2lvbj0iMS4wIiBlbmNvZGluZz0idXMtYXNjaWkiIHN0YW5kYWxvbmU9Im5vIj8+PHN2ZyB4bWxucz0iaHR0cDovL3d3dy53My5vcmcvMjAwMC9zdmciIHhtbG5zOnhsaW5rPSJodHRwOi8vd3d3LnczLm9yZy8xOTk5L3hsaW5rIiBjb250ZW50U3R5bGVUeXBlPSJ0ZXh0L2NzcyIgaGVpZ2h0PSI0NjRweCIgcHJlc2VydmVBc3BlY3RSYXRpbz0ibm9uZSIgc3R5bGU9IndpZHRoOjU4OXB4O2hlaWdodDo0NjRweDtiYWNrZ3JvdW5kOiNGRkZGRkY7IiB2ZXJzaW9uPSIxLjEiIHZpZXdCb3g9IjAgMCA1ODkgNDY0IiB3aWR0aD0iNTg5cHgiIHpvb21BbmRQYW49Im1hZ25pZnkiPjxkZWZzLz48Zz48dGV4dCBmaWxsPSIjMDAwMDAwIiBmb250LWZhbWlseT0ic2Fucy1zZXJpZiIgZm9udC1zaXplPSIxNCIgZm9udC13ZWlnaHQ9ImJvbGQiIGxlbmd0aEFkanVzdD0ic3BhY2luZyIgdGV4dExlbmd0aD0iMTg0IiB4PSIyMDQuNzUiIHk9IjI4LjIzNDQiPkVtcGxveWVlIFJlcXVlc3RzIFRpbWUgT2ZmPC90ZXh0PjxyZWN0IGZpbGw9IiNGRkZGRkYiIGhlaWdodD0iMjcuOTE0MSIgc3R5bGU9InN0cm9rZTojMTgxODE4O3N0cm9rZS13aWR0aDoxLjA7IiB3aWR0aD0iMTAiIHg9IjMxLjUiIHk9IjE3My43OTY5Ii8+PHJlY3QgZmlsbD0iI0ZGRkZGRiIgaGVpZ2h0PSIyMjEuMzk4NCIgc3R5bGU9InN0cm9rZTojMTgxODE4O3N0cm9rZS13aWR0aDoxLjA7IiB3aWR0aD0iMTAiIHg9IjI2OS41IiB5PSIxNDUuODgyOCIvPjxyZWN0IGZpbGw9IiNGRkZGRkYiIGhlaWdodD0iNjguODI4MSIgc3R5bGU9InN0cm9rZTojMTgxODE4O3N0cm9rZS13aWR0aDoxLjA7IiB3aWR0aD0iMTAiIHg9IjQ3MC41IiB5PSIyNzAuNTM5MSIvPjxsaW5lIHN0eWxlPSJzdHJva2U6IzE4MTgxODtzdHJva2Utd2lkdGg6MC41O3N0cm9rZS1kYXNoYXJyYXk6NS4wLDUuMDsiIHgxPSIzNiIgeDI9IjM2IiB5MT0iMTE1Ljk2ODgiIHkyPSIzODUuMjgxMyIvPjxsaW5lIHN0eWxlPSJzdHJva2U6IzE4MTgxODtzdHJva2Utd2lkdGg6MC41O3N0cm9rZS1kYXNoYXJyYXk6NS4wLDUuMDsiIHgxPSIyNzQuNSIgeDI9IjI3NC41IiB5MT0iMTE1Ljk2ODgiIHkyPSIzODUuMjgxMyIvPjxsaW5lIHN0eWxlPSJzdHJva2U6IzE4MTgxODtzdHJva2Utd2lkdGg6MC41O3N0cm9rZS1kYXNoYXJyYXk6NS4wLDUuMDsiIHgxPSI0NzUuNSIgeDI9IjQ3NS41IiB5MT0iMTE1Ljk2ODgiIHkyPSIzODUuMjgxMyIvPjx0ZXh0IGZpbGw9IiMwMDAwMDAiIGZvbnQtZmFtaWx5PSJzYW5zLXNlcmlmIiBmb250LXNpemU9IjE0IiBsZW5ndGhBZGp1c3Q9InNwYWNpbmciIHRleHRMZW5ndGg9IjU3IiB4PSI1IiB5PSIxMTQuMjE4OCI+RW1wbG95ZWU8L3RleHQ+PGVsbGlwc2UgY3g9IjM2LjUiIGN5PSI0OS40ODQ0IiBmaWxsPSIjRTJFMkYwIiByeD0iOCIgcnk9IjgiIHN0eWxlPSJzdHJva2U6IzE4MTgxODtzdHJva2Utd2lkdGg6MC41OyIvPjxwYXRoIGQ9Ik0zNi41LDU3LjQ4NDQgTDM2LjUsODQuNDg0NCBNMjMuNSw2NS40ODQ0IEw0OS41LDY1LjQ4NDQgTTM2LjUsODQuNDg0NCBMMjMuNSw5OS40ODQ0IE0zNi41LDg0LjQ4NDQgTDQ5LjUsOTkuNDg0NCAiIGZpbGw9Im5vbmUiIHN0eWxlPSJzdHJva2U6IzE4MTgxODtzdHJva2Utd2lkdGg6MC41OyIvPjx0ZXh0IGZpbGw9IiMwMDAwMDAiIGZvbnQtZmFtaWx5PSJzYW5zLXNlcmlmIiBmb250LXNpemU9IjE0IiBsZW5ndGhBZGp1c3Q9InNwYWNpbmciIHRleHRMZW5ndGg9IjU3IiB4PSI1IiB5PSIzOTcuNTE1NiI+RW1wbG95ZWU8L3RleHQ+PGVsbGlwc2UgY3g9IjM2LjUiIGN5PSI0MDcuNzY1NiIgZmlsbD0iI0UyRTJGMCIgcng9IjgiIHJ5PSI4IiBzdHlsZT0ic3Ryb2tlOiMxODE4MTg7c3Ryb2tlLXdpZHRoOjAuNTsiLz48cGF0aCBkPSJNMzYuNSw0MTUuNzY1NiBMMzYuNSw0NDIuNzY1NiBNMjMuNSw0MjMuNzY1NiBMNDkuNSw0MjMuNzY1NiBNMzYuNSw0NDIuNzY1NiBMMjMuNSw0NTcuNzY1NiBNMzYuNSw0NDIuNzY1NiBMNDkuNSw0NTcuNzY1NiAiIGZpbGw9Im5vbmUiIHN0eWxlPSJzdHJva2U6IzE4MTgxODtzdHJva2Utd2lkdGg6MC41OyIvPjxyZWN0IGZpbGw9IiNFMkUyRjAiIGhlaWdodD0iMjguOTg0NCIgcng9IjIuNSIgcnk9IjIuNSIgc3R5bGU9InN0cm9rZTojMTgxODE4O3N0cm9rZS13aWR0aDowLjU7IiB3aWR0aD0iMTU2IiB4PSIxOTYuNSIgeT0iODUuOTg0NCIvPjx0ZXh0IGZpbGw9IiMwMDAwMDAiIGZvbnQtZmFtaWx5PSJzYW5zLXNlcmlmIiBmb250LXNpemU9IjE0IiBsZW5ndGhBZGp1c3Q9InNwYWNpbmciIHRleHRMZW5ndGg9IjE0MiIgeD0iMjAzLjUiIHk9IjEwNi4yMTg4Ij5IUiBNYW5hZ2VtZW50IFN5c3RlbTwvdGV4dD48cmVjdCBmaWxsPSIjRTJFMkYwIiBoZWlnaHQ9IjI4Ljk4NDQiIHJ4PSIyLjUiIHJ5PSIyLjUiIHN0eWxlPSJzdHJva2U6IzE4MTgxODtzdHJva2Utd2lkdGg6MC41OyIgd2lkdGg9IjE1NiIgeD0iMTk2LjUiIHk9IjM4NC4yODEzIi8+PHRleHQgZmlsbD0iIzAwMDAwMCIgZm9udC1mYW1pbHk9InNhbnMtc2VyaWYiIGZvbnQtc2l6ZT0iMTQiIGxlbmd0aEFkanVzdD0ic3BhY2luZyIgdGV4dExlbmd0aD0iMTQyIiB4PSIyMDMuNSIgeT0iNDA0LjUxNTYiPkhSIE1hbmFnZW1lbnQgU3lzdGVtPC90ZXh0PjxyZWN0IGZpbGw9IiNFMkUyRjAiIGhlaWdodD0iMjguOTg0NCIgcng9IjIuNSIgcnk9IjIuNSIgc3R5bGU9InN0cm9rZTojMTgxODE4O3N0cm9rZS13aWR0aDowLjU7IiB3aWR0aD0iODQiIHg9IjQzMy41IiB5PSI4NS45ODQ0Ii8+PHRleHQgZmlsbD0iIzAwMDAwMCIgZm9udC1mYW1pbHk9InNhbnMtc2VyaWYiIGZvbnQtc2l6ZT0iMTQiIGxlbmd0aEFkanVzdD0ic3BhY2luZyIgdGV4dExlbmd0aD0iNzAiIHg9IjQ0MC41IiB5PSIxMDYuMjE4OCI+SFIgTWFuYWdlcjwvdGV4dD48cmVjdCBmaWxsPSIjRTJFMkYwIiBoZWlnaHQ9IjI4Ljk4NDQiIHJ4PSIyLjUiIHJ5PSIyLjUiIHN0eWxlPSJzdHJva2U6IzE4MTgxODtzdHJva2Utd2lkdGg6MC41OyIgd2lkdGg9Ijg0IiB4PSI0MzMuNSIgeT0iMzg0LjI4MTMiLz48dGV4dCBmaWxsPSIjMDAwMDAwIiBmb250LWZhbWlseT0ic2Fucy1zZXJpZiIgZm9udC1zaXplPSIxNCIgbGVuZ3RoQWRqdXN0PSJzcGFjaW5nIiB0ZXh0TGVuZ3RoPSI3MCIgeD0iNDQwLjUiIHk9IjQwNC41MTU2Ij5IUiBNYW5hZ2VyPC90ZXh0PjxyZWN0IGZpbGw9IiNGRkZGRkYiIGhlaWdodD0iMjcuOTE0MSIgc3R5bGU9InN0cm9rZTojMTgxODE4O3N0cm9rZS13aWR0aDoxLjA7IiB3aWR0aD0iMTAiIHg9IjMxLjUiIHk9IjE3My43OTY5Ii8+PHJlY3QgZmlsbD0iI0ZGRkZGRiIgaGVpZ2h0PSIyMjEuMzk4NCIgc3R5bGU9InN0cm9rZTojMTgxODE4O3N0cm9rZS13aWR0aDoxLjA7IiB3aWR0aD0iMTAiIHg9IjI2OS41IiB5PSIxNDUuODgyOCIvPjxyZWN0IGZpbGw9IiNGRkZGRkYiIGhlaWdodD0iNjguODI4MSIgc3R5bGU9InN0cm9rZTojMTgxODE4O3N0cm9rZS13aWR0aDoxLjA7IiB3aWR0aD0iMTAiIHg9IjQ3MC41IiB5PSIyNzAuNTM5MSIvPjxwb2x5Z29uIGZpbGw9IiMxODE4MTgiIHBvaW50cz0iMjU3LjUsMTQxLjg4MjgsMjY3LjUsMTQ1Ljg4MjgsMjU3LjUsMTQ5Ljg4MjgsMjYxLjUsMTQ1Ljg4MjgiIHN0eWxlPSJzdHJva2U6IzE4MTgxODtzdHJva2Utd2lkdGg6MS4wOyIvPjxsaW5lIHN0eWxlPSJzdHJva2U6IzE4MTgxODtzdHJva2Utd2lkdGg6MS4wOyIgeDE9IjM2LjUiIHgyPSIyNjMuNSIgeTE9IjE0NS44ODI4IiB5Mj0iMTQ1Ljg4MjgiLz48dGV4dCBmaWxsPSIjMDAwMDAwIiBmb250LWZhbWlseT0ic2Fucy1zZXJpZiIgZm9udC1zaXplPSIxMyIgbGVuZ3RoQWRqdXN0PSJzcGFjaW5nIiB0ZXh0TGVuZ3RoPSIxNjQiIHg9IjQzLjUiIHk9IjE0Mi4yNTc4Ij5Jbml0aWF0ZSB0aW1lIG9mZiByZXF1ZXN0PC90ZXh0Pjxwb2x5Z29uIGZpbGw9IiMxODE4MTgiIHBvaW50cz0iNTIuNSwxNjkuNzk2OSw0Mi41LDE3My43OTY5LDUyLjUsMTc3Ljc5NjksNDguNSwxNzMuNzk2OSIgc3R5bGU9InN0cm9rZTojMTgxODE4O3N0cm9rZS13aWR0aDoxLjA7Ii8+PGxpbmUgc3R5bGU9InN0cm9rZTojMTgxODE4O3N0cm9rZS13aWR0aDoxLjA7IiB4MT0iNDYuNSIgeDI9IjI2OC41IiB5MT0iMTczLjc5NjkiIHkyPSIxNzMuNzk2OSIvPjx0ZXh0IGZpbGw9IiMwMDAwMDAiIGZvbnQtZmFtaWx5PSJzYW5zLXNlcmlmIiBmb250LXNpemU9IjEzIiBsZW5ndGhBZGp1c3Q9InNwYWNpbmciIHRleHRMZW5ndGg9IjIwOSIgeD0iNTguNSIgeT0iMTcwLjE3MTkiPlByb21wdCB0byBlbnRlciByZXF1ZXN0IGRldGFpbHM8L3RleHQ+PHBvbHlnb24gZmlsbD0iIzE4MTgxOCIgcG9pbnRzPSIyNTcuNSwxOTcuNzEwOSwyNjcuNSwyMDEuNzEwOSwyNTcuNSwyMDUuNzEwOSwyNjEuNSwyMDEuNzEwOSIgc3R5bGU9InN0cm9rZTojMTgxODE4O3N0cm9rZS13aWR0aDoxLjA7Ii8+PGxpbmUgc3R5bGU9InN0cm9rZTojMTgxODE4O3N0cm9rZS13aWR0aDoxLjA7IiB4MT0iMzYuNSIgeDI9IjI2My41IiB5MT0iMjAxLjcxMDkiIHkyPSIyMDEuNzEwOSIvPjx0ZXh0IGZpbGw9IiMwMDAwMDAiIGZvbnQtZmFtaWx5PSJzYW5zLXNlcmlmIiBmb250LXNpemU9IjEzIiBsZW5ndGhBZGp1c3Q9InNwYWNpbmciIHRleHRMZW5ndGg9IjE0MiIgeD0iNDMuNSIgeT0iMTk4LjA4NTkiPkVudGVyIHJlcXVlc3QgZGV0YWlsczwvdGV4dD48bGluZSBzdHlsZT0ic3Ryb2tlOiMxODE4MTg7c3Ryb2tlLXdpZHRoOjEuMDsiIHgxPSIyNzkuNSIgeDI9IjMyMS41IiB5MT0iMjI5LjYyNSIgeTI9IjIyOS42MjUiLz48bGluZSBzdHlsZT0ic3Ryb2tlOiMxODE4MTg7c3Ryb2tlLXdpZHRoOjEuMDsiIHgxPSIzMjEuNSIgeDI9IjMyMS41IiB5MT0iMjI5LjYyNSIgeTI9IjI0Mi42MjUiLz48bGluZSBzdHlsZT0ic3Ryb2tlOiMxODE4MTg7c3Ryb2tlLXdpZHRoOjEuMDsiIHgxPSIyODAuNSIgeDI9IjMyMS41IiB5MT0iMjQyLjYyNSIgeTI9IjI0Mi42MjUiLz48cG9seWdvbiBmaWxsPSIjMTgxODE4IiBwb2ludHM9IjI5MC41LDIzOC42MjUsMjgwLjUsMjQyLjYyNSwyOTAuNSwyNDYuNjI1LDI4Ni41LDI0Mi42MjUiIHN0eWxlPSJzdHJva2U6IzE4MTgxODtzdHJva2Utd2lkdGg6MS4wOyIvPjx0ZXh0IGZpbGw9IiMwMDAwMDAiIGZvbnQtZmFtaWx5PSJzYW5zLXNlcmlmIiBmb250LXNpemU9IjEzIiBsZW5ndGhBZGp1c3Q9InNwYWNpbmciIHRleHRMZW5ndGg9IjE2MSIgeD0iMjg2LjUiIHk9IjIyNiI+VmFsaWRhdGUgcmVxdWVzdCBkZXRhaWxzPC90ZXh0Pjxwb2x5Z29uIGZpbGw9IiMxODE4MTgiIHBvaW50cz0iNDU4LjUsMjY2LjUzOTEsNDY4LjUsMjcwLjUzOTEsNDU4LjUsMjc0LjUzOTEsNDYyLjUsMjcwLjUzOTEiIHN0eWxlPSJzdHJva2U6IzE4MTgxODtzdHJva2Utd2lkdGg6MS4wOyIvPjxsaW5lIHN0eWxlPSJzdHJva2U6IzE4MTgxODtzdHJva2Utd2lkdGg6MS4wOyIgeDE9IjI3OS41IiB4Mj0iNDY0LjUiIHkxPSIyNzAuNTM5MSIgeTI9IjI3MC41MzkxIi8+PHRleHQgZmlsbD0iIzAwMDAwMCIgZm9udC1mYW1pbHk9InNhbnMtc2VyaWYiIGZvbnQtc2l6ZT0iMTMiIGxlbmd0aEFkanVzdD0ic3BhY2luZyIgdGV4dExlbmd0aD0iMTcyIiB4PSIyODYuNSIgeT0iMjY2LjkxNDEiPlNlbmQgcmVxdWVzdCBmb3IgYXBwcm92YWw8L3RleHQ+PGxpbmUgc3R5bGU9InN0cm9rZTojMTgxODE4O3N0cm9rZS13aWR0aDoxLjA7IiB4MT0iNDgwLjUiIHgyPSI1MjIuNSIgeTE9IjI5OC40NTMxIiB5Mj0iMjk4LjQ1MzEiLz48bGluZSBzdHlsZT0ic3Ryb2tlOiMxODE4MTg7c3Ryb2tlLXdpZHRoOjEuMDsiIHgxPSI1MjIuNSIgeDI9IjUyMi41IiB5MT0iMjk4LjQ1MzEiIHkyPSIzMTEuNDUzMSIvPjxsaW5lIHN0eWxlPSJzdHJva2U6IzE4MTgxODtzdHJva2Utd2lkdGg6MS4wOyIgeDE9IjQ4MS41IiB4Mj0iNTIyLjUiIHkxPSIzMTEuNDUzMSIgeTI9IjMxMS40NTMxIi8+PHBvbHlnb24gZmlsbD0iIzE4MTgxOCIgcG9pbnRzPSI0OTEuNSwzMDcuNDUzMSw0ODEuNSwzMTEuNDUzMSw0OTEuNSwzMTUuNDUzMSw0ODcuNSwzMTEuNDUzMSIgc3R5bGU9InN0cm9rZTojMTgxODE4O3N0cm9rZS13aWR0aDoxLjA7Ii8+PHRleHQgZmlsbD0iIzAwMDAwMCIgZm9udC1mYW1pbHk9InNhbnMtc2VyaWYiIGZvbnQtc2l6ZT0iMTMiIGxlbmd0aEFkanVzdD0ic3BhY2luZyIgdGV4dExlbmd0aD0iOTUiIHg9IjQ4Ny41IiB5PSIyOTQuODI4MSI+UmV2aWV3IHJlcXVlc3Q8L3RleHQ+PHBvbHlnb24gZmlsbD0iIzE4MTgxOCIgcG9pbnRzPSIyOTAuNSwzMzUuMzY3MiwyODAuNSwzMzkuMzY3MiwyOTAuNSwzNDMuMzY3MiwyODYuNSwzMzkuMzY3MiIgc3R5bGU9InN0cm9rZTojMTgxODE4O3N0cm9rZS13aWR0aDoxLjA7Ii8+PGxpbmUgc3R5bGU9InN0cm9rZTojMTgxODE4O3N0cm9rZS13aWR0aDoxLjA7IiB4MT0iMjg0LjUiIHgyPSI0NzQuNSIgeTE9IjMzOS4zNjcyIiB5Mj0iMzM5LjM2NzIiLz48dGV4dCBmaWxsPSIjMDAwMDAwIiBmb250LWZhbWlseT0ic2Fucy1zZXJpZiIgZm9udC1zaXplPSIxMyIgbGVuZ3RoQWRqdXN0PSJzcGFjaW5nIiB0ZXh0TGVuZ3RoPSIxNTIiIHg9IjI5Ni41IiB5PSIzMzUuNzQyMiI+QXBwcm92ZS9SZWplY3QgcmVxdWVzdDwvdGV4dD48cG9seWdvbiBmaWxsPSIjMTgxODE4IiBwb2ludHM9IjQ3LjUsMzYzLjI4MTMsMzcuNSwzNjcuMjgxMyw0Ny41LDM3MS4yODEzLDQzLjUsMzY3LjI4MTMiIHN0eWxlPSJzdHJva2U6IzE4MTgxODtzdHJva2Utd2lkdGg6MS4wOyIvPjxsaW5lIHN0eWxlPSJzdHJva2U6IzE4MTgxODtzdHJva2Utd2lkdGg6MS4wOyIgeDE9IjQxLjUiIHgyPSIyNzMuNSIgeTE9IjM2Ny4yODEzIiB5Mj0iMzY3LjI4MTMiLz48dGV4dCBmaWxsPSIjMDAwMDAwIiBmb250LWZhbWlseT0ic2Fucy1zZXJpZiIgZm9udC1zaXplPSIxMyIgbGVuZ3RoQWRqdXN0PSJzcGFjaW5nIiB0ZXh0TGVuZ3RoPSIxMDAiIHg9IjUzLjUiIHk9IjM2My42NTYzIj5Ob3RpZnkgZGVjaXNpb248L3RleHQ+PCEtLVNSQz1bVFAwekp5R20zOFJ0XzBoaFRpSlUwT2RYOTFadUswX1RSaEtFQ2NlLUk0bkZfVlNxcm9HaktBT2FvbEZPaG9xaTB5N0gtQzVESEQzSXZuVDVZVjM2WGsxNVF3TW00blNnZUptNnVPdXpNZTczR21qRlFGNlQzQ3RGcW5JNXAwNG12a2lfU0JXWS1RdktSTnZwYnhxNjdZcUJlbjE4b2s2cVhoMGFJdDV1SjMtdm5OOGFqekhmdTNLdXVtTjRtSG9CR2Q2WDlxNFV1YmdaSmhNTnVSWmh6bEpOTlpDS3p1bTN6dWR2aFF6ZWRoLTE0emMtU2RoVUROZVZ0OFozY2hGaUFmeV96OVA2ZmFsVHBtT2ZPVXdselVZc2ZHX2dmOUFSSUtoemxNSy1FczR6cEdEcTdEZFBoUlJXdG0wMF0tLT48L2c+PC9zdmc+;clipPath=inset(2.12% 0% 17.8% 0%);" vertex="1" parent="SFfnI7pAYoO_aoFmOA_5-1">
            <mxGeometry x="50" y="60" width="748.94" height="471.83220000000006" as="geometry" />
          </mxCell>
        </UserObject>
      </root>
    </mxGraphModel>
  </diagram>
  <diagram id="zqr3rnljN7ZrIQ-cC0hx" name="Page-3">
    <mxGraphModel dx="1434" dy="-405" grid="1" gridSize="10" guides="1" tooltips="1" connect="1" arrows="1" fold="1" page="1" pageScale="1" pageWidth="850" pageHeight="1100" math="0" shadow="0">
      <root>
        <mxCell id="0" />
        <mxCell id="1" parent="0" />
        <UserObject label="" plantUmlData="{&quot;data&quot;:&quot;@startuml\ntitle HR Manager Updates Employee Information\n\nactor \&quot;HR Manager\&quot; as HRM\nparticipant \&quot;HR Management System\&quot; as System\nparticipant \&quot;Employee Database\&quot; as DB\n\nHRM -&gt; System: Log in to HRMS\nactivate HRM\nactivate System\nSystem -&gt; HRM: Provide access to employee information\ndeactivate System\n\nHRM -&gt; System: Select employee to update\nactivate System\nSystem -&gt; DB: Retrieve employee data\nactivate DB\ndeactivate DB\n\nHRM -&gt; System: Edit employee information\nactivate System\nSystem -&gt; DB: Update employee record\nactivate DB\ndeactivate DB\n\nSystem -&gt; HRM: Confirmation of update\ndeactivate System\ndeactivate HRM\n\n@enduml\n&quot;,&quot;format&quot;:&quot;svg&quot;}" id="t3zI2XflhFJUBHrFg8L0-1">
          <mxCell style="shape=image;noLabel=1;verticalAlign=top;aspect=fixed;imageAspect=0;image=data:image/svg+xml,PD94bWwgdmVyc2lvbj0iMS4wIiBlbmNvZGluZz0idXMtYXNjaWkiIHN0YW5kYWxvbmU9Im5vIj8+PHN2ZyB4bWxucz0iaHR0cDovL3d3dy53My5vcmcvMjAwMC9zdmciIHhtbG5zOnhsaW5rPSJodHRwOi8vd3d3LnczLm9yZy8xOTk5L3hsaW5rIiBjb250ZW50U3R5bGVUeXBlPSJ0ZXh0L2NzcyIgaGVpZ2h0PSI0NzBweCIgcHJlc2VydmVBc3BlY3RSYXRpbz0ibm9uZSIgc3R5bGU9IndpZHRoOjU5MnB4O2hlaWdodDo0NzBweDtiYWNrZ3JvdW5kOiNGRkZGRkY7IiB2ZXJzaW9uPSIxLjEiIHZpZXdCb3g9IjAgMCA1OTIgNDcwIiB3aWR0aD0iNTkycHgiIHpvb21BbmRQYW49Im1hZ25pZnkiPjxkZWZzLz48Zz48dGV4dCBmaWxsPSIjMDAwMDAwIiBmb250LWZhbWlseT0ic2Fucy1zZXJpZiIgZm9udC1zaXplPSIxNCIgZm9udC13ZWlnaHQ9ImJvbGQiIGxlbmd0aEFkanVzdD0ic3BhY2luZyIgdGV4dExlbmd0aD0iMjc1IiB4PSIxNTcuNSIgeT0iMjguMjM0NCI+SFIgTWFuYWdlciBVcGRhdGVzIEVtcGxveWVlIEluZm9ybWF0aW9uPC90ZXh0PjxyZWN0IGZpbGw9IiNGRkZGRkYiIGhlaWdodD0iMjI3LjQ4NDQiIHN0eWxlPSJzdHJva2U6IzE4MTgxODtzdHJva2Utd2lkdGg6MS4wOyIgd2lkdGg9IjEwIiB4PSIzOCIgeT0iMTQ1Ljg4MjgiLz48cmVjdCBmaWxsPSIjRkZGRkZGIiBoZWlnaHQ9IjI3LjkxNDEiIHN0eWxlPSJzdHJva2U6IzE4MTgxODtzdHJva2Utd2lkdGg6MS4wOyIgd2lkdGg9IjEwIiB4PSIzMjkiIHk9IjE0NS44ODI4Ii8+PHJlY3QgZmlsbD0iI0ZGRkZGRiIgaGVpZ2h0PSIxODAuNjU2MyIgc3R5bGU9InN0cm9rZTojMTgxODE4O3N0cm9rZS13aWR0aDoxLjA7IiB3aWR0aD0iMTAiIHg9IjMyOSIgeT0iMjAxLjcxMDkiLz48cmVjdCBmaWxsPSIjRkZGRkZGIiBoZWlnaHQ9Ijg1LjgyODEiIHN0eWxlPSJzdHJva2U6IzE4MTgxODtzdHJva2Utd2lkdGg6MS4wOyIgd2lkdGg9IjEwIiB4PSIzMzQiIHk9IjI4Ny41MzkxIi8+PHJlY3QgZmlsbD0iI0ZGRkZGRiIgaGVpZ2h0PSIzMCIgc3R5bGU9InN0cm9rZTojMTgxODE4O3N0cm9rZS13aWR0aDoxLjA7IiB3aWR0aD0iMTAiIHg9IjUxNCIgeT0iMjI5LjYyNSIvPjxyZWN0IGZpbGw9IiNGRkZGRkYiIGhlaWdodD0iMzAiIHN0eWxlPSJzdHJva2U6IzE4MTgxODtzdHJva2Utd2lkdGg6MS4wOyIgd2lkdGg9IjEwIiB4PSI1MTQiIHk9IjMxNS40NTMxIi8+PGxpbmUgc3R5bGU9InN0cm9rZTojMTgxODE4O3N0cm9rZS13aWR0aDowLjU7c3Ryb2tlLWRhc2hhcnJheTo1LjAsNS4wOyIgeDE9IjQzIiB4Mj0iNDMiIHkxPSIxMTUuOTY4OCIgeTI9IjM5MS4zNjcyIi8+PGxpbmUgc3R5bGU9InN0cm9rZTojMTgxODE4O3N0cm9rZS13aWR0aDowLjU7c3Ryb2tlLWRhc2hhcnJheTo1LjAsNS4wOyIgeDE9IjMzNCIgeDI9IjMzNCIgeTE9IjExNS45Njg4IiB5Mj0iMzkxLjM2NzIiLz48bGluZSBzdHlsZT0ic3Ryb2tlOiMxODE4MTg7c3Ryb2tlLXdpZHRoOjAuNTtzdHJva2UtZGFzaGFycmF5OjUuMCw1LjA7IiB4MT0iNTE5IiB4Mj0iNTE5IiB5MT0iMTE1Ljk2ODgiIHkyPSIzOTEuMzY3MiIvPjx0ZXh0IGZpbGw9IiMwMDAwMDAiIGZvbnQtZmFtaWx5PSJzYW5zLXNlcmlmIiBmb250LXNpemU9IjE0IiBsZW5ndGhBZGp1c3Q9InNwYWNpbmciIHRleHRMZW5ndGg9IjcwIiB4PSI1IiB5PSIxMTQuMjE4OCI+SFIgTWFuYWdlcjwvdGV4dD48ZWxsaXBzZSBjeD0iNDMiIGN5PSI0OS40ODQ0IiBmaWxsPSIjRTJFMkYwIiByeD0iOCIgcnk9IjgiIHN0eWxlPSJzdHJva2U6IzE4MTgxODtzdHJva2Utd2lkdGg6MC41OyIvPjxwYXRoIGQ9Ik00Myw1Ny40ODQ0IEw0Myw4NC40ODQ0IE0zMCw2NS40ODQ0IEw1Niw2NS40ODQ0IE00Myw4NC40ODQ0IEwzMCw5OS40ODQ0IE00Myw4NC40ODQ0IEw1Niw5OS40ODQ0ICIgZmlsbD0ibm9uZSIgc3R5bGU9InN0cm9rZTojMTgxODE4O3N0cm9rZS13aWR0aDowLjU7Ii8+PHRleHQgZmlsbD0iIzAwMDAwMCIgZm9udC1mYW1pbHk9InNhbnMtc2VyaWYiIGZvbnQtc2l6ZT0iMTQiIGxlbmd0aEFkanVzdD0ic3BhY2luZyIgdGV4dExlbmd0aD0iNzAiIHg9IjUiIHk9IjQwMy42MDE2Ij5IUiBNYW5hZ2VyPC90ZXh0PjxlbGxpcHNlIGN4PSI0MyIgY3k9IjQxMy44NTE2IiBmaWxsPSIjRTJFMkYwIiByeD0iOCIgcnk9IjgiIHN0eWxlPSJzdHJva2U6IzE4MTgxODtzdHJva2Utd2lkdGg6MC41OyIvPjxwYXRoIGQ9Ik00Myw0MjEuODUxNiBMNDMsNDQ4Ljg1MTYgTTMwLDQyOS44NTE2IEw1Niw0MjkuODUxNiBNNDMsNDQ4Ljg1MTYgTDMwLDQ2My44NTE2IE00Myw0NDguODUxNiBMNTYsNDYzLjg1MTYgIiBmaWxsPSJub25lIiBzdHlsZT0ic3Ryb2tlOiMxODE4MTg7c3Ryb2tlLXdpZHRoOjAuNTsiLz48cmVjdCBmaWxsPSIjRTJFMkYwIiBoZWlnaHQ9IjI4Ljk4NDQiIHJ4PSIyLjUiIHJ5PSIyLjUiIHN0eWxlPSJzdHJva2U6IzE4MTgxODtzdHJva2Utd2lkdGg6MC41OyIgd2lkdGg9IjE1NiIgeD0iMjU2IiB5PSI4NS45ODQ0Ii8+PHRleHQgZmlsbD0iIzAwMDAwMCIgZm9udC1mYW1pbHk9InNhbnMtc2VyaWYiIGZvbnQtc2l6ZT0iMTQiIGxlbmd0aEFkanVzdD0ic3BhY2luZyIgdGV4dExlbmd0aD0iMTQyIiB4PSIyNjMiIHk9IjEwNi4yMTg4Ij5IUiBNYW5hZ2VtZW50IFN5c3RlbTwvdGV4dD48cmVjdCBmaWxsPSIjRTJFMkYwIiBoZWlnaHQ9IjI4Ljk4NDQiIHJ4PSIyLjUiIHJ5PSIyLjUiIHN0eWxlPSJzdHJva2U6IzE4MTgxODtzdHJva2Utd2lkdGg6MC41OyIgd2lkdGg9IjE1NiIgeD0iMjU2IiB5PSIzOTAuMzY3MiIvPjx0ZXh0IGZpbGw9IiMwMDAwMDAiIGZvbnQtZmFtaWx5PSJzYW5zLXNlcmlmIiBmb250LXNpemU9IjE0IiBsZW5ndGhBZGp1c3Q9InNwYWNpbmciIHRleHRMZW5ndGg9IjE0MiIgeD0iMjYzIiB5PSI0MTAuNjAxNiI+SFIgTWFuYWdlbWVudCBTeXN0ZW08L3RleHQ+PHJlY3QgZmlsbD0iI0UyRTJGMCIgaGVpZ2h0PSIyOC45ODQ0IiByeD0iMi41IiByeT0iMi41IiBzdHlsZT0ic3Ryb2tlOiMxODE4MTg7c3Ryb2tlLXdpZHRoOjAuNTsiIHdpZHRoPSIxMzQiIHg9IjQ1MiIgeT0iODUuOTg0NCIvPjx0ZXh0IGZpbGw9IiMwMDAwMDAiIGZvbnQtZmFtaWx5PSJzYW5zLXNlcmlmIiBmb250LXNpemU9IjE0IiBsZW5ndGhBZGp1c3Q9InNwYWNpbmciIHRleHRMZW5ndGg9IjEyMCIgeD0iNDU5IiB5PSIxMDYuMjE4OCI+RW1wbG95ZWUgRGF0YWJhc2U8L3RleHQ+PHJlY3QgZmlsbD0iI0UyRTJGMCIgaGVpZ2h0PSIyOC45ODQ0IiByeD0iMi41IiByeT0iMi41IiBzdHlsZT0ic3Ryb2tlOiMxODE4MTg7c3Ryb2tlLXdpZHRoOjAuNTsiIHdpZHRoPSIxMzQiIHg9IjQ1MiIgeT0iMzkwLjM2NzIiLz48dGV4dCBmaWxsPSIjMDAwMDAwIiBmb250LWZhbWlseT0ic2Fucy1zZXJpZiIgZm9udC1zaXplPSIxNCIgbGVuZ3RoQWRqdXN0PSJzcGFjaW5nIiB0ZXh0TGVuZ3RoPSIxMjAiIHg9IjQ1OSIgeT0iNDEwLjYwMTYiPkVtcGxveWVlIERhdGFiYXNlPC90ZXh0PjxyZWN0IGZpbGw9IiNGRkZGRkYiIGhlaWdodD0iMjI3LjQ4NDQiIHN0eWxlPSJzdHJva2U6IzE4MTgxODtzdHJva2Utd2lkdGg6MS4wOyIgd2lkdGg9IjEwIiB4PSIzOCIgeT0iMTQ1Ljg4MjgiLz48cmVjdCBmaWxsPSIjRkZGRkZGIiBoZWlnaHQ9IjI3LjkxNDEiIHN0eWxlPSJzdHJva2U6IzE4MTgxODtzdHJva2Utd2lkdGg6MS4wOyIgd2lkdGg9IjEwIiB4PSIzMjkiIHk9IjE0NS44ODI4Ii8+PHJlY3QgZmlsbD0iI0ZGRkZGRiIgaGVpZ2h0PSIxODAuNjU2MyIgc3R5bGU9InN0cm9rZTojMTgxODE4O3N0cm9rZS13aWR0aDoxLjA7IiB3aWR0aD0iMTAiIHg9IjMyOSIgeT0iMjAxLjcxMDkiLz48cmVjdCBmaWxsPSIjRkZGRkZGIiBoZWlnaHQ9Ijg1LjgyODEiIHN0eWxlPSJzdHJva2U6IzE4MTgxODtzdHJva2Utd2lkdGg6MS4wOyIgd2lkdGg9IjEwIiB4PSIzMzQiIHk9IjI4Ny41MzkxIi8+PHJlY3QgZmlsbD0iI0ZGRkZGRiIgaGVpZ2h0PSIzMCIgc3R5bGU9InN0cm9rZTojMTgxODE4O3N0cm9rZS13aWR0aDoxLjA7IiB3aWR0aD0iMTAiIHg9IjUxNCIgeT0iMjI5LjYyNSIvPjxyZWN0IGZpbGw9IiNGRkZGRkYiIGhlaWdodD0iMzAiIHN0eWxlPSJzdHJva2U6IzE4MTgxODtzdHJva2Utd2lkdGg6MS4wOyIgd2lkdGg9IjEwIiB4PSI1MTQiIHk9IjMxNS40NTMxIi8+PHBvbHlnb24gZmlsbD0iIzE4MTgxOCIgcG9pbnRzPSIzMTcsMTQxLjg4MjgsMzI3LDE0NS44ODI4LDMxNywxNDkuODgyOCwzMjEsMTQ1Ljg4MjgiIHN0eWxlPSJzdHJva2U6IzE4MTgxODtzdHJva2Utd2lkdGg6MS4wOyIvPjxsaW5lIHN0eWxlPSJzdHJva2U6IzE4MTgxODtzdHJva2Utd2lkdGg6MS4wOyIgeDE9IjQ4IiB4Mj0iMzIzIiB5MT0iMTQ1Ljg4MjgiIHkyPSIxNDUuODgyOCIvPjx0ZXh0IGZpbGw9IiMwMDAwMDAiIGZvbnQtZmFtaWx5PSJzYW5zLXNlcmlmIiBmb250LXNpemU9IjEzIiBsZW5ndGhBZGp1c3Q9InNwYWNpbmciIHRleHRMZW5ndGg9Ijk2IiB4PSI1NSIgeT0iMTQyLjI1NzgiPkxvZyBpbiB0byBIUk1TPC90ZXh0Pjxwb2x5Z29uIGZpbGw9IiMxODE4MTgiIHBvaW50cz0iNTksMTY5Ljc5NjksNDksMTczLjc5NjksNTksMTc3Ljc5NjksNTUsMTczLjc5NjkiIHN0eWxlPSJzdHJva2U6IzE4MTgxODtzdHJva2Utd2lkdGg6MS4wOyIvPjxsaW5lIHN0eWxlPSJzdHJva2U6IzE4MTgxODtzdHJva2Utd2lkdGg6MS4wOyIgeDE9IjUzIiB4Mj0iMzMzIiB5MT0iMTczLjc5NjkiIHkyPSIxNzMuNzk2OSIvPjx0ZXh0IGZpbGw9IiMwMDAwMDAiIGZvbnQtZmFtaWx5PSJzYW5zLXNlcmlmIiBmb250LXNpemU9IjEzIiBsZW5ndGhBZGp1c3Q9InNwYWNpbmciIHRleHRMZW5ndGg9IjI1NyIgeD0iNjUiIHk9IjE3MC4xNzE5Ij5Qcm92aWRlIGFjY2VzcyB0byBlbXBsb3llZSBpbmZvcm1hdGlvbjwvdGV4dD48cG9seWdvbiBmaWxsPSIjMTgxODE4IiBwb2ludHM9IjMxNywxOTcuNzEwOSwzMjcsMjAxLjcxMDksMzE3LDIwNS43MTA5LDMyMSwyMDEuNzEwOSIgc3R5bGU9InN0cm9rZTojMTgxODE4O3N0cm9rZS13aWR0aDoxLjA7Ii8+PGxpbmUgc3R5bGU9InN0cm9rZTojMTgxODE4O3N0cm9rZS13aWR0aDoxLjA7IiB4MT0iNDgiIHgyPSIzMjMiIHkxPSIyMDEuNzEwOSIgeTI9IjIwMS43MTA5Ii8+PHRleHQgZmlsbD0iIzAwMDAwMCIgZm9udC1mYW1pbHk9InNhbnMtc2VyaWYiIGZvbnQtc2l6ZT0iMTMiIGxlbmd0aEFkanVzdD0ic3BhY2luZyIgdGV4dExlbmd0aD0iMTY5IiB4PSI1NSIgeT0iMTk4LjA4NTkiPlNlbGVjdCBlbXBsb3llZSB0byB1cGRhdGU8L3RleHQ+PHBvbHlnb24gZmlsbD0iIzE4MTgxOCIgcG9pbnRzPSI1MDIsMjI1LjYyNSw1MTIsMjI5LjYyNSw1MDIsMjMzLjYyNSw1MDYsMjI5LjYyNSIgc3R5bGU9InN0cm9rZTojMTgxODE4O3N0cm9rZS13aWR0aDoxLjA7Ii8+PGxpbmUgc3R5bGU9InN0cm9rZTojMTgxODE4O3N0cm9rZS13aWR0aDoxLjA7IiB4MT0iMzM5IiB4Mj0iNTA4IiB5MT0iMjI5LjYyNSIgeTI9IjIyOS42MjUiLz48dGV4dCBmaWxsPSIjMDAwMDAwIiBmb250LWZhbWlseT0ic2Fucy1zZXJpZiIgZm9udC1zaXplPSIxMyIgbGVuZ3RoQWRqdXN0PSJzcGFjaW5nIiB0ZXh0TGVuZ3RoPSIxNDkiIHg9IjM0NiIgeT0iMjI2Ij5SZXRyaWV2ZSBlbXBsb3llZSBkYXRhPC90ZXh0Pjxwb2x5Z29uIGZpbGw9IiMxODE4MTgiIHBvaW50cz0iMzIyLDI4My41MzkxLDMzMiwyODcuNTM5MSwzMjIsMjkxLjUzOTEsMzI2LDI4Ny41MzkxIiBzdHlsZT0ic3Ryb2tlOiMxODE4MTg7c3Ryb2tlLXdpZHRoOjEuMDsiLz48bGluZSBzdHlsZT0ic3Ryb2tlOiMxODE4MTg7c3Ryb2tlLXdpZHRoOjEuMDsiIHgxPSI0OCIgeDI9IjMyOCIgeTE9IjI4Ny41MzkxIiB5Mj0iMjg3LjUzOTEiLz48dGV4dCBmaWxsPSIjMDAwMDAwIiBmb250LWZhbWlseT0ic2Fucy1zZXJpZiIgZm9udC1zaXplPSIxMyIgbGVuZ3RoQWRqdXN0PSJzcGFjaW5nIiB0ZXh0TGVuZ3RoPSIxNjYiIHg9IjU1IiB5PSIyODMuOTE0MSI+RWRpdCBlbXBsb3llZSBpbmZvcm1hdGlvbjwvdGV4dD48cG9seWdvbiBmaWxsPSIjMTgxODE4IiBwb2ludHM9IjUwMiwzMTEuNDUzMSw1MTIsMzE1LjQ1MzEsNTAyLDMxOS40NTMxLDUwNiwzMTUuNDUzMSIgc3R5bGU9InN0cm9rZTojMTgxODE4O3N0cm9rZS13aWR0aDoxLjA7Ii8+PGxpbmUgc3R5bGU9InN0cm9rZTojMTgxODE4O3N0cm9rZS13aWR0aDoxLjA7IiB4MT0iMzQ0IiB4Mj0iNTA4IiB5MT0iMzE1LjQ1MzEiIHkyPSIzMTUuNDUzMSIvPjx0ZXh0IGZpbGw9IiMwMDAwMDAiIGZvbnQtZmFtaWx5PSJzYW5zLXNlcmlmIiBmb250LXNpemU9IjEzIiBsZW5ndGhBZGp1c3Q9InNwYWNpbmciIHRleHRMZW5ndGg9IjE1MSIgeD0iMzUxIiB5PSIzMTEuODI4MSI+VXBkYXRlIGVtcGxveWVlIHJlY29yZDwvdGV4dD48cG9seWdvbiBmaWxsPSIjMTgxODE4IiBwb2ludHM9IjU0LDM2OS4zNjcyLDQ0LDM3My4zNjcyLDU0LDM3Ny4zNjcyLDUwLDM3My4zNjcyIiBzdHlsZT0ic3Ryb2tlOiMxODE4MTg7c3Ryb2tlLXdpZHRoOjEuMDsiLz48bGluZSBzdHlsZT0ic3Ryb2tlOiMxODE4MTg7c3Ryb2tlLXdpZHRoOjEuMDsiIHgxPSI0OCIgeDI9IjMyOCIgeTE9IjM3My4zNjcyIiB5Mj0iMzczLjM2NzIiLz48dGV4dCBmaWxsPSIjMDAwMDAwIiBmb250LWZhbWlseT0ic2Fucy1zZXJpZiIgZm9udC1zaXplPSIxMyIgbGVuZ3RoQWRqdXN0PSJzcGFjaW5nIiB0ZXh0TGVuZ3RoPSIxNDciIHg9IjYwIiB5PSIzNjkuNzQyMiI+Q29uZmlybWF0aW9uIG9mIHVwZGF0ZTwvdGV4dD48IS0tU1JDPVtWUDdGUWlDbTM4VmxWV2hIVXJ5V1huc3c1M1BPT0pKaTBKSFJBT0I0MmhPUXdEbE4tVEN3b3FmRVlNRHotZHZJYkJLWC0zWjMySnJVQUMxRnZyMGZtaDdqNmhhSG1RVWw5UkllQkR1T2oyZTFUaGItMW5XSlZaOFQxY05CN05mVHRCVUtaaktqQWhMWnZWSndqX1hmQWI3bjVvRURiVU4xY0RHTnpjeXBMQzJOTjgwemcwcDJRaVoyVlNld3dmLTdzSjB6MVpoVDVsMFRmNlQ3V0RQSVo0Q0JVYlh2Q1AtWlRQenJYZWVRaWZoZnJFYXdSY21aR05hZXU0bVFjN2hBUDg4bUdzZFNYVnA1eTRWNy1aaHFqZFp3ZHZhQ1AyTXVCVjVnVFVfWVF2dlQ4RkxadEYtaE1kbjl1MXEwXS0tPjwvZz48L3N2Zz4=;clipPath=inset(0% 0% 17.23% 0%);" vertex="1" parent="1">
            <mxGeometry x="80" y="1550" width="818.72" height="537.6261333333334" as="geometry" />
          </mxCell>
        </UserObject>
        <mxCell id="t3zI2XflhFJUBHrFg8L0-2" value="&lt;span style=&quot;font-family: Roboto, sans-serif; font-size: 12.6667px; font-weight: 700; white-space-collapse: preserve;&quot;&gt;UC-HR-02&lt;/span&gt;" style="shape=umlFrame;whiteSpace=wrap;html=1;pointerEvents=0;recursiveResize=0;container=1;collapsible=0;width=160;fillColor=#e1d5e7;strokeColor=#9673a6;" vertex="1" parent="1">
          <mxGeometry x="20" y="1500" width="970" height="680" as="geometry" />
        </mxCell>
      </root>
    </mxGraphModel>
  </diagram>
  <diagram id="sUmqu6u_rXpsLnCIeDmC" name="Page-4">
    <mxGraphModel dx="1434" dy="695" grid="1" gridSize="10" guides="1" tooltips="1" connect="1" arrows="1" fold="1" page="1" pageScale="1" pageWidth="850" pageHeight="1100" math="0" shadow="0">
      <root>
        <mxCell id="0" />
        <mxCell id="1" parent="0" />
        <UserObject label="" plantUmlData="{&quot;data&quot;:&quot;@startuml\ntitle HR Professional Conducts Performance Evaluation\n\nactor \&quot;HR Professional\&quot; as HRP\nparticipant \&quot;HR Management System\&quot; as System\nparticipant \&quot;Employee Database\&quot; as DB\n\nHRP -&gt; System: Log in to HRMS\nactivate HRP\nactivate System\nSystem -&gt; HRP: Provide access to performance evaluation module\ndeactivate System\n\nHRP -&gt; System: Select employee for evaluation\nactivate System\nSystem -&gt; DB: Retrieve employee performance data\nactivate DB\ndeactivate DB\n\nHRP -&gt; System: Conduct performance evaluation\nSystem -&gt; DB: Update performance records\nactivate DB\ndeactivate DB\n\nSystem -&gt; HRP: Confirmation of evaluation completion\ndeactivate System\ndeactivate HRP\n\n@enduml\n&quot;,&quot;format&quot;:&quot;svg&quot;}" id="PjnFxwas7UQI-JIOHhDp-1">
          <mxCell style="shape=image;noLabel=1;verticalAlign=top;aspect=fixed;imageAspect=0;image=data:image/svg+xml,PD94bWwgdmVyc2lvbj0iMS4wIiBlbmNvZGluZz0idXMtYXNjaWkiIHN0YW5kYWxvbmU9Im5vIj8+PHN2ZyB4bWxucz0iaHR0cDovL3d3dy53My5vcmcvMjAwMC9zdmciIHhtbG5zOnhsaW5rPSJodHRwOi8vd3d3LnczLm9yZy8xOTk5L3hsaW5rIiBjb250ZW50U3R5bGVUeXBlPSJ0ZXh0L2NzcyIgaGVpZ2h0PSI0NzBweCIgcHJlc2VydmVBc3BlY3RSYXRpbz0ibm9uZSIgc3R5bGU9IndpZHRoOjc0N3B4O2hlaWdodDo0NzBweDtiYWNrZ3JvdW5kOiNGRkZGRkY7IiB2ZXJzaW9uPSIxLjEiIHZpZXdCb3g9IjAgMCA3NDcgNDcwIiB3aWR0aD0iNzQ3cHgiIHpvb21BbmRQYW49Im1hZ25pZnkiPjxkZWZzLz48Zz48dGV4dCBmaWxsPSIjMDAwMDAwIiBmb250LWZhbWlseT0ic2Fucy1zZXJpZiIgZm9udC1zaXplPSIxNCIgZm9udC13ZWlnaHQ9ImJvbGQiIGxlbmd0aEFkanVzdD0ic3BhY2luZyIgdGV4dExlbmd0aD0iMzMwIiB4PSIyMDcuNzUiIHk9IjI4LjIzNDQiPkhSIFByb2Zlc3Npb25hbCBDb25kdWN0cyBQZXJmb3JtYW5jZSBFdmFsdWF0aW9uPC90ZXh0PjxyZWN0IGZpbGw9IiNGRkZGRkYiIGhlaWdodD0iMjI3LjQ4NDQiIHN0eWxlPSJzdHJva2U6IzE4MTgxODtzdHJva2Utd2lkdGg6MS4wOyIgd2lkdGg9IjEwIiB4PSI1NS41IiB5PSIxNDUuODgyOCIvPjxyZWN0IGZpbGw9IiNGRkZGRkYiIGhlaWdodD0iMjcuOTE0MSIgc3R5bGU9InN0cm9rZTojMTgxODE4O3N0cm9rZS13aWR0aDoxLjA7IiB3aWR0aD0iMTAiIHg9IjQwOS41IiB5PSIxNDUuODgyOCIvPjxyZWN0IGZpbGw9IiNGRkZGRkYiIGhlaWdodD0iMTcxLjY1NjMiIHN0eWxlPSJzdHJva2U6IzE4MTgxODtzdHJva2Utd2lkdGg6MS4wOyIgd2lkdGg9IjEwIiB4PSI0MDkuNSIgeT0iMjAxLjcxMDkiLz48cmVjdCBmaWxsPSIjRkZGRkZGIiBoZWlnaHQ9IjMwIiBzdHlsZT0ic3Ryb2tlOiMxODE4MTg7c3Ryb2tlLXdpZHRoOjEuMDsiIHdpZHRoPSIxMCIgeD0iNjY5LjUiIHk9IjIyOS42MjUiLz48cmVjdCBmaWxsPSIjRkZGRkZGIiBoZWlnaHQ9IjMwIiBzdHlsZT0ic3Ryb2tlOiMxODE4MTg7c3Ryb2tlLXdpZHRoOjEuMDsiIHdpZHRoPSIxMCIgeD0iNjY5LjUiIHk9IjMxNS40NTMxIi8+PGxpbmUgc3R5bGU9InN0cm9rZTojMTgxODE4O3N0cm9rZS13aWR0aDowLjU7c3Ryb2tlLWRhc2hhcnJheTo1LjAsNS4wOyIgeDE9IjYwIiB4Mj0iNjAiIHkxPSIxMTUuOTY4OCIgeTI9IjM5MS4zNjcyIi8+PGxpbmUgc3R5bGU9InN0cm9rZTojMTgxODE4O3N0cm9rZS13aWR0aDowLjU7c3Ryb2tlLWRhc2hhcnJheTo1LjAsNS4wOyIgeDE9IjQxNC41IiB4Mj0iNDE0LjUiIHkxPSIxMTUuOTY4OCIgeTI9IjM5MS4zNjcyIi8+PGxpbmUgc3R5bGU9InN0cm9rZTojMTgxODE4O3N0cm9rZS13aWR0aDowLjU7c3Ryb2tlLWRhc2hhcnJheTo1LjAsNS4wOyIgeDE9IjY3NC41IiB4Mj0iNjc0LjUiIHkxPSIxMTUuOTY4OCIgeTI9IjM5MS4zNjcyIi8+PHRleHQgZmlsbD0iIzAwMDAwMCIgZm9udC1mYW1pbHk9InNhbnMtc2VyaWYiIGZvbnQtc2l6ZT0iMTQiIGxlbmd0aEFkanVzdD0ic3BhY2luZyIgdGV4dExlbmd0aD0iMTA1IiB4PSI1IiB5PSIxMTQuMjE4OCI+SFIgUHJvZmVzc2lvbmFsPC90ZXh0PjxlbGxpcHNlIGN4PSI2MC41IiBjeT0iNDkuNDg0NCIgZmlsbD0iI0UyRTJGMCIgcng9IjgiIHJ5PSI4IiBzdHlsZT0ic3Ryb2tlOiMxODE4MTg7c3Ryb2tlLXdpZHRoOjAuNTsiLz48cGF0aCBkPSJNNjAuNSw1Ny40ODQ0IEw2MC41LDg0LjQ4NDQgTTQ3LjUsNjUuNDg0NCBMNzMuNSw2NS40ODQ0IE02MC41LDg0LjQ4NDQgTDQ3LjUsOTkuNDg0NCBNNjAuNSw4NC40ODQ0IEw3My41LDk5LjQ4NDQgIiBmaWxsPSJub25lIiBzdHlsZT0ic3Ryb2tlOiMxODE4MTg7c3Ryb2tlLXdpZHRoOjAuNTsiLz48dGV4dCBmaWxsPSIjMDAwMDAwIiBmb250LWZhbWlseT0ic2Fucy1zZXJpZiIgZm9udC1zaXplPSIxNCIgbGVuZ3RoQWRqdXN0PSJzcGFjaW5nIiB0ZXh0TGVuZ3RoPSIxMDUiIHg9IjUiIHk9IjQwMy42MDE2Ij5IUiBQcm9mZXNzaW9uYWw8L3RleHQ+PGVsbGlwc2UgY3g9IjYwLjUiIGN5PSI0MTMuODUxNiIgZmlsbD0iI0UyRTJGMCIgcng9IjgiIHJ5PSI4IiBzdHlsZT0ic3Ryb2tlOiMxODE4MTg7c3Ryb2tlLXdpZHRoOjAuNTsiLz48cGF0aCBkPSJNNjAuNSw0MjEuODUxNiBMNjAuNSw0NDguODUxNiBNNDcuNSw0MjkuODUxNiBMNzMuNSw0MjkuODUxNiBNNjAuNSw0NDguODUxNiBMNDcuNSw0NjMuODUxNiBNNjAuNSw0NDguODUxNiBMNzMuNSw0NjMuODUxNiAiIGZpbGw9Im5vbmUiIHN0eWxlPSJzdHJva2U6IzE4MTgxODtzdHJva2Utd2lkdGg6MC41OyIvPjxyZWN0IGZpbGw9IiNFMkUyRjAiIGhlaWdodD0iMjguOTg0NCIgcng9IjIuNSIgcnk9IjIuNSIgc3R5bGU9InN0cm9rZTojMTgxODE4O3N0cm9rZS13aWR0aDowLjU7IiB3aWR0aD0iMTU2IiB4PSIzMzYuNSIgeT0iODUuOTg0NCIvPjx0ZXh0IGZpbGw9IiMwMDAwMDAiIGZvbnQtZmFtaWx5PSJzYW5zLXNlcmlmIiBmb250LXNpemU9IjE0IiBsZW5ndGhBZGp1c3Q9InNwYWNpbmciIHRleHRMZW5ndGg9IjE0MiIgeD0iMzQzLjUiIHk9IjEwNi4yMTg4Ij5IUiBNYW5hZ2VtZW50IFN5c3RlbTwvdGV4dD48cmVjdCBmaWxsPSIjRTJFMkYwIiBoZWlnaHQ9IjI4Ljk4NDQiIHJ4PSIyLjUiIHJ5PSIyLjUiIHN0eWxlPSJzdHJva2U6IzE4MTgxODtzdHJva2Utd2lkdGg6MC41OyIgd2lkdGg9IjE1NiIgeD0iMzM2LjUiIHk9IjM5MC4zNjcyIi8+PHRleHQgZmlsbD0iIzAwMDAwMCIgZm9udC1mYW1pbHk9InNhbnMtc2VyaWYiIGZvbnQtc2l6ZT0iMTQiIGxlbmd0aEFkanVzdD0ic3BhY2luZyIgdGV4dExlbmd0aD0iMTQyIiB4PSIzNDMuNSIgeT0iNDEwLjYwMTYiPkhSIE1hbmFnZW1lbnQgU3lzdGVtPC90ZXh0PjxyZWN0IGZpbGw9IiNFMkUyRjAiIGhlaWdodD0iMjguOTg0NCIgcng9IjIuNSIgcnk9IjIuNSIgc3R5bGU9InN0cm9rZTojMTgxODE4O3N0cm9rZS13aWR0aDowLjU7IiB3aWR0aD0iMTM0IiB4PSI2MDcuNSIgeT0iODUuOTg0NCIvPjx0ZXh0IGZpbGw9IiMwMDAwMDAiIGZvbnQtZmFtaWx5PSJzYW5zLXNlcmlmIiBmb250LXNpemU9IjE0IiBsZW5ndGhBZGp1c3Q9InNwYWNpbmciIHRleHRMZW5ndGg9IjEyMCIgeD0iNjE0LjUiIHk9IjEwNi4yMTg4Ij5FbXBsb3llZSBEYXRhYmFzZTwvdGV4dD48cmVjdCBmaWxsPSIjRTJFMkYwIiBoZWlnaHQ9IjI4Ljk4NDQiIHJ4PSIyLjUiIHJ5PSIyLjUiIHN0eWxlPSJzdHJva2U6IzE4MTgxODtzdHJva2Utd2lkdGg6MC41OyIgd2lkdGg9IjEzNCIgeD0iNjA3LjUiIHk9IjM5MC4zNjcyIi8+PHRleHQgZmlsbD0iIzAwMDAwMCIgZm9udC1mYW1pbHk9InNhbnMtc2VyaWYiIGZvbnQtc2l6ZT0iMTQiIGxlbmd0aEFkanVzdD0ic3BhY2luZyIgdGV4dExlbmd0aD0iMTIwIiB4PSI2MTQuNSIgeT0iNDEwLjYwMTYiPkVtcGxveWVlIERhdGFiYXNlPC90ZXh0PjxyZWN0IGZpbGw9IiNGRkZGRkYiIGhlaWdodD0iMjI3LjQ4NDQiIHN0eWxlPSJzdHJva2U6IzE4MTgxODtzdHJva2Utd2lkdGg6MS4wOyIgd2lkdGg9IjEwIiB4PSI1NS41IiB5PSIxNDUuODgyOCIvPjxyZWN0IGZpbGw9IiNGRkZGRkYiIGhlaWdodD0iMjcuOTE0MSIgc3R5bGU9InN0cm9rZTojMTgxODE4O3N0cm9rZS13aWR0aDoxLjA7IiB3aWR0aD0iMTAiIHg9IjQwOS41IiB5PSIxNDUuODgyOCIvPjxyZWN0IGZpbGw9IiNGRkZGRkYiIGhlaWdodD0iMTcxLjY1NjMiIHN0eWxlPSJzdHJva2U6IzE4MTgxODtzdHJva2Utd2lkdGg6MS4wOyIgd2lkdGg9IjEwIiB4PSI0MDkuNSIgeT0iMjAxLjcxMDkiLz48cmVjdCBmaWxsPSIjRkZGRkZGIiBoZWlnaHQ9IjMwIiBzdHlsZT0ic3Ryb2tlOiMxODE4MTg7c3Ryb2tlLXdpZHRoOjEuMDsiIHdpZHRoPSIxMCIgeD0iNjY5LjUiIHk9IjIyOS42MjUiLz48cmVjdCBmaWxsPSIjRkZGRkZGIiBoZWlnaHQ9IjMwIiBzdHlsZT0ic3Ryb2tlOiMxODE4MTg7c3Ryb2tlLXdpZHRoOjEuMDsiIHdpZHRoPSIxMCIgeD0iNjY5LjUiIHk9IjMxNS40NTMxIi8+PHBvbHlnb24gZmlsbD0iIzE4MTgxOCIgcG9pbnRzPSIzOTcuNSwxNDEuODgyOCw0MDcuNSwxNDUuODgyOCwzOTcuNSwxNDkuODgyOCw0MDEuNSwxNDUuODgyOCIgc3R5bGU9InN0cm9rZTojMTgxODE4O3N0cm9rZS13aWR0aDoxLjA7Ii8+PGxpbmUgc3R5bGU9InN0cm9rZTojMTgxODE4O3N0cm9rZS13aWR0aDoxLjA7IiB4MT0iNjUuNSIgeDI9IjQwMy41IiB5MT0iMTQ1Ljg4MjgiIHkyPSIxNDUuODgyOCIvPjx0ZXh0IGZpbGw9IiMwMDAwMDAiIGZvbnQtZmFtaWx5PSJzYW5zLXNlcmlmIiBmb250LXNpemU9IjEzIiBsZW5ndGhBZGp1c3Q9InNwYWNpbmciIHRleHRMZW5ndGg9Ijk2IiB4PSI3Mi41IiB5PSIxNDIuMjU3OCI+TG9nIGluIHRvIEhSTVM8L3RleHQ+PHBvbHlnb24gZmlsbD0iIzE4MTgxOCIgcG9pbnRzPSI3Ni41LDE2OS43OTY5LDY2LjUsMTczLjc5NjksNzYuNSwxNzcuNzk2OSw3Mi41LDE3My43OTY5IiBzdHlsZT0ic3Ryb2tlOiMxODE4MTg7c3Ryb2tlLXdpZHRoOjEuMDsiLz48bGluZSBzdHlsZT0ic3Ryb2tlOiMxODE4MTg7c3Ryb2tlLXdpZHRoOjEuMDsiIHgxPSI3MC41IiB4Mj0iNDEzLjUiIHkxPSIxNzMuNzk2OSIgeTI9IjE3My43OTY5Ii8+PHRleHQgZmlsbD0iIzAwMDAwMCIgZm9udC1mYW1pbHk9InNhbnMtc2VyaWYiIGZvbnQtc2l6ZT0iMTMiIGxlbmd0aEFkanVzdD0ic3BhY2luZyIgdGV4dExlbmd0aD0iMzIwIiB4PSI4Mi41IiB5PSIxNzAuMTcxOSI+UHJvdmlkZSBhY2Nlc3MgdG8gcGVyZm9ybWFuY2UgZXZhbHVhdGlvbiBtb2R1bGU8L3RleHQ+PHBvbHlnb24gZmlsbD0iIzE4MTgxOCIgcG9pbnRzPSIzOTcuNSwxOTcuNzEwOSw0MDcuNSwyMDEuNzEwOSwzOTcuNSwyMDUuNzEwOSw0MDEuNSwyMDEuNzEwOSIgc3R5bGU9InN0cm9rZTojMTgxODE4O3N0cm9rZS13aWR0aDoxLjA7Ii8+PGxpbmUgc3R5bGU9InN0cm9rZTojMTgxODE4O3N0cm9rZS13aWR0aDoxLjA7IiB4MT0iNjUuNSIgeDI9IjQwMy41IiB5MT0iMjAxLjcxMDkiIHkyPSIyMDEuNzEwOSIvPjx0ZXh0IGZpbGw9IiMwMDAwMDAiIGZvbnQtZmFtaWx5PSJzYW5zLXNlcmlmIiBmb250LXNpemU9IjEzIiBsZW5ndGhBZGp1c3Q9InNwYWNpbmciIHRleHRMZW5ndGg9IjIwMiIgeD0iNzIuNSIgeT0iMTk4LjA4NTkiPlNlbGVjdCBlbXBsb3llZSBmb3IgZXZhbHVhdGlvbjwvdGV4dD48cG9seWdvbiBmaWxsPSIjMTgxODE4IiBwb2ludHM9IjY1Ny41LDIyNS42MjUsNjY3LjUsMjI5LjYyNSw2NTcuNSwyMzMuNjI1LDY2MS41LDIyOS42MjUiIHN0eWxlPSJzdHJva2U6IzE4MTgxODtzdHJva2Utd2lkdGg6MS4wOyIvPjxsaW5lIHN0eWxlPSJzdHJva2U6IzE4MTgxODtzdHJva2Utd2lkdGg6MS4wOyIgeDE9IjQxOS41IiB4Mj0iNjYzLjUiIHkxPSIyMjkuNjI1IiB5Mj0iMjI5LjYyNSIvPjx0ZXh0IGZpbGw9IiMwMDAwMDAiIGZvbnQtZmFtaWx5PSJzYW5zLXNlcmlmIiBmb250LXNpemU9IjEzIiBsZW5ndGhBZGp1c3Q9InNwYWNpbmciIHRleHRMZW5ndGg9IjIzMSIgeD0iNDI2LjUiIHk9IjIyNiI+UmV0cmlldmUgZW1wbG95ZWUgcGVyZm9ybWFuY2UgZGF0YTwvdGV4dD48cG9seWdvbiBmaWxsPSIjMTgxODE4IiBwb2ludHM9IjM5Ny41LDI4My41MzkxLDQwNy41LDI4Ny41MzkxLDM5Ny41LDI5MS41MzkxLDQwMS41LDI4Ny41MzkxIiBzdHlsZT0ic3Ryb2tlOiMxODE4MTg7c3Ryb2tlLXdpZHRoOjEuMDsiLz48bGluZSBzdHlsZT0ic3Ryb2tlOiMxODE4MTg7c3Ryb2tlLXdpZHRoOjEuMDsiIHgxPSI2NS41IiB4Mj0iNDAzLjUiIHkxPSIyODcuNTM5MSIgeTI9IjI4Ny41MzkxIi8+PHRleHQgZmlsbD0iIzAwMDAwMCIgZm9udC1mYW1pbHk9InNhbnMtc2VyaWYiIGZvbnQtc2l6ZT0iMTMiIGxlbmd0aEFkanVzdD0ic3BhY2luZyIgdGV4dExlbmd0aD0iMjA0IiB4PSI3Mi41IiB5PSIyODMuOTE0MSI+Q29uZHVjdCBwZXJmb3JtYW5jZSBldmFsdWF0aW9uPC90ZXh0Pjxwb2x5Z29uIGZpbGw9IiMxODE4MTgiIHBvaW50cz0iNjU3LjUsMzExLjQ1MzEsNjY3LjUsMzE1LjQ1MzEsNjU3LjUsMzE5LjQ1MzEsNjYxLjUsMzE1LjQ1MzEiIHN0eWxlPSJzdHJva2U6IzE4MTgxODtzdHJva2Utd2lkdGg6MS4wOyIvPjxsaW5lIHN0eWxlPSJzdHJva2U6IzE4MTgxODtzdHJva2Utd2lkdGg6MS4wOyIgeDE9IjQxOS41IiB4Mj0iNjYzLjUiIHkxPSIzMTUuNDUzMSIgeTI9IjMxNS40NTMxIi8+PHRleHQgZmlsbD0iIzAwMDAwMCIgZm9udC1mYW1pbHk9InNhbnMtc2VyaWYiIGZvbnQtc2l6ZT0iMTMiIGxlbmd0aEFkanVzdD0ic3BhY2luZyIgdGV4dExlbmd0aD0iMTc5IiB4PSI0MjYuNSIgeT0iMzExLjgyODEiPlVwZGF0ZSBwZXJmb3JtYW5jZSByZWNvcmRzPC90ZXh0Pjxwb2x5Z29uIGZpbGw9IiMxODE4MTgiIHBvaW50cz0iNzEuNSwzNjkuMzY3Miw2MS41LDM3My4zNjcyLDcxLjUsMzc3LjM2NzIsNjcuNSwzNzMuMzY3MiIgc3R5bGU9InN0cm9rZTojMTgxODE4O3N0cm9rZS13aWR0aDoxLjA7Ii8+PGxpbmUgc3R5bGU9InN0cm9rZTojMTgxODE4O3N0cm9rZS13aWR0aDoxLjA7IiB4MT0iNjUuNSIgeDI9IjQxMy41IiB5MT0iMzczLjM2NzIiIHkyPSIzNzMuMzY3MiIvPjx0ZXh0IGZpbGw9IiMwMDAwMDAiIGZvbnQtZmFtaWx5PSJzYW5zLXNlcmlmIiBmb250LXNpemU9IjEzIiBsZW5ndGhBZGp1c3Q9InNwYWNpbmciIHRleHRMZW5ndGg9IjI0NiIgeD0iNzcuNSIgeT0iMzY5Ljc0MjIiPkNvbmZpcm1hdGlvbiBvZiBldmFsdWF0aW9uIGNvbXBsZXRpb248L3RleHQ+PCEtLVNSQz1bVkw0eFJpQ20zRHJyMlk5eEItMlhHLWUwN0hoMFk5NDNpMThUMjkxREd3OER2RlFiNUpUSHRKUUpWa183OV80STJEdkZxNEprQTJORjBtUHV1eTVETFg4cTUza0VGR3dNdTMxWmM1MEtPR25RdUdZeDNNeTdjNUloQ0lENnlUUUZFNFc2N043MDJfTWFuX1FRWEZnQ2w2cl9XV196NkZYQTEzS0FWY0FZWkFwdG5nV2tsQm9rZjBlLSAtMDktMDY0ckZCUEI4My1aS0JRXzdyUTdzeEFtelJMUThpX1U0UTJyY2RvSDY4aW53SnVjekVvY0dDUkhMZDBSZmdMMExlMi1td2pPZVZDYUp4c2x1NEdJRlN0cWU5VG5kRlJtNEQwWVlaSF9yQkItdDN5SlJQcEZlcmphSWNtYW96NmJQdXdSRGpNbnl5aEVaTjVOemNUUDl3OWlfQmwzdWFQcmxXMDBdLS0+PC9nPjwvc3ZnPg==;clipPath=inset(0% 0% 17.2% 0%);" vertex="1" parent="1">
            <mxGeometry x="70" y="830" width="874.15" height="456.01491666666664" as="geometry" />
          </mxCell>
        </UserObject>
        <mxCell id="PjnFxwas7UQI-JIOHhDp-2" value="&lt;span id=&quot;docs-internal-guid-28706360-7fff-eb43-c0f8-68c0dd21f8ab&quot;&gt;&lt;span style=&quot;font-size: 9.5pt; font-family: Roboto, sans-serif; background-color: transparent; font-weight: 700; font-variant-numeric: normal; font-variant-east-asian: normal; font-variant-alternates: normal; font-variant-position: normal; vertical-align: baseline; white-space-collapse: preserve;&quot;&gt;UC-HR-03&lt;/span&gt;&lt;/span&gt;" style="shape=umlFrame;whiteSpace=wrap;html=1;pointerEvents=0;recursiveResize=0;container=1;collapsible=0;width=160;fillColor=#e1d5e7;strokeColor=#9673a6;" vertex="1" parent="1">
          <mxGeometry x="20" y="780" width="950" height="600" as="geometry" />
        </mxCell>
      </root>
    </mxGraphModel>
  </diagram>
  <diagram id="aIJo36mLssMV5Xw7rsaX" name="Page-5">
    <mxGraphModel dx="584" dy="695" grid="1" gridSize="10" guides="1" tooltips="1" connect="1" arrows="1" fold="1" page="1" pageScale="1" pageWidth="850" pageHeight="1100" math="0" shadow="0">
      <root>
        <mxCell id="0" />
        <mxCell id="1" parent="0" />
        <UserObject label="" plantUmlData="{&quot;data&quot;:&quot;@startuml\ntitle HR Administrator Manages Training Programs\n\nactor \&quot;HR Administrator\&quot; as HRA\nparticipant \&quot;HR Management System\&quot; as System\nparticipant \&quot;Training Module\&quot; as TM\n\nHRA -&gt; System: Access training program module\nactivate HRA\nactivate System\nSystem -&gt; HRA: Provide list of available training programs\ndeactivate System\n\nHRA -&gt; System: Select training program for management\nactivate System\nSystem -&gt; HRA: Display details and options for selected program\ndeactivate System\n\nHRA -&gt; TM: Modify training program details\nactivate TM\nTM -&gt; System: Save changes\ndeactivate TM\nSystem -&gt; HRA: Confirm changes saved\ndeactivate System\ndeactivate HRA\n\n@enduml\n&quot;,&quot;format&quot;:&quot;svg&quot;}" id="zDocgtsDWfN_BaeTn4bw-1">
          <mxCell style="shape=image;noLabel=1;verticalAlign=top;aspect=fixed;imageAspect=0;image=data:image/svg+xml,PD94bWwgdmVyc2lvbj0iMS4wIiBlbmNvZGluZz0idXMtYXNjaWkiIHN0YW5kYWxvbmU9Im5vIj8+PHN2ZyB4bWxucz0iaHR0cDovL3d3dy53My5vcmcvMjAwMC9zdmciIHhtbG5zOnhsaW5rPSJodHRwOi8vd3d3LnczLm9yZy8xOTk5L3hsaW5rIiBjb250ZW50U3R5bGVUeXBlPSJ0ZXh0L2NzcyIgaGVpZ2h0PSI0MTBweCIgcHJlc2VydmVBc3BlY3RSYXRpbz0ibm9uZSIgc3R5bGU9IndpZHRoOjYzNnB4O2hlaWdodDo0MTBweDtiYWNrZ3JvdW5kOiNGRkZGRkY7IiB2ZXJzaW9uPSIxLjEiIHZpZXdCb3g9IjAgMCA2MzYgNDEwIiB3aWR0aD0iNjM2cHgiIHpvb21BbmRQYW49Im1hZ25pZnkiPjxkZWZzLz48Zz48dGV4dCBmaWxsPSIjMDAwMDAwIiBmb250LWZhbWlseT0ic2Fucy1zZXJpZiIgZm9udC1zaXplPSIxNCIgZm9udC13ZWlnaHQ9ImJvbGQiIGxlbmd0aEFkanVzdD0ic3BhY2luZyIgdGV4dExlbmd0aD0iMjk2IiB4PSIxNjkuMjUiIHk9IjI4LjIzNDQiPkhSIEFkbWluaXN0cmF0b3IgTWFuYWdlcyBUcmFpbmluZyBQcm9ncmFtczwvdGV4dD48cmVjdCBmaWxsPSIjRkZGRkZGIiBoZWlnaHQ9IjE2Ny40ODQ0IiBzdHlsZT0ic3Ryb2tlOiMxODE4MTg7c3Ryb2tlLXdpZHRoOjEuMDsiIHdpZHRoPSIxMCIgeD0iNTkuNSIgeT0iMTQ1Ljg4MjgiLz48cmVjdCBmaWxsPSIjRkZGRkZGIiBoZWlnaHQ9IjI3LjkxNDEiIHN0eWxlPSJzdHJva2U6IzE4MTgxODtzdHJva2Utd2lkdGg6MS4wOyIgd2lkdGg9IjEwIiB4PSI0MTguNSIgeT0iMTQ1Ljg4MjgiLz48cmVjdCBmaWxsPSIjRkZGRkZGIiBoZWlnaHQ9IjI3LjkxNDEiIHN0eWxlPSJzdHJva2U6IzE4MTgxODtzdHJva2Utd2lkdGg6MS4wOyIgd2lkdGg9IjEwIiB4PSI0MTguNSIgeT0iMjAxLjcxMDkiLz48cmVjdCBmaWxsPSIjRkZGRkZGIiBoZWlnaHQ9IjI3LjkxNDEiIHN0eWxlPSJzdHJva2U6IzE4MTgxODtzdHJva2Utd2lkdGg6MS4wOyIgd2lkdGg9IjEwIiB4PSI1NjYiIHk9IjI1Ny41MzkxIi8+PGxpbmUgc3R5bGU9InN0cm9rZTojMTgxODE4O3N0cm9rZS13aWR0aDowLjU7c3Ryb2tlLWRhc2hhcnJheTo1LjAsNS4wOyIgeDE9IjY0IiB4Mj0iNjQiIHkxPSIxMTUuOTY4OCIgeTI9IjMzMS4zNjcyIi8+PGxpbmUgc3R5bGU9InN0cm9rZTojMTgxODE4O3N0cm9rZS13aWR0aDowLjU7c3Ryb2tlLWRhc2hhcnJheTo1LjAsNS4wOyIgeDE9IjQyMy41IiB4Mj0iNDIzLjUiIHkxPSIxMTUuOTY4OCIgeTI9IjMzMS4zNjcyIi8+PGxpbmUgc3R5bGU9InN0cm9rZTojMTgxODE4O3N0cm9rZS13aWR0aDowLjU7c3Ryb2tlLWRhc2hhcnJheTo1LjAsNS4wOyIgeDE9IjU3MC41IiB4Mj0iNTcwLjUiIHkxPSIxMTUuOTY4OCIgeTI9IjMzMS4zNjcyIi8+PHRleHQgZmlsbD0iIzAwMDAwMCIgZm9udC1mYW1pbHk9InNhbnMtc2VyaWYiIGZvbnQtc2l6ZT0iMTQiIGxlbmd0aEFkanVzdD0ic3BhY2luZyIgdGV4dExlbmd0aD0iMTEzIiB4PSI1IiB5PSIxMTQuMjE4OCI+SFIgQWRtaW5pc3RyYXRvcjwvdGV4dD48ZWxsaXBzZSBjeD0iNjQuNSIgY3k9IjQ5LjQ4NDQiIGZpbGw9IiNFMkUyRjAiIHJ4PSI4IiByeT0iOCIgc3R5bGU9InN0cm9rZTojMTgxODE4O3N0cm9rZS13aWR0aDowLjU7Ii8+PHBhdGggZD0iTTY0LjUsNTcuNDg0NCBMNjQuNSw4NC40ODQ0IE01MS41LDY1LjQ4NDQgTDc3LjUsNjUuNDg0NCBNNjQuNSw4NC40ODQ0IEw1MS41LDk5LjQ4NDQgTTY0LjUsODQuNDg0NCBMNzcuNSw5OS40ODQ0ICIgZmlsbD0ibm9uZSIgc3R5bGU9InN0cm9rZTojMTgxODE4O3N0cm9rZS13aWR0aDowLjU7Ii8+PHRleHQgZmlsbD0iIzAwMDAwMCIgZm9udC1mYW1pbHk9InNhbnMtc2VyaWYiIGZvbnQtc2l6ZT0iMTQiIGxlbmd0aEFkanVzdD0ic3BhY2luZyIgdGV4dExlbmd0aD0iMTEzIiB4PSI1IiB5PSIzNDMuNjAxNiI+SFIgQWRtaW5pc3RyYXRvcjwvdGV4dD48ZWxsaXBzZSBjeD0iNjQuNSIgY3k9IjM1My44NTE2IiBmaWxsPSIjRTJFMkYwIiByeD0iOCIgcnk9IjgiIHN0eWxlPSJzdHJva2U6IzE4MTgxODtzdHJva2Utd2lkdGg6MC41OyIvPjxwYXRoIGQ9Ik02NC41LDM2MS44NTE2IEw2NC41LDM4OC44NTE2IE01MS41LDM2OS44NTE2IEw3Ny41LDM2OS44NTE2IE02NC41LDM4OC44NTE2IEw1MS41LDQwMy44NTE2IE02NC41LDM4OC44NTE2IEw3Ny41LDQwMy44NTE2ICIgZmlsbD0ibm9uZSIgc3R5bGU9InN0cm9rZTojMTgxODE4O3N0cm9rZS13aWR0aDowLjU7Ii8+PHJlY3QgZmlsbD0iI0UyRTJGMCIgaGVpZ2h0PSIyOC45ODQ0IiByeD0iMi41IiByeT0iMi41IiBzdHlsZT0ic3Ryb2tlOiMxODE4MTg7c3Ryb2tlLXdpZHRoOjAuNTsiIHdpZHRoPSIxNTYiIHg9IjM0NS41IiB5PSI4NS45ODQ0Ii8+PHRleHQgZmlsbD0iIzAwMDAwMCIgZm9udC1mYW1pbHk9InNhbnMtc2VyaWYiIGZvbnQtc2l6ZT0iMTQiIGxlbmd0aEFkanVzdD0ic3BhY2luZyIgdGV4dExlbmd0aD0iMTQyIiB4PSIzNTIuNSIgeT0iMTA2LjIxODgiPkhSIE1hbmFnZW1lbnQgU3lzdGVtPC90ZXh0PjxyZWN0IGZpbGw9IiNFMkUyRjAiIGhlaWdodD0iMjguOTg0NCIgcng9IjIuNSIgcnk9IjIuNSIgc3R5bGU9InN0cm9rZTojMTgxODE4O3N0cm9rZS13aWR0aDowLjU7IiB3aWR0aD0iMTU2IiB4PSIzNDUuNSIgeT0iMzMwLjM2NzIiLz48dGV4dCBmaWxsPSIjMDAwMDAwIiBmb250LWZhbWlseT0ic2Fucy1zZXJpZiIgZm9udC1zaXplPSIxNCIgbGVuZ3RoQWRqdXN0PSJzcGFjaW5nIiB0ZXh0TGVuZ3RoPSIxNDIiIHg9IjM1Mi41IiB5PSIzNTAuNjAxNiI+SFIgTWFuYWdlbWVudCBTeXN0ZW08L3RleHQ+PHJlY3QgZmlsbD0iI0UyRTJGMCIgaGVpZ2h0PSIyOC45ODQ0IiByeD0iMi41IiByeT0iMi41IiBzdHlsZT0ic3Ryb2tlOiMxODE4MTg7c3Ryb2tlLXdpZHRoOjAuNTsiIHdpZHRoPSIxMTkiIHg9IjUxMS41IiB5PSI4NS45ODQ0Ii8+PHRleHQgZmlsbD0iIzAwMDAwMCIgZm9udC1mYW1pbHk9InNhbnMtc2VyaWYiIGZvbnQtc2l6ZT0iMTQiIGxlbmd0aEFkanVzdD0ic3BhY2luZyIgdGV4dExlbmd0aD0iMTA1IiB4PSI1MTguNSIgeT0iMTA2LjIxODgiPlRyYWluaW5nIE1vZHVsZTwvdGV4dD48cmVjdCBmaWxsPSIjRTJFMkYwIiBoZWlnaHQ9IjI4Ljk4NDQiIHJ4PSIyLjUiIHJ5PSIyLjUiIHN0eWxlPSJzdHJva2U6IzE4MTgxODtzdHJva2Utd2lkdGg6MC41OyIgd2lkdGg9IjExOSIgeD0iNTExLjUiIHk9IjMzMC4zNjcyIi8+PHRleHQgZmlsbD0iIzAwMDAwMCIgZm9udC1mYW1pbHk9InNhbnMtc2VyaWYiIGZvbnQtc2l6ZT0iMTQiIGxlbmd0aEFkanVzdD0ic3BhY2luZyIgdGV4dExlbmd0aD0iMTA1IiB4PSI1MTguNSIgeT0iMzUwLjYwMTYiPlRyYWluaW5nIE1vZHVsZTwvdGV4dD48cmVjdCBmaWxsPSIjRkZGRkZGIiBoZWlnaHQ9IjE2Ny40ODQ0IiBzdHlsZT0ic3Ryb2tlOiMxODE4MTg7c3Ryb2tlLXdpZHRoOjEuMDsiIHdpZHRoPSIxMCIgeD0iNTkuNSIgeT0iMTQ1Ljg4MjgiLz48cmVjdCBmaWxsPSIjRkZGRkZGIiBoZWlnaHQ9IjI3LjkxNDEiIHN0eWxlPSJzdHJva2U6IzE4MTgxODtzdHJva2Utd2lkdGg6MS4wOyIgd2lkdGg9IjEwIiB4PSI0MTguNSIgeT0iMTQ1Ljg4MjgiLz48cmVjdCBmaWxsPSIjRkZGRkZGIiBoZWlnaHQ9IjI3LjkxNDEiIHN0eWxlPSJzdHJva2U6IzE4MTgxODtzdHJva2Utd2lkdGg6MS4wOyIgd2lkdGg9IjEwIiB4PSI0MTguNSIgeT0iMjAxLjcxMDkiLz48cmVjdCBmaWxsPSIjRkZGRkZGIiBoZWlnaHQ9IjI3LjkxNDEiIHN0eWxlPSJzdHJva2U6IzE4MTgxODtzdHJva2Utd2lkdGg6MS4wOyIgd2lkdGg9IjEwIiB4PSI1NjYiIHk9IjI1Ny41MzkxIi8+PHBvbHlnb24gZmlsbD0iIzE4MTgxOCIgcG9pbnRzPSI0MDYuNSwxNDEuODgyOCw0MTYuNSwxNDUuODgyOCw0MDYuNSwxNDkuODgyOCw0MTAuNSwxNDUuODgyOCIgc3R5bGU9InN0cm9rZTojMTgxODE4O3N0cm9rZS13aWR0aDoxLjA7Ii8+PGxpbmUgc3R5bGU9InN0cm9rZTojMTgxODE4O3N0cm9rZS13aWR0aDoxLjA7IiB4MT0iNjkuNSIgeDI9IjQxMi41IiB5MT0iMTQ1Ljg4MjgiIHkyPSIxNDUuODgyOCIvPjx0ZXh0IGZpbGw9IiMwMDAwMDAiIGZvbnQtZmFtaWx5PSJzYW5zLXNlcmlmIiBmb250LXNpemU9IjEzIiBsZW5ndGhBZGp1c3Q9InNwYWNpbmciIHRleHRMZW5ndGg9IjIwNCIgeD0iNzYuNSIgeT0iMTQyLjI1NzgiPkFjY2VzcyB0cmFpbmluZyBwcm9ncmFtIG1vZHVsZTwvdGV4dD48cG9seWdvbiBmaWxsPSIjMTgxODE4IiBwb2ludHM9IjgwLjUsMTY5Ljc5NjksNzAuNSwxNzMuNzk2OSw4MC41LDE3Ny43OTY5LDc2LjUsMTczLjc5NjkiIHN0eWxlPSJzdHJva2U6IzE4MTgxODtzdHJva2Utd2lkdGg6MS4wOyIvPjxsaW5lIHN0eWxlPSJzdHJva2U6IzE4MTgxODtzdHJva2Utd2lkdGg6MS4wOyIgeDE9Ijc0LjUiIHgyPSI0MjIuNSIgeTE9IjE3My43OTY5IiB5Mj0iMTczLjc5NjkiLz48dGV4dCBmaWxsPSIjMDAwMDAwIiBmb250LWZhbWlseT0ic2Fucy1zZXJpZiIgZm9udC1zaXplPSIxMyIgbGVuZ3RoQWRqdXN0PSJzcGFjaW5nIiB0ZXh0TGVuZ3RoPSIyODkiIHg9Ijg2LjUiIHk9IjE3MC4xNzE5Ij5Qcm92aWRlIGxpc3Qgb2YgYXZhaWxhYmxlIHRyYWluaW5nIHByb2dyYW1zPC90ZXh0Pjxwb2x5Z29uIGZpbGw9IiMxODE4MTgiIHBvaW50cz0iNDA2LjUsMTk3LjcxMDksNDE2LjUsMjAxLjcxMDksNDA2LjUsMjA1LjcxMDksNDEwLjUsMjAxLjcxMDkiIHN0eWxlPSJzdHJva2U6IzE4MTgxODtzdHJva2Utd2lkdGg6MS4wOyIvPjxsaW5lIHN0eWxlPSJzdHJva2U6IzE4MTgxODtzdHJva2Utd2lkdGg6MS4wOyIgeDE9IjY5LjUiIHgyPSI0MTIuNSIgeTE9IjIwMS43MTA5IiB5Mj0iMjAxLjcxMDkiLz48dGV4dCBmaWxsPSIjMDAwMDAwIiBmb250LWZhbWlseT0ic2Fucy1zZXJpZiIgZm9udC1zaXplPSIxMyIgbGVuZ3RoQWRqdXN0PSJzcGFjaW5nIiB0ZXh0TGVuZ3RoPSIyNTYiIHg9Ijc2LjUiIHk9IjE5OC4wODU5Ij5TZWxlY3QgdHJhaW5pbmcgcHJvZ3JhbSBmb3IgbWFuYWdlbWVudDwvdGV4dD48cG9seWdvbiBmaWxsPSIjMTgxODE4IiBwb2ludHM9IjgwLjUsMjI1LjYyNSw3MC41LDIyOS42MjUsODAuNSwyMzMuNjI1LDc2LjUsMjI5LjYyNSIgc3R5bGU9InN0cm9rZTojMTgxODE4O3N0cm9rZS13aWR0aDoxLjA7Ii8+PGxpbmUgc3R5bGU9InN0cm9rZTojMTgxODE4O3N0cm9rZS13aWR0aDoxLjA7IiB4MT0iNzQuNSIgeDI9IjQyMi41IiB5MT0iMjI5LjYyNSIgeTI9IjIyOS42MjUiLz48dGV4dCBmaWxsPSIjMDAwMDAwIiBmb250LWZhbWlseT0ic2Fucy1zZXJpZiIgZm9udC1zaXplPSIxMyIgbGVuZ3RoQWRqdXN0PSJzcGFjaW5nIiB0ZXh0TGVuZ3RoPSIzMjUiIHg9Ijg2LjUiIHk9IjIyNiI+RGlzcGxheSBkZXRhaWxzIGFuZCBvcHRpb25zIGZvciBzZWxlY3RlZCBwcm9ncmFtPC90ZXh0Pjxwb2x5Z29uIGZpbGw9IiMxODE4MTgiIHBvaW50cz0iNTU0LDI1My41MzkxLDU2NCwyNTcuNTM5MSw1NTQsMjYxLjUzOTEsNTU4LDI1Ny41MzkxIiBzdHlsZT0ic3Ryb2tlOiMxODE4MTg7c3Ryb2tlLXdpZHRoOjEuMDsiLz48bGluZSBzdHlsZT0ic3Ryb2tlOiMxODE4MTg7c3Ryb2tlLXdpZHRoOjEuMDsiIHgxPSI2OS41IiB4Mj0iNTYwIiB5MT0iMjU3LjUzOTEiIHkyPSIyNTcuNTM5MSIvPjx0ZXh0IGZpbGw9IiMwMDAwMDAiIGZvbnQtZmFtaWx5PSJzYW5zLXNlcmlmIiBmb250LXNpemU9IjEzIiBsZW5ndGhBZGp1c3Q9InNwYWNpbmciIHRleHRMZW5ndGg9IjIwOCIgeD0iNzYuNSIgeT0iMjUzLjkxNDEiPk1vZGlmeSB0cmFpbmluZyBwcm9ncmFtIGRldGFpbHM8L3RleHQ+PHBvbHlnb24gZmlsbD0iIzE4MTgxOCIgcG9pbnRzPSI0MzQuNSwyODEuNDUzMSw0MjQuNSwyODUuNDUzMSw0MzQuNSwyODkuNDUzMSw0MzAuNSwyODUuNDUzMSIgc3R5bGU9InN0cm9rZTojMTgxODE4O3N0cm9rZS13aWR0aDoxLjA7Ii8+PGxpbmUgc3R5bGU9InN0cm9rZTojMTgxODE4O3N0cm9rZS13aWR0aDoxLjA7IiB4MT0iNDI4LjUiIHgyPSI1NzAiIHkxPSIyODUuNDUzMSIgeTI9IjI4NS40NTMxIi8+PHRleHQgZmlsbD0iIzAwMDAwMCIgZm9udC1mYW1pbHk9InNhbnMtc2VyaWYiIGZvbnQtc2l6ZT0iMTMiIGxlbmd0aEFkanVzdD0ic3BhY2luZyIgdGV4dExlbmd0aD0iODQiIHg9IjQ0MC41IiB5PSIyODEuODI4MSI+U2F2ZSBjaGFuZ2VzPC90ZXh0Pjxwb2x5Z29uIGZpbGw9IiMxODE4MTgiIHBvaW50cz0iNzUuNSwzMDkuMzY3Miw2NS41LDMxMy4zNjcyLDc1LjUsMzE3LjM2NzIsNzEuNSwzMTMuMzY3MiIgc3R5bGU9InN0cm9rZTojMTgxODE4O3N0cm9rZS13aWR0aDoxLjA7Ii8+PGxpbmUgc3R5bGU9InN0cm9rZTojMTgxODE4O3N0cm9rZS13aWR0aDoxLjA7IiB4MT0iNjkuNSIgeDI9IjQyMi41IiB5MT0iMzEzLjM2NzIiIHkyPSIzMTMuMzY3MiIvPjx0ZXh0IGZpbGw9IiMwMDAwMDAiIGZvbnQtZmFtaWx5PSJzYW5zLXNlcmlmIiBmb250LXNpemU9IjEzIiBsZW5ndGhBZGp1c3Q9InNwYWNpbmciIHRleHRMZW5ndGg9IjE0NCIgeD0iODEuNSIgeT0iMzA5Ljc0MjIiPkNvbmZpcm0gY2hhbmdlcyBzYXZlZDwvdGV4dD48IS0tU1JDPVtYUDlEUmVHbTM4TnRFT0tyLXJ3MEhRTEhrLVc2Z1VmbTBKU25EMTk5S0VuMXVsT3J1UVNwSkRNazhFNnp2eXpGWTlVVXVFcTNwWXh1dzVhb0lpZkdPeUlFNjlnQ1VYaXhVQy1mb25aTzZCSXB1N0lxZDAxUFN5dmNtMnBVLVc2WjVES0k1S1lGYnVjNUdiNGtoX1ZZVkxZVHRCTWRlY2pnT3BHTGRmdk5JbUxkUXVhUFA1Q0Yybmc0dWZodl84WDIxTU9faEZFTW52b2NOd2p2Z3o0eFdid3RXREcyWmtYeF9ESDZaa2JpNzF0M1pjME53aWRBOHJZaFZPTXpYVi1PTlpxRkZLeFdJMUk2MFFFM0Q4WEZhS2lJYm9kYWpsV19tOWd3Y2hscXhWRzhqU1JfcTZaSkpOc3QzZXU0eldrWl9XWXRHckh1Rzd2OWlWS3ZSNjlXVFJmVms2dmtyRlNEXS0tPjwvZz48L3N2Zz4=;clipPath=inset(0% 0% 19.43% 0%);" vertex="1" parent="1">
            <mxGeometry x="1230" y="880" width="760.1" height="393.98516666666666" as="geometry" />
          </mxCell>
        </UserObject>
        <mxCell id="zDocgtsDWfN_BaeTn4bw-2" value="&lt;span id=&quot;docs-internal-guid-d5666724-7fff-272a-31c1-6922514615f0&quot;&gt;&lt;span style=&quot;font-size: 9.5pt; font-family: Roboto, sans-serif; background-color: transparent; font-weight: 700; font-variant-numeric: normal; font-variant-east-asian: normal; font-variant-alternates: normal; font-variant-position: normal; vertical-align: baseline; white-space-collapse: preserve;&quot;&gt;UC-HR-04&lt;/span&gt;&lt;/span&gt;" style="shape=umlFrame;whiteSpace=wrap;html=1;pointerEvents=0;recursiveResize=0;container=1;collapsible=0;width=160;fillColor=#e1d5e7;strokeColor=#9673a6;" vertex="1" parent="1">
          <mxGeometry x="1200" y="840" width="870" height="530" as="geometry" />
        </mxCell>
      </root>
    </mxGraphModel>
  </diagram>
  <diagram id="8zbUYAn1Yf_-dR4mgthA" name="Page-6">
    <mxGraphModel dx="584" dy="-405" grid="1" gridSize="10" guides="1" tooltips="1" connect="1" arrows="1" fold="1" page="1" pageScale="1" pageWidth="850" pageHeight="1100" math="0" shadow="0">
      <root>
        <mxCell id="0" />
        <mxCell id="1" parent="0" />
        <mxCell id="M15ChUHS4Shv0E8SYzsy-1" value="&lt;span style=&quot;font-family: Roboto, sans-serif; font-size: 12.6667px; font-weight: 700; white-space-collapse: preserve;&quot;&gt;UC-HR-05&lt;/span&gt;" style="shape=umlFrame;whiteSpace=wrap;html=1;pointerEvents=0;recursiveResize=0;container=1;collapsible=0;width=160;fillColor=#e1d5e7;strokeColor=#9673a6;" vertex="1" parent="1">
          <mxGeometry x="1070" y="1500" width="1100" height="590" as="geometry" />
        </mxCell>
        <UserObject label="" plantUmlData="{&quot;data&quot;:&quot;@startuml\ntitle Employee Requests Leave\n\nactor \&quot;Employee\&quot; as Emp\nparticipant \&quot;HR Management System\&quot; as System\nparticipant \&quot;HR Administrator\&quot; as HRA\n\nEmp -&gt; System: Log in to HRMS\nactivate Emp\nactivate System\nSystem -&gt; Emp: Provide access to leave module\ndeactivate System\n\nEmp -&gt; System: Submit leave request\nactivate System\nSystem -&gt; HRA: Notify HR Administrator of leave request\nactivate HRA\n\nHRA -&gt; System: Review leave request\ndeactivate HRA\n\nSystem -&gt; Emp: Approval status of leave request\ndeactivate System\ndeactivate Emp\n\n@enduml\n&quot;,&quot;format&quot;:&quot;svg&quot;}" id="M15ChUHS4Shv0E8SYzsy-2">
          <mxCell style="shape=image;noLabel=1;verticalAlign=top;aspect=fixed;imageAspect=0;image=data:image/svg+xml,PD94bWwgdmVyc2lvbj0iMS4wIiBlbmNvZGluZz0idXMtYXNjaWkiIHN0YW5kYWxvbmU9Im5vIj8+PHN2ZyB4bWxucz0iaHR0cDovL3d3dy53My5vcmcvMjAwMC9zdmciIHhtbG5zOnhsaW5rPSJodHRwOi8vd3d3LnczLm9yZy8xOTk5L3hsaW5rIiBjb250ZW50U3R5bGVUeXBlPSJ0ZXh0L2NzcyIgaGVpZ2h0PSIzODJweCIgcHJlc2VydmVBc3BlY3RSYXRpbz0ibm9uZSIgc3R5bGU9IndpZHRoOjY1NnB4O2hlaWdodDozODJweDtiYWNrZ3JvdW5kOiNGRkZGRkY7IiB2ZXJzaW9uPSIxLjEiIHZpZXdCb3g9IjAgMCA2NTYgMzgyIiB3aWR0aD0iNjU2cHgiIHpvb21BbmRQYW49Im1hZ25pZnkiPjxkZWZzLz48Zz48dGV4dCBmaWxsPSIjMDAwMDAwIiBmb250LWZhbWlseT0ic2Fucy1zZXJpZiIgZm9udC1zaXplPSIxNCIgZm9udC13ZWlnaHQ9ImJvbGQiIGxlbmd0aEFkanVzdD0ic3BhY2luZyIgdGV4dExlbmd0aD0iMTYyIiB4PSIyNDYiIHk9IjI4LjIzNDQiPkVtcGxveWVlIFJlcXVlc3RzIExlYXZlPC90ZXh0PjxyZWN0IGZpbGw9IiNGRkZGRkYiIGhlaWdodD0iMTM5LjU3MDMiIHN0eWxlPSJzdHJva2U6IzE4MTgxODtzdHJva2Utd2lkdGg6MS4wOyIgd2lkdGg9IjEwIiB4PSIzMS41IiB5PSIxNDUuODgyOCIvPjxyZWN0IGZpbGw9IiNGRkZGRkYiIGhlaWdodD0iMjcuOTE0MSIgc3R5bGU9InN0cm9rZTojMTgxODE4O3N0cm9rZS13aWR0aDoxLjA7IiB3aWR0aD0iMTAiIHg9IjI4My41IiB5PSIxNDUuODgyOCIvPjxyZWN0IGZpbGw9IiNGRkZGRkYiIGhlaWdodD0iODMuNzQyMiIgc3R5bGU9InN0cm9rZTojMTgxODE4O3N0cm9rZS13aWR0aDoxLjA7IiB3aWR0aD0iMTAiIHg9IjI4My41IiB5PSIyMDEuNzEwOSIvPjxyZWN0IGZpbGw9IiNGRkZGRkYiIGhlaWdodD0iMjcuOTE0MSIgc3R5bGU9InN0cm9rZTojMTgxODE4O3N0cm9rZS13aWR0aDoxLjA7IiB3aWR0aD0iMTAiIHg9IjU4MS41IiB5PSIyMjkuNjI1Ii8+PGxpbmUgc3R5bGU9InN0cm9rZTojMTgxODE4O3N0cm9rZS13aWR0aDowLjU7c3Ryb2tlLWRhc2hhcnJheTo1LjAsNS4wOyIgeDE9IjM2IiB4Mj0iMzYiIHkxPSIxMTUuOTY4OCIgeTI9IjMwMy40NTMxIi8+PGxpbmUgc3R5bGU9InN0cm9rZTojMTgxODE4O3N0cm9rZS13aWR0aDowLjU7c3Ryb2tlLWRhc2hhcnJheTo1LjAsNS4wOyIgeDE9IjI4OC41IiB4Mj0iMjg4LjUiIHkxPSIxMTUuOTY4OCIgeTI9IjMwMy40NTMxIi8+PGxpbmUgc3R5bGU9InN0cm9rZTojMTgxODE4O3N0cm9rZS13aWR0aDowLjU7c3Ryb2tlLWRhc2hhcnJheTo1LjAsNS4wOyIgeDE9IjU4NiIgeDI9IjU4NiIgeTE9IjExNS45Njg4IiB5Mj0iMzAzLjQ1MzEiLz48dGV4dCBmaWxsPSIjMDAwMDAwIiBmb250LWZhbWlseT0ic2Fucy1zZXJpZiIgZm9udC1zaXplPSIxNCIgbGVuZ3RoQWRqdXN0PSJzcGFjaW5nIiB0ZXh0TGVuZ3RoPSI1NyIgeD0iNSIgeT0iMTE0LjIxODgiPkVtcGxveWVlPC90ZXh0PjxlbGxpcHNlIGN4PSIzNi41IiBjeT0iNDkuNDg0NCIgZmlsbD0iI0UyRTJGMCIgcng9IjgiIHJ5PSI4IiBzdHlsZT0ic3Ryb2tlOiMxODE4MTg7c3Ryb2tlLXdpZHRoOjAuNTsiLz48cGF0aCBkPSJNMzYuNSw1Ny40ODQ0IEwzNi41LDg0LjQ4NDQgTTIzLjUsNjUuNDg0NCBMNDkuNSw2NS40ODQ0IE0zNi41LDg0LjQ4NDQgTDIzLjUsOTkuNDg0NCBNMzYuNSw4NC40ODQ0IEw0OS41LDk5LjQ4NDQgIiBmaWxsPSJub25lIiBzdHlsZT0ic3Ryb2tlOiMxODE4MTg7c3Ryb2tlLXdpZHRoOjAuNTsiLz48dGV4dCBmaWxsPSIjMDAwMDAwIiBmb250LWZhbWlseT0ic2Fucy1zZXJpZiIgZm9udC1zaXplPSIxNCIgbGVuZ3RoQWRqdXN0PSJzcGFjaW5nIiB0ZXh0TGVuZ3RoPSI1NyIgeD0iNSIgeT0iMzE1LjY4NzUiPkVtcGxveWVlPC90ZXh0PjxlbGxpcHNlIGN4PSIzNi41IiBjeT0iMzI1LjkzNzUiIGZpbGw9IiNFMkUyRjAiIHJ4PSI4IiByeT0iOCIgc3R5bGU9InN0cm9rZTojMTgxODE4O3N0cm9rZS13aWR0aDowLjU7Ii8+PHBhdGggZD0iTTM2LjUsMzMzLjkzNzUgTDM2LjUsMzYwLjkzNzUgTTIzLjUsMzQxLjkzNzUgTDQ5LjUsMzQxLjkzNzUgTTM2LjUsMzYwLjkzNzUgTDIzLjUsMzc1LjkzNzUgTTM2LjUsMzYwLjkzNzUgTDQ5LjUsMzc1LjkzNzUgIiBmaWxsPSJub25lIiBzdHlsZT0ic3Ryb2tlOiMxODE4MTg7c3Ryb2tlLXdpZHRoOjAuNTsiLz48cmVjdCBmaWxsPSIjRTJFMkYwIiBoZWlnaHQ9IjI4Ljk4NDQiIHJ4PSIyLjUiIHJ5PSIyLjUiIHN0eWxlPSJzdHJva2U6IzE4MTgxODtzdHJva2Utd2lkdGg6MC41OyIgd2lkdGg9IjE1NiIgeD0iMjEwLjUiIHk9Ijg1Ljk4NDQiLz48dGV4dCBmaWxsPSIjMDAwMDAwIiBmb250LWZhbWlseT0ic2Fucy1zZXJpZiIgZm9udC1zaXplPSIxNCIgbGVuZ3RoQWRqdXN0PSJzcGFjaW5nIiB0ZXh0TGVuZ3RoPSIxNDIiIHg9IjIxNy41IiB5PSIxMDYuMjE4OCI+SFIgTWFuYWdlbWVudCBTeXN0ZW08L3RleHQ+PHJlY3QgZmlsbD0iI0UyRTJGMCIgaGVpZ2h0PSIyOC45ODQ0IiByeD0iMi41IiByeT0iMi41IiBzdHlsZT0ic3Ryb2tlOiMxODE4MTg7c3Ryb2tlLXdpZHRoOjAuNTsiIHdpZHRoPSIxNTYiIHg9IjIxMC41IiB5PSIzMDIuNDUzMSIvPjx0ZXh0IGZpbGw9IiMwMDAwMDAiIGZvbnQtZmFtaWx5PSJzYW5zLXNlcmlmIiBmb250LXNpemU9IjE0IiBsZW5ndGhBZGp1c3Q9InNwYWNpbmciIHRleHRMZW5ndGg9IjE0MiIgeD0iMjE3LjUiIHk9IjMyMi42ODc1Ij5IUiBNYW5hZ2VtZW50IFN5c3RlbTwvdGV4dD48cmVjdCBmaWxsPSIjRTJFMkYwIiBoZWlnaHQ9IjI4Ljk4NDQiIHJ4PSIyLjUiIHJ5PSIyLjUiIHN0eWxlPSJzdHJva2U6IzE4MTgxODtzdHJva2Utd2lkdGg6MC41OyIgd2lkdGg9IjEyNyIgeD0iNTIzIiB5PSI4NS45ODQ0Ii8+PHRleHQgZmlsbD0iIzAwMDAwMCIgZm9udC1mYW1pbHk9InNhbnMtc2VyaWYiIGZvbnQtc2l6ZT0iMTQiIGxlbmd0aEFkanVzdD0ic3BhY2luZyIgdGV4dExlbmd0aD0iMTEzIiB4PSI1MzAiIHk9IjEwNi4yMTg4Ij5IUiBBZG1pbmlzdHJhdG9yPC90ZXh0PjxyZWN0IGZpbGw9IiNFMkUyRjAiIGhlaWdodD0iMjguOTg0NCIgcng9IjIuNSIgcnk9IjIuNSIgc3R5bGU9InN0cm9rZTojMTgxODE4O3N0cm9rZS13aWR0aDowLjU7IiB3aWR0aD0iMTI3IiB4PSI1MjMiIHk9IjMwMi40NTMxIi8+PHRleHQgZmlsbD0iIzAwMDAwMCIgZm9udC1mYW1pbHk9InNhbnMtc2VyaWYiIGZvbnQtc2l6ZT0iMTQiIGxlbmd0aEFkanVzdD0ic3BhY2luZyIgdGV4dExlbmd0aD0iMTEzIiB4PSI1MzAiIHk9IjMyMi42ODc1Ij5IUiBBZG1pbmlzdHJhdG9yPC90ZXh0PjxyZWN0IGZpbGw9IiNGRkZGRkYiIGhlaWdodD0iMTM5LjU3MDMiIHN0eWxlPSJzdHJva2U6IzE4MTgxODtzdHJva2Utd2lkdGg6MS4wOyIgd2lkdGg9IjEwIiB4PSIzMS41IiB5PSIxNDUuODgyOCIvPjxyZWN0IGZpbGw9IiNGRkZGRkYiIGhlaWdodD0iMjcuOTE0MSIgc3R5bGU9InN0cm9rZTojMTgxODE4O3N0cm9rZS13aWR0aDoxLjA7IiB3aWR0aD0iMTAiIHg9IjI4My41IiB5PSIxNDUuODgyOCIvPjxyZWN0IGZpbGw9IiNGRkZGRkYiIGhlaWdodD0iODMuNzQyMiIgc3R5bGU9InN0cm9rZTojMTgxODE4O3N0cm9rZS13aWR0aDoxLjA7IiB3aWR0aD0iMTAiIHg9IjI4My41IiB5PSIyMDEuNzEwOSIvPjxyZWN0IGZpbGw9IiNGRkZGRkYiIGhlaWdodD0iMjcuOTE0MSIgc3R5bGU9InN0cm9rZTojMTgxODE4O3N0cm9rZS13aWR0aDoxLjA7IiB3aWR0aD0iMTAiIHg9IjU4MS41IiB5PSIyMjkuNjI1Ii8+PHBvbHlnb24gZmlsbD0iIzE4MTgxOCIgcG9pbnRzPSIyNzEuNSwxNDEuODgyOCwyODEuNSwxNDUuODgyOCwyNzEuNSwxNDkuODgyOCwyNzUuNSwxNDUuODgyOCIgc3R5bGU9InN0cm9rZTojMTgxODE4O3N0cm9rZS13aWR0aDoxLjA7Ii8+PGxpbmUgc3R5bGU9InN0cm9rZTojMTgxODE4O3N0cm9rZS13aWR0aDoxLjA7IiB4MT0iNDEuNSIgeDI9IjI3Ny41IiB5MT0iMTQ1Ljg4MjgiIHkyPSIxNDUuODgyOCIvPjx0ZXh0IGZpbGw9IiMwMDAwMDAiIGZvbnQtZmFtaWx5PSJzYW5zLXNlcmlmIiBmb250LXNpemU9IjEzIiBsZW5ndGhBZGp1c3Q9InNwYWNpbmciIHRleHRMZW5ndGg9Ijk2IiB4PSI0OC41IiB5PSIxNDIuMjU3OCI+TG9nIGluIHRvIEhSTVM8L3RleHQ+PHBvbHlnb24gZmlsbD0iIzE4MTgxOCIgcG9pbnRzPSI1Mi41LDE2OS43OTY5LDQyLjUsMTczLjc5NjksNTIuNSwxNzcuNzk2OSw0OC41LDE3My43OTY5IiBzdHlsZT0ic3Ryb2tlOiMxODE4MTg7c3Ryb2tlLXdpZHRoOjEuMDsiLz48bGluZSBzdHlsZT0ic3Ryb2tlOiMxODE4MTg7c3Ryb2tlLXdpZHRoOjEuMDsiIHgxPSI0Ni41IiB4Mj0iMjg3LjUiIHkxPSIxNzMuNzk2OSIgeTI9IjE3My43OTY5Ii8+PHRleHQgZmlsbD0iIzAwMDAwMCIgZm9udC1mYW1pbHk9InNhbnMtc2VyaWYiIGZvbnQtc2l6ZT0iMTMiIGxlbmd0aEFkanVzdD0ic3BhY2luZyIgdGV4dExlbmd0aD0iMjA1IiB4PSI1OC41IiB5PSIxNzAuMTcxOSI+UHJvdmlkZSBhY2Nlc3MgdG8gbGVhdmUgbW9kdWxlPC90ZXh0Pjxwb2x5Z29uIGZpbGw9IiMxODE4MTgiIHBvaW50cz0iMjcxLjUsMTk3LjcxMDksMjgxLjUsMjAxLjcxMDksMjcxLjUsMjA1LjcxMDksMjc1LjUsMjAxLjcxMDkiIHN0eWxlPSJzdHJva2U6IzE4MTgxODtzdHJva2Utd2lkdGg6MS4wOyIvPjxsaW5lIHN0eWxlPSJzdHJva2U6IzE4MTgxODtzdHJva2Utd2lkdGg6MS4wOyIgeDE9IjQxLjUiIHgyPSIyNzcuNSIgeTE9IjIwMS43MTA5IiB5Mj0iMjAxLjcxMDkiLz48dGV4dCBmaWxsPSIjMDAwMDAwIiBmb250LWZhbWlseT0ic2Fucy1zZXJpZiIgZm9udC1zaXplPSIxMyIgbGVuZ3RoQWRqdXN0PSJzcGFjaW5nIiB0ZXh0TGVuZ3RoPSIxMzUiIHg9IjQ4LjUiIHk9IjE5OC4wODU5Ij5TdWJtaXQgbGVhdmUgcmVxdWVzdDwvdGV4dD48cG9seWdvbiBmaWxsPSIjMTgxODE4IiBwb2ludHM9IjU2OS41LDIyNS42MjUsNTc5LjUsMjI5LjYyNSw1NjkuNSwyMzMuNjI1LDU3My41LDIyOS42MjUiIHN0eWxlPSJzdHJva2U6IzE4MTgxODtzdHJva2Utd2lkdGg6MS4wOyIvPjxsaW5lIHN0eWxlPSJzdHJva2U6IzE4MTgxODtzdHJva2Utd2lkdGg6MS4wOyIgeDE9IjI5My41IiB4Mj0iNTc1LjUiIHkxPSIyMjkuNjI1IiB5Mj0iMjI5LjYyNSIvPjx0ZXh0IGZpbGw9IiMwMDAwMDAiIGZvbnQtZmFtaWx5PSJzYW5zLXNlcmlmIiBmb250LXNpemU9IjEzIiBsZW5ndGhBZGp1c3Q9InNwYWNpbmciIHRleHRMZW5ndGg9IjI2OSIgeD0iMzAwLjUiIHk9IjIyNiI+Tm90aWZ5IEhSIEFkbWluaXN0cmF0b3Igb2YgbGVhdmUgcmVxdWVzdDwvdGV4dD48cG9seWdvbiBmaWxsPSIjMTgxODE4IiBwb2ludHM9IjMwNC41LDI1My41MzkxLDI5NC41LDI1Ny41MzkxLDMwNC41LDI2MS41MzkxLDMwMC41LDI1Ny41MzkxIiBzdHlsZT0ic3Ryb2tlOiMxODE4MTg7c3Ryb2tlLXdpZHRoOjEuMDsiLz48bGluZSBzdHlsZT0ic3Ryb2tlOiMxODE4MTg7c3Ryb2tlLXdpZHRoOjEuMDsiIHgxPSIyOTguNSIgeDI9IjU4NS41IiB5MT0iMjU3LjUzOTEiIHkyPSIyNTcuNTM5MSIvPjx0ZXh0IGZpbGw9IiMwMDAwMDAiIGZvbnQtZmFtaWx5PSJzYW5zLXNlcmlmIiBmb250LXNpemU9IjEzIiBsZW5ndGhBZGp1c3Q9InNwYWNpbmciIHRleHRMZW5ndGg9IjEzNiIgeD0iMzEwLjUiIHk9IjI1My45MTQxIj5SZXZpZXcgbGVhdmUgcmVxdWVzdDwvdGV4dD48cG9seWdvbiBmaWxsPSIjMTgxODE4IiBwb2ludHM9IjQ3LjUsMjgxLjQ1MzEsMzcuNSwyODUuNDUzMSw0Ny41LDI4OS40NTMxLDQzLjUsMjg1LjQ1MzEiIHN0eWxlPSJzdHJva2U6IzE4MTgxODtzdHJva2Utd2lkdGg6MS4wOyIvPjxsaW5lIHN0eWxlPSJzdHJva2U6IzE4MTgxODtzdHJva2Utd2lkdGg6MS4wOyIgeDE9IjQxLjUiIHgyPSIyODcuNSIgeTE9IjI4NS40NTMxIiB5Mj0iMjg1LjQ1MzEiLz48dGV4dCBmaWxsPSIjMDAwMDAwIiBmb250LWZhbWlseT0ic2Fucy1zZXJpZiIgZm9udC1zaXplPSIxMyIgbGVuZ3RoQWRqdXN0PSJzcGFjaW5nIiB0ZXh0TGVuZ3RoPSIyMTgiIHg9IjUzLjUiIHk9IjI4MS44MjgxIj5BcHByb3ZhbCBzdGF0dXMgb2YgbGVhdmUgcmVxdWVzdDwvdGV4dD48IS0tU1JDPVtWTDFCUmVDbTREdHg1MkZzbEcyQkkybWdQUDU0NFBuVzJmRGU5MWl4emEzNHhNaVJnWUFaVGtGVmxBLTVISER5NmdWakdXR2psSU9BNGsxMkU5RElzOGxyS0Z0Q0F5MkdtQ2dYNS14UHVJWEdkTGt1dWVYRkNYSWx0SEE0SjRRa25tRXU2R29GN0NIWjVDXzBTemllNU5OWHV4SUhRaFpPOV8wOE9rRnFzZ0thRkFGYWhCLU5wTTdUNFpqRVF4WHhFX0QwVzdyRjhJRzlkVWcwaVNFYUlHckt5YWxsUmxlb0IxbEJodF9vWnNjQ055RkQyWnlNQUZrMVZWb2Jhcmw3UFVfU3FpcHFCWFl4bTliSnI2c1NZdUxIR24yS0FIbVRadUx0QnI3WTZtMDBdLS0+PC9nPjwvc3ZnPg==;clipPath=inset(0% 0% 22% 0%);" vertex="1" parent="M15ChUHS4Shv0E8SYzsy-1">
            <mxGeometry x="58.41000000000008" y="70" width="1013.19" height="461.00145" as="geometry" />
          </mxCell>
        </UserObject>
      </root>
    </mxGraphModel>
  </diagram>
  <diagram id="dUJkOZo8sQiqgYjYysOW" name="Page-7">
    <mxGraphModel dx="584" dy="695" grid="1" gridSize="10" guides="1" tooltips="1" connect="1" arrows="1" fold="1" page="1" pageScale="1" pageWidth="850" pageHeight="1100" math="0" shadow="0">
      <root>
        <mxCell id="0" />
        <mxCell id="1" parent="0" />
        <UserObject label="" plantUmlData="{&quot;data&quot;:&quot;@startuml\ntitle Payroll Processing\n\nactor \&quot;HR Professional\&quot; as HR\nparticipant \&quot;Employee Database\&quot; as DB\nparticipant \&quot;Payroll System\&quot; as PS\nparticipant \&quot;Employees\&quot; as E\n\nHR -&gt; DB: Retrieve employee salary details\nactivate HR\nactivate DB\nDB --&gt; HR: Employee salary details\ndeactivate DB\n\nHR -&gt; PS: Calculate deductions\nactivate PS\nPS --&gt; HR: Deduction details\ndeactivate PS\n\nHR -&gt; PS: Generate payslips\nactivate PS\nPS --&gt; HR: Payslips generated\ndeactivate PS\n\nHR -&gt; E: Disburse payments\nactivate E\nE --&gt; HR: Payment confirmation\ndeactivate E\ndeactivate HR\n\n@enduml\n&quot;,&quot;format&quot;:&quot;svg&quot;}" id="CtRFLEqJul6VQ7wKa3IC-1">
          <mxCell style="shape=image;noLabel=1;verticalAlign=top;aspect=fixed;imageAspect=0;image=data:image/svg+xml,PD94bWwgdmVyc2lvbj0iMS4wIiBlbmNvZGluZz0idXMtYXNjaWkiIHN0YW5kYWxvbmU9Im5vIj8+PHN2ZyB4bWxucz0iaHR0cDovL3d3dy53My5vcmcvMjAwMC9zdmciIHhtbG5zOnhsaW5rPSJodHRwOi8vd3d3LnczLm9yZy8xOTk5L3hsaW5rIiBjb250ZW50U3R5bGVUeXBlPSJ0ZXh0L2NzcyIgaGVpZ2h0PSI0MzhweCIgcHJlc2VydmVBc3BlY3RSYXRpbz0ibm9uZSIgc3R5bGU9IndpZHRoOjU4NHB4O2hlaWdodDo0MzhweDtiYWNrZ3JvdW5kOiNGRkZGRkY7IiB2ZXJzaW9uPSIxLjEiIHZpZXdCb3g9IjAgMCA1ODQgNDM4IiB3aWR0aD0iNTg0cHgiIHpvb21BbmRQYW49Im1hZ25pZnkiPjxkZWZzLz48Zz48dGV4dCBmaWxsPSIjMDAwMDAwIiBmb250LWZhbWlseT0ic2Fucy1zZXJpZiIgZm9udC1zaXplPSIxNCIgZm9udC13ZWlnaHQ9ImJvbGQiIGxlbmd0aEFkanVzdD0ic3BhY2luZyIgdGV4dExlbmd0aD0iMTI2IiB4PSIyMjguMjUiIHk9IjI4LjIzNDQiPlBheXJvbGwgUHJvY2Vzc2luZzwvdGV4dD48cmVjdCBmaWxsPSIjRkZGRkZGIiBoZWlnaHQ9IjE5NS4zOTg0IiBzdHlsZT0ic3Ryb2tlOiMxODE4MTg7c3Ryb2tlLXdpZHRoOjEuMDsiIHdpZHRoPSIxMCIgeD0iNTUuNSIgeT0iMTQ1Ljg4MjgiLz48cmVjdCBmaWxsPSIjRkZGRkZGIiBoZWlnaHQ9IjI3LjkxNDEiIHN0eWxlPSJzdHJva2U6IzE4MTgxODtzdHJva2Utd2lkdGg6MS4wOyIgd2lkdGg9IjEwIiB4PSIyOTUuNSIgeT0iMTQ1Ljg4MjgiLz48cmVjdCBmaWxsPSIjRkZGRkZGIiBoZWlnaHQ9IjI3LjkxNDEiIHN0eWxlPSJzdHJva2U6IzE4MTgxODtzdHJva2Utd2lkdGg6MS4wOyIgd2lkdGg9IjEwIiB4PSI0MjkiIHk9IjIwMS43MTA5Ii8+PHJlY3QgZmlsbD0iI0ZGRkZGRiIgaGVpZ2h0PSIyNy45MTQxIiBzdHlsZT0ic3Ryb2tlOiMxODE4MTg7c3Ryb2tlLXdpZHRoOjEuMDsiIHdpZHRoPSIxMCIgeD0iNDI5IiB5PSIyNTcuNTM5MSIvPjxyZWN0IGZpbGw9IiNGRkZGRkYiIGhlaWdodD0iMjcuOTE0MSIgc3R5bGU9InN0cm9rZTojMTgxODE4O3N0cm9rZS13aWR0aDoxLjA7IiB3aWR0aD0iMTAiIHg9IjUzNC41IiB5PSIzMTMuMzY3MiIvPjxsaW5lIHN0eWxlPSJzdHJva2U6IzE4MTgxODtzdHJva2Utd2lkdGg6MC41O3N0cm9rZS1kYXNoYXJyYXk6NS4wLDUuMDsiIHgxPSI2MCIgeDI9IjYwIiB5MT0iMTE1Ljk2ODgiIHkyPSIzNTkuMjgxMyIvPjxsaW5lIHN0eWxlPSJzdHJva2U6IzE4MTgxODtzdHJva2Utd2lkdGg6MC41O3N0cm9rZS1kYXNoYXJyYXk6NS4wLDUuMDsiIHgxPSIzMDAuNSIgeDI9IjMwMC41IiB5MT0iMTE1Ljk2ODgiIHkyPSIzNTkuMjgxMyIvPjxsaW5lIHN0eWxlPSJzdHJva2U6IzE4MTgxODtzdHJva2Utd2lkdGg6MC41O3N0cm9rZS1kYXNoYXJyYXk6NS4wLDUuMDsiIHgxPSI0MzMuNSIgeDI9IjQzMy41IiB5MT0iMTE1Ljk2ODgiIHkyPSIzNTkuMjgxMyIvPjxsaW5lIHN0eWxlPSJzdHJva2U6IzE4MTgxODtzdHJva2Utd2lkdGg6MC41O3N0cm9rZS1kYXNoYXJyYXk6NS4wLDUuMDsiIHgxPSI1MzkuNSIgeDI9IjUzOS41IiB5MT0iMTE1Ljk2ODgiIHkyPSIzNTkuMjgxMyIvPjx0ZXh0IGZpbGw9IiMwMDAwMDAiIGZvbnQtZmFtaWx5PSJzYW5zLXNlcmlmIiBmb250LXNpemU9IjE0IiBsZW5ndGhBZGp1c3Q9InNwYWNpbmciIHRleHRMZW5ndGg9IjEwNSIgeD0iNSIgeT0iMTE0LjIxODgiPkhSIFByb2Zlc3Npb25hbDwvdGV4dD48ZWxsaXBzZSBjeD0iNjAuNSIgY3k9IjQ5LjQ4NDQiIGZpbGw9IiNFMkUyRjAiIHJ4PSI4IiByeT0iOCIgc3R5bGU9InN0cm9rZTojMTgxODE4O3N0cm9rZS13aWR0aDowLjU7Ii8+PHBhdGggZD0iTTYwLjUsNTcuNDg0NCBMNjAuNSw4NC40ODQ0IE00Ny41LDY1LjQ4NDQgTDczLjUsNjUuNDg0NCBNNjAuNSw4NC40ODQ0IEw0Ny41LDk5LjQ4NDQgTTYwLjUsODQuNDg0NCBMNzMuNSw5OS40ODQ0ICIgZmlsbD0ibm9uZSIgc3R5bGU9InN0cm9rZTojMTgxODE4O3N0cm9rZS13aWR0aDowLjU7Ii8+PHRleHQgZmlsbD0iIzAwMDAwMCIgZm9udC1mYW1pbHk9InNhbnMtc2VyaWYiIGZvbnQtc2l6ZT0iMTQiIGxlbmd0aEFkanVzdD0ic3BhY2luZyIgdGV4dExlbmd0aD0iMTA1IiB4PSI1IiB5PSIzNzEuNTE1NiI+SFIgUHJvZmVzc2lvbmFsPC90ZXh0PjxlbGxpcHNlIGN4PSI2MC41IiBjeT0iMzgxLjc2NTYiIGZpbGw9IiNFMkUyRjAiIHJ4PSI4IiByeT0iOCIgc3R5bGU9InN0cm9rZTojMTgxODE4O3N0cm9rZS13aWR0aDowLjU7Ii8+PHBhdGggZD0iTTYwLjUsMzg5Ljc2NTYgTDYwLjUsNDE2Ljc2NTYgTTQ3LjUsMzk3Ljc2NTYgTDczLjUsMzk3Ljc2NTYgTTYwLjUsNDE2Ljc2NTYgTDQ3LjUsNDMxLjc2NTYgTTYwLjUsNDE2Ljc2NTYgTDczLjUsNDMxLjc2NTYgIiBmaWxsPSJub25lIiBzdHlsZT0ic3Ryb2tlOiMxODE4MTg7c3Ryb2tlLXdpZHRoOjAuNTsiLz48cmVjdCBmaWxsPSIjRTJFMkYwIiBoZWlnaHQ9IjI4Ljk4NDQiIHJ4PSIyLjUiIHJ5PSIyLjUiIHN0eWxlPSJzdHJva2U6IzE4MTgxODtzdHJva2Utd2lkdGg6MC41OyIgd2lkdGg9IjEzNCIgeD0iMjMzLjUiIHk9Ijg1Ljk4NDQiLz48dGV4dCBmaWxsPSIjMDAwMDAwIiBmb250LWZhbWlseT0ic2Fucy1zZXJpZiIgZm9udC1zaXplPSIxNCIgbGVuZ3RoQWRqdXN0PSJzcGFjaW5nIiB0ZXh0TGVuZ3RoPSIxMjAiIHg9IjI0MC41IiB5PSIxMDYuMjE4OCI+RW1wbG95ZWUgRGF0YWJhc2U8L3RleHQ+PHJlY3QgZmlsbD0iI0UyRTJGMCIgaGVpZ2h0PSIyOC45ODQ0IiByeD0iMi41IiByeT0iMi41IiBzdHlsZT0ic3Ryb2tlOiMxODE4MTg7c3Ryb2tlLXdpZHRoOjAuNTsiIHdpZHRoPSIxMzQiIHg9IjIzMy41IiB5PSIzNTguMjgxMyIvPjx0ZXh0IGZpbGw9IiMwMDAwMDAiIGZvbnQtZmFtaWx5PSJzYW5zLXNlcmlmIiBmb250LXNpemU9IjE0IiBsZW5ndGhBZGp1c3Q9InNwYWNpbmciIHRleHRMZW5ndGg9IjEyMCIgeD0iMjQwLjUiIHk9IjM3OC41MTU2Ij5FbXBsb3llZSBEYXRhYmFzZTwvdGV4dD48cmVjdCBmaWxsPSIjRTJFMkYwIiBoZWlnaHQ9IjI4Ljk4NDQiIHJ4PSIyLjUiIHJ5PSIyLjUiIHN0eWxlPSJzdHJva2U6IzE4MTgxODtzdHJva2Utd2lkdGg6MC41OyIgd2lkdGg9IjExMyIgeD0iMzc3LjUiIHk9Ijg1Ljk4NDQiLz48dGV4dCBmaWxsPSIjMDAwMDAwIiBmb250LWZhbWlseT0ic2Fucy1zZXJpZiIgZm9udC1zaXplPSIxNCIgbGVuZ3RoQWRqdXN0PSJzcGFjaW5nIiB0ZXh0TGVuZ3RoPSI5OSIgeD0iMzg0LjUiIHk9IjEwNi4yMTg4Ij5QYXlyb2xsIFN5c3RlbTwvdGV4dD48cmVjdCBmaWxsPSIjRTJFMkYwIiBoZWlnaHQ9IjI4Ljk4NDQiIHJ4PSIyLjUiIHJ5PSIyLjUiIHN0eWxlPSJzdHJva2U6IzE4MTgxODtzdHJva2Utd2lkdGg6MC41OyIgd2lkdGg9IjExMyIgeD0iMzc3LjUiIHk9IjM1OC4yODEzIi8+PHRleHQgZmlsbD0iIzAwMDAwMCIgZm9udC1mYW1pbHk9InNhbnMtc2VyaWYiIGZvbnQtc2l6ZT0iMTQiIGxlbmd0aEFkanVzdD0ic3BhY2luZyIgdGV4dExlbmd0aD0iOTkiIHg9IjM4NC41IiB5PSIzNzguNTE1NiI+UGF5cm9sbCBTeXN0ZW08L3RleHQ+PHJlY3QgZmlsbD0iI0UyRTJGMCIgaGVpZ2h0PSIyOC45ODQ0IiByeD0iMi41IiByeT0iMi41IiBzdHlsZT0ic3Ryb2tlOiMxODE4MTg7c3Ryb2tlLXdpZHRoOjAuNTsiIHdpZHRoPSI3OCIgeD0iNTAwLjUiIHk9Ijg1Ljk4NDQiLz48dGV4dCBmaWxsPSIjMDAwMDAwIiBmb250LWZhbWlseT0ic2Fucy1zZXJpZiIgZm9udC1zaXplPSIxNCIgbGVuZ3RoQWRqdXN0PSJzcGFjaW5nIiB0ZXh0TGVuZ3RoPSI2NCIgeD0iNTA3LjUiIHk9IjEwNi4yMTg4Ij5FbXBsb3llZXM8L3RleHQ+PHJlY3QgZmlsbD0iI0UyRTJGMCIgaGVpZ2h0PSIyOC45ODQ0IiByeD0iMi41IiByeT0iMi41IiBzdHlsZT0ic3Ryb2tlOiMxODE4MTg7c3Ryb2tlLXdpZHRoOjAuNTsiIHdpZHRoPSI3OCIgeD0iNTAwLjUiIHk9IjM1OC4yODEzIi8+PHRleHQgZmlsbD0iIzAwMDAwMCIgZm9udC1mYW1pbHk9InNhbnMtc2VyaWYiIGZvbnQtc2l6ZT0iMTQiIGxlbmd0aEFkanVzdD0ic3BhY2luZyIgdGV4dExlbmd0aD0iNjQiIHg9IjUwNy41IiB5PSIzNzguNTE1NiI+RW1wbG95ZWVzPC90ZXh0PjxyZWN0IGZpbGw9IiNGRkZGRkYiIGhlaWdodD0iMTk1LjM5ODQiIHN0eWxlPSJzdHJva2U6IzE4MTgxODtzdHJva2Utd2lkdGg6MS4wOyIgd2lkdGg9IjEwIiB4PSI1NS41IiB5PSIxNDUuODgyOCIvPjxyZWN0IGZpbGw9IiNGRkZGRkYiIGhlaWdodD0iMjcuOTE0MSIgc3R5bGU9InN0cm9rZTojMTgxODE4O3N0cm9rZS13aWR0aDoxLjA7IiB3aWR0aD0iMTAiIHg9IjI5NS41IiB5PSIxNDUuODgyOCIvPjxyZWN0IGZpbGw9IiNGRkZGRkYiIGhlaWdodD0iMjcuOTE0MSIgc3R5bGU9InN0cm9rZTojMTgxODE4O3N0cm9rZS13aWR0aDoxLjA7IiB3aWR0aD0iMTAiIHg9IjQyOSIgeT0iMjAxLjcxMDkiLz48cmVjdCBmaWxsPSIjRkZGRkZGIiBoZWlnaHQ9IjI3LjkxNDEiIHN0eWxlPSJzdHJva2U6IzE4MTgxODtzdHJva2Utd2lkdGg6MS4wOyIgd2lkdGg9IjEwIiB4PSI0MjkiIHk9IjI1Ny41MzkxIi8+PHJlY3QgZmlsbD0iI0ZGRkZGRiIgaGVpZ2h0PSIyNy45MTQxIiBzdHlsZT0ic3Ryb2tlOiMxODE4MTg7c3Ryb2tlLXdpZHRoOjEuMDsiIHdpZHRoPSIxMCIgeD0iNTM0LjUiIHk9IjMxMy4zNjcyIi8+PHBvbHlnb24gZmlsbD0iIzE4MTgxOCIgcG9pbnRzPSIyODMuNSwxNDEuODgyOCwyOTMuNSwxNDUuODgyOCwyODMuNSwxNDkuODgyOCwyODcuNSwxNDUuODgyOCIgc3R5bGU9InN0cm9rZTojMTgxODE4O3N0cm9rZS13aWR0aDoxLjA7Ii8+PGxpbmUgc3R5bGU9InN0cm9rZTojMTgxODE4O3N0cm9rZS13aWR0aDoxLjA7IiB4MT0iNjUuNSIgeDI9IjI4OS41IiB5MT0iMTQ1Ljg4MjgiIHkyPSIxNDUuODgyOCIvPjx0ZXh0IGZpbGw9IiMwMDAwMDAiIGZvbnQtZmFtaWx5PSJzYW5zLXNlcmlmIiBmb250LXNpemU9IjEzIiBsZW5ndGhBZGp1c3Q9InNwYWNpbmciIHRleHRMZW5ndGg9IjIxNiIgeD0iNzIuNSIgeT0iMTQyLjI1NzgiPlJldHJpZXZlIGVtcGxveWVlIHNhbGFyeSBkZXRhaWxzPC90ZXh0Pjxwb2x5Z29uIGZpbGw9IiMxODE4MTgiIHBvaW50cz0iNzYuNSwxNjkuNzk2OSw2Ni41LDE3My43OTY5LDc2LjUsMTc3Ljc5NjksNzIuNSwxNzMuNzk2OSIgc3R5bGU9InN0cm9rZTojMTgxODE4O3N0cm9rZS13aWR0aDoxLjA7Ii8+PGxpbmUgc3R5bGU9InN0cm9rZTojMTgxODE4O3N0cm9rZS13aWR0aDoxLjA7c3Ryb2tlLWRhc2hhcnJheToyLjAsMi4wOyIgeDE9IjcwLjUiIHgyPSIyOTkuNSIgeTE9IjE3My43OTY5IiB5Mj0iMTczLjc5NjkiLz48dGV4dCBmaWxsPSIjMDAwMDAwIiBmb250LWZhbWlseT0ic2Fucy1zZXJpZiIgZm9udC1zaXplPSIxMyIgbGVuZ3RoQWRqdXN0PSJzcGFjaW5nIiB0ZXh0TGVuZ3RoPSIxNTUiIHg9IjgyLjUiIHk9IjE3MC4xNzE5Ij5FbXBsb3llZSBzYWxhcnkgZGV0YWlsczwvdGV4dD48cG9seWdvbiBmaWxsPSIjMTgxODE4IiBwb2ludHM9IjQxNywxOTcuNzEwOSw0MjcsMjAxLjcxMDksNDE3LDIwNS43MTA5LDQyMSwyMDEuNzEwOSIgc3R5bGU9InN0cm9rZTojMTgxODE4O3N0cm9rZS13aWR0aDoxLjA7Ii8+PGxpbmUgc3R5bGU9InN0cm9rZTojMTgxODE4O3N0cm9rZS13aWR0aDoxLjA7IiB4MT0iNjUuNSIgeDI9IjQyMyIgeTE9IjIwMS43MTA5IiB5Mj0iMjAxLjcxMDkiLz48dGV4dCBmaWxsPSIjMDAwMDAwIiBmb250LWZhbWlseT0ic2Fucy1zZXJpZiIgZm9udC1zaXplPSIxMyIgbGVuZ3RoQWRqdXN0PSJzcGFjaW5nIiB0ZXh0TGVuZ3RoPSIxMzUiIHg9IjcyLjUiIHk9IjE5OC4wODU5Ij5DYWxjdWxhdGUgZGVkdWN0aW9uczwvdGV4dD48cG9seWdvbiBmaWxsPSIjMTgxODE4IiBwb2ludHM9Ijc2LjUsMjI1LjYyNSw2Ni41LDIyOS42MjUsNzYuNSwyMzMuNjI1LDcyLjUsMjI5LjYyNSIgc3R5bGU9InN0cm9rZTojMTgxODE4O3N0cm9rZS13aWR0aDoxLjA7Ii8+PGxpbmUgc3R5bGU9InN0cm9rZTojMTgxODE4O3N0cm9rZS13aWR0aDoxLjA7c3Ryb2tlLWRhc2hhcnJheToyLjAsMi4wOyIgeDE9IjcwLjUiIHgyPSI0MzMiIHkxPSIyMjkuNjI1IiB5Mj0iMjI5LjYyNSIvPjx0ZXh0IGZpbGw9IiMwMDAwMDAiIGZvbnQtZmFtaWx5PSJzYW5zLXNlcmlmIiBmb250LXNpemU9IjEzIiBsZW5ndGhBZGp1c3Q9InNwYWNpbmciIHRleHRMZW5ndGg9IjExNCIgeD0iODIuNSIgeT0iMjI2Ij5EZWR1Y3Rpb24gZGV0YWlsczwvdGV4dD48cG9seWdvbiBmaWxsPSIjMTgxODE4IiBwb2ludHM9IjQxNywyNTMuNTM5MSw0MjcsMjU3LjUzOTEsNDE3LDI2MS41MzkxLDQyMSwyNTcuNTM5MSIgc3R5bGU9InN0cm9rZTojMTgxODE4O3N0cm9rZS13aWR0aDoxLjA7Ii8+PGxpbmUgc3R5bGU9InN0cm9rZTojMTgxODE4O3N0cm9rZS13aWR0aDoxLjA7IiB4MT0iNjUuNSIgeDI9IjQyMyIgeTE9IjI1Ny41MzkxIiB5Mj0iMjU3LjUzOTEiLz48dGV4dCBmaWxsPSIjMDAwMDAwIiBmb250LWZhbWlseT0ic2Fucy1zZXJpZiIgZm9udC1zaXplPSIxMyIgbGVuZ3RoQWRqdXN0PSJzcGFjaW5nIiB0ZXh0TGVuZ3RoPSIxMTYiIHg9IjcyLjUiIHk9IjI1My45MTQxIj5HZW5lcmF0ZSBwYXlzbGlwczwvdGV4dD48cG9seWdvbiBmaWxsPSIjMTgxODE4IiBwb2ludHM9Ijc2LjUsMjgxLjQ1MzEsNjYuNSwyODUuNDUzMSw3Ni41LDI4OS40NTMxLDcyLjUsMjg1LjQ1MzEiIHN0eWxlPSJzdHJva2U6IzE4MTgxODtzdHJva2Utd2lkdGg6MS4wOyIvPjxsaW5lIHN0eWxlPSJzdHJva2U6IzE4MTgxODtzdHJva2Utd2lkdGg6MS4wO3N0cm9rZS1kYXNoYXJyYXk6Mi4wLDIuMDsiIHgxPSI3MC41IiB4Mj0iNDMzIiB5MT0iMjg1LjQ1MzEiIHkyPSIyODUuNDUzMSIvPjx0ZXh0IGZpbGw9IiMwMDAwMDAiIGZvbnQtZmFtaWx5PSJzYW5zLXNlcmlmIiBmb250LXNpemU9IjEzIiBsZW5ndGhBZGp1c3Q9InNwYWNpbmciIHRleHRMZW5ndGg9IjEyMyIgeD0iODIuNSIgeT0iMjgxLjgyODEiPlBheXNsaXBzIGdlbmVyYXRlZDwvdGV4dD48cG9seWdvbiBmaWxsPSIjMTgxODE4IiBwb2ludHM9IjUyMi41LDMwOS4zNjcyLDUzMi41LDMxMy4zNjcyLDUyMi41LDMxNy4zNjcyLDUyNi41LDMxMy4zNjcyIiBzdHlsZT0ic3Ryb2tlOiMxODE4MTg7c3Ryb2tlLXdpZHRoOjEuMDsiLz48bGluZSBzdHlsZT0ic3Ryb2tlOiMxODE4MTg7c3Ryb2tlLXdpZHRoOjEuMDsiIHgxPSI2NS41IiB4Mj0iNTI4LjUiIHkxPSIzMTMuMzY3MiIgeTI9IjMxMy4zNjcyIi8+PHRleHQgZmlsbD0iIzAwMDAwMCIgZm9udC1mYW1pbHk9InNhbnMtc2VyaWYiIGZvbnQtc2l6ZT0iMTMiIGxlbmd0aEFkanVzdD0ic3BhY2luZyIgdGV4dExlbmd0aD0iMTE2IiB4PSI3Mi41IiB5PSIzMDkuNzQyMiI+RGlzYnVyc2UgcGF5bWVudHM8L3RleHQ+PHBvbHlnb24gZmlsbD0iIzE4MTgxOCIgcG9pbnRzPSI3MS41LDMzNy4yODEzLDYxLjUsMzQxLjI4MTMsNzEuNSwzNDUuMjgxMyw2Ny41LDM0MS4yODEzIiBzdHlsZT0ic3Ryb2tlOiMxODE4MTg7c3Ryb2tlLXdpZHRoOjEuMDsiLz48bGluZSBzdHlsZT0ic3Ryb2tlOiMxODE4MTg7c3Ryb2tlLXdpZHRoOjEuMDtzdHJva2UtZGFzaGFycmF5OjIuMCwyLjA7IiB4MT0iNjUuNSIgeDI9IjUzOC41IiB5MT0iMzQxLjI4MTMiIHkyPSIzNDEuMjgxMyIvPjx0ZXh0IGZpbGw9IiMwMDAwMDAiIGZvbnQtZmFtaWx5PSJzYW5zLXNlcmlmIiBmb250LXNpemU9IjEzIiBsZW5ndGhBZGp1c3Q9InNwYWNpbmciIHRleHRMZW5ndGg9IjEzMyIgeD0iNzcuNSIgeT0iMzM3LjY1NjMiPlBheW1lbnQgY29uZmlybWF0aW9uPC90ZXh0PjwhLS1TUkM9W1RPdjFoZUNtMzRKdEVPTjVsWFRXcUtLX0tMYjZTMDhOdDJmSUk1MWlBZDd4OVdZZ1Y4ZGthZmRuY240aFppM1c2ZURwTzY4T1lEZHdicjh1SThYR2pMck1kcmFEN2JxNW9EMXNRaU9lVGgwcFVlNUFKeENCQW40cUFGWDBmWXRMdEZ3ZFpmOS1QUTVmWXZaLTdDSVJndkxBeFBUaDhqTkdhS0hCUm04d29YV1RuWEw2NGhJRXlyeHhIZzZ5eGxqRTZ2ZVJOMUFaeE1oR0ZxdjdBV19zS2pGTnk4VGtNNXBNSG5nTmIwYy1BNGhoSlYtNURxVlkzOWtZMVZQRWRjQU1QcnBQc1ZhZHEtbS1sRlFCeUhvZ0t4dGJubjl2T3F4YWZNMWdmS2pZVGM0OF9jZFpYN2Jtb1RKYmYtcS1dLS0+PC9nPjwvc3ZnPg==;clipPath=inset(0% 0% 18.89% 0%);" vertex="1" parent="1">
            <mxGeometry x="1057.38" y="60" width="733.33" height="446.1090833333334" as="geometry" />
          </mxCell>
        </UserObject>
        <mxCell id="CtRFLEqJul6VQ7wKa3IC-2" value="&lt;span id=&quot;docs-internal-guid-2bd4aa14-7fff-87df-c203-e016fc813217&quot;&gt;&lt;span style=&quot;font-size: 9.5pt; font-family: Roboto, sans-serif; background-color: transparent; font-weight: 700; font-variant-numeric: normal; font-variant-east-asian: normal; font-variant-alternates: normal; font-variant-position: normal; vertical-align: baseline; white-space-collapse: preserve;&quot;&gt;UC-HR-06&lt;/span&gt;&lt;/span&gt;" style="shape=umlFrame;whiteSpace=wrap;html=1;pointerEvents=0;recursiveResize=0;container=1;collapsible=0;width=160;fillColor=#e1d5e7;strokeColor=#9673a6;" vertex="1" parent="1">
          <mxGeometry x="1010" y="30" width="860" height="580" as="geometry" />
        </mxCell>
      </root>
    </mxGraphModel>
  </diagram>
</mxfile>
